<svg xmlns="http://www.w3.org/2000/svg" width="169.422" height="30.962" viewBox="0 0 169.422 30.962">
  <g id="dayservice-ttl" transform="translate(0 0.5)">
    <path id="パス_46278" data-name="パス 46278" d="M3.75-40.595a2.388,2.388,0,0,1,.72-1.755,2.388,2.388,0,0,1,1.755-.72H24.77a2.483,2.483,0,0,1,1.773.7,2.483,2.483,0,0,1,.7,1.773,2.388,2.388,0,0,1-.72,1.755,2.388,2.388,0,0,1-1.755.72H6.225a2.3,2.3,0,0,1-1.736-.739A2.3,2.3,0,0,1,3.75-40.595ZM3.9-32.32a2.388,2.388,0,0,1,.72-1.755,2.388,2.388,0,0,1,1.755-.72H24.917a2.483,2.483,0,0,1,1.773.7,2.483,2.483,0,0,1,.7,1.773,2.388,2.388,0,0,1-.72,1.755,2.388,2.388,0,0,1-1.755.72H19.709a18.677,18.677,0,0,1-.591,2.881,9.187,9.187,0,0,1-2.42,3.934,6.489,6.489,0,0,1-4.267,1.755H6.521a2.419,2.419,0,0,1-1.681-.72,2.419,2.419,0,0,1-.72-1.681A2.52,2.52,0,0,1,4.8-25.449a2.363,2.363,0,0,1,1.718-.776h4.655A3.286,3.286,0,0,0,13.5-27.3a4.663,4.663,0,0,0,1.182-2.29,1.085,1.085,0,0,1,.037-.259H6.373a2.3,2.3,0,0,1-1.736-.739A2.3,2.3,0,0,1,3.9-32.32ZM14.63-48.84a2.565,2.565,0,0,1,.776-1.884A2.565,2.565,0,0,1,17.29-51.5a2.565,2.565,0,0,1,1.884.776,2.565,2.565,0,0,1,.776,1.884,2.565,2.565,0,0,1-.776,1.884,2.565,2.565,0,0,1-1.884.776,2.565,2.565,0,0,1-1.884-.776A2.565,2.565,0,0,1,14.63-48.84Zm7.443,0a2.565,2.565,0,0,1,.776-1.884,2.565,2.565,0,0,1,1.884-.776,2.565,2.565,0,0,1,1.884.776,2.565,2.565,0,0,1,.776,1.884,2.565,2.565,0,0,1-.776,1.884,2.565,2.565,0,0,1-1.884.776,2.565,2.565,0,0,1-1.884-.776A2.565,2.565,0,0,1,22.073-48.84Zm34.161,8.024L55.5-38.9a17.52,17.52,0,0,1-3.842,6.354A8.167,8.167,0,0,1,47.959-30.4v6.834a2.412,2.412,0,0,1-2.438,2.4,2.586,2.586,0,0,1-1.792-.683,2.216,2.216,0,0,1-.757-1.718v-6.686H34.328a2.419,2.419,0,0,1-1.681-.72,2.419,2.419,0,0,1-.72-1.681,2.52,2.52,0,0,1,.683-1.773,2.363,2.363,0,0,1,1.718-.776h11.23A4.534,4.534,0,0,0,48.2-36.273a6.755,6.755,0,0,0,1.866-2.272A26.054,26.054,0,0,0,51.21-41.26l.443-1.182a3.2,3.2,0,0,1,.757-1.274,2.088,2.088,0,0,1,1.533-.5,2.316,2.316,0,0,1,1.718.739,2.45,2.45,0,0,1,.72,1.773A2.576,2.576,0,0,1,56.234-40.816Zm4.191,2.475a2.388,2.388,0,0,1,.72-1.755,2.388,2.388,0,0,1,1.755-.72h2.512v-1.293a2.363,2.363,0,0,1,.776-1.718,2.52,2.52,0,0,1,1.773-.683,2.486,2.486,0,0,1,1.7.72,2.385,2.385,0,0,1,.739,1.681v1.293h8.2l.185-1.293a2.832,2.832,0,0,1,1-1.718,2.791,2.791,0,0,1,1.847-.683,2.164,2.164,0,0,1,1.607.72,2.177,2.177,0,0,1,.536,1.681l-.185,1.293h2.29a2.483,2.483,0,0,1,1.773.7,2.483,2.483,0,0,1,.7,1.773,2.388,2.388,0,0,1-.72,1.755,2.388,2.388,0,0,1-1.755.72H82.885l-.517,3.546A19.36,19.36,0,0,1,81-27.37a11.218,11.218,0,0,1-2.974,3.934,7.422,7.422,0,0,1-4.488,1.755H67.628a2.419,2.419,0,0,1-1.681-.72,2.419,2.419,0,0,1-.72-1.681,2.52,2.52,0,0,1,.683-1.773,2.363,2.363,0,0,1,1.718-.776h5.32A3.762,3.762,0,0,0,75.4-27.7a5.339,5.339,0,0,0,1.459-2.272,15.26,15.26,0,0,0,.591-2.789l.443-3.1H70.4v3.8a2.412,2.412,0,0,1-2.438,2.4,2.586,2.586,0,0,1-1.792-.683,2.216,2.216,0,0,1-.757-1.718v-3.8H62.9a2.3,2.3,0,0,1-1.736-.739A2.3,2.3,0,0,1,60.425-38.341Zm31.047,5.615a2.388,2.388,0,0,1,.72-1.755,2.388,2.388,0,0,1,1.755-.72h18.545a2.483,2.483,0,0,1,1.773.7,2.483,2.483,0,0,1,.7,1.773,2.388,2.388,0,0,1-.72,1.755,2.388,2.388,0,0,1-1.755.72H93.946a2.3,2.3,0,0,1-1.736-.739A2.3,2.3,0,0,1,91.471-32.726Zm31.01-11.341a2.52,2.52,0,0,1,1.773.683,2.363,2.363,0,0,1,.776,1.718v1.736h15.515a2.483,2.483,0,0,1,1.773.7,2.483,2.483,0,0,1,.7,1.773,2.388,2.388,0,0,1-.72,1.755,2.388,2.388,0,0,1-1.755.72H125.03v2.216a13.325,13.325,0,0,0,.2,2.789A4.526,4.526,0,0,0,126.4-27.7a3.286,3.286,0,0,0,2.327,1.071h11.821a2.363,2.363,0,0,1,1.718.776,2.52,2.52,0,0,1,.683,1.773,2.419,2.419,0,0,1-.72,1.681,2.419,2.419,0,0,1-1.681.72H127.468a6.489,6.489,0,0,1-4.267-1.755,9.187,9.187,0,0,1-2.42-3.934,17.941,17.941,0,0,1-.739-4.95v-9.346a2.385,2.385,0,0,1,.739-1.681A2.486,2.486,0,0,1,122.481-44.067Zm7.925-1.633a2.565,2.565,0,0,1,.776-1.884,2.565,2.565,0,0,1,1.884-.776,2.565,2.565,0,0,1,1.884.776,2.565,2.565,0,0,1,.776,1.884,2.565,2.565,0,0,1-.776,1.884,2.565,2.565,0,0,1-1.884.776,2.565,2.565,0,0,1-1.884-.776A2.565,2.565,0,0,1,130.406-45.7Zm7.443,0a2.565,2.565,0,0,1,.776-1.884,2.565,2.565,0,0,1,1.884-.776,2.565,2.565,0,0,1,1.884.776,2.565,2.565,0,0,1,.776,1.884,2.565,2.565,0,0,1-.776,1.884,2.565,2.565,0,0,1-1.884.776,2.565,2.565,0,0,1-1.884-.776A2.565,2.565,0,0,1,137.849-45.7ZM147.913-41a2.388,2.388,0,0,1,.72-1.755,2.388,2.388,0,0,1,1.755-.72h18.544a2.483,2.483,0,0,1,1.773.7,2.483,2.483,0,0,1,.7,1.773,2.549,2.549,0,0,1-.3,1.219l-5.1,8.386,6.428,6.1a2.386,2.386,0,0,1,.037,3.4,2.7,2.7,0,0,1-1.718.85,2.056,2.056,0,0,1-1.755-.628l-5.874-5.541a18.414,18.414,0,0,1-3.251,3.251,10.2,10.2,0,0,1-5.5,2.29h-3.842a2.419,2.419,0,0,1-1.681-.72,2.419,2.419,0,0,1-.72-1.681,2.52,2.52,0,0,1,.683-1.773,2.363,2.363,0,0,1,1.718-.776h3.472a5.908,5.908,0,0,0,2.918-1.071,10.444,10.444,0,0,0,2.512-2.272,25.052,25.052,0,0,0,1.884-2.789l3.436-5.763h-14.37a2.3,2.3,0,0,1-1.736-.739A2.3,2.3,0,0,1,147.913-41Z" transform="translate(-3.75 51.5)" fill="#051a2b"/>
    <path id="パス_46279" data-name="パス 46279" d="M23.737-48.84a2.565,2.565,0,0,1,.776-1.884A2.565,2.565,0,0,1,26.4-51.5a2.565,2.565,0,0,1,1.884.776,2.565,2.565,0,0,1,.776,1.884,2.565,2.565,0,0,1-.776,1.884,2.565,2.565,0,0,1-1.884.776,2.565,2.565,0,0,1-1.884-.776A2.565,2.565,0,0,1,23.737-48.84Zm7.443,0a2.565,2.565,0,0,1,.776-1.884,2.565,2.565,0,0,1,1.884-.776,2.565,2.565,0,0,1,1.884.776A2.565,2.565,0,0,1,36.5-48.84a2.565,2.565,0,0,1-.776,1.884,2.565,2.565,0,0,1-1.884.776,2.565,2.565,0,0,1-1.884-.776A2.565,2.565,0,0,1,31.18-48.84Zm69.4,16.114a2.388,2.388,0,0,1,.72-1.755,2.388,2.388,0,0,1,1.755-.72H121.6a2.483,2.483,0,0,1,1.773.7,2.483,2.483,0,0,1,.7,1.773,2.388,2.388,0,0,1-.72,1.755,2.388,2.388,0,0,1-1.755.72H103.053a2.3,2.3,0,0,1-1.736-.739A2.3,2.3,0,0,1,100.578-32.726ZM139.513-45.7a2.565,2.565,0,0,1,.776-1.884,2.565,2.565,0,0,1,1.884-.776,2.565,2.565,0,0,1,1.884.776,2.565,2.565,0,0,1,.776,1.884,2.565,2.565,0,0,1-.776,1.884,2.565,2.565,0,0,1-1.884.776,2.565,2.565,0,0,1-1.884-.776A2.565,2.565,0,0,1,139.513-45.7Zm7.443,0a2.565,2.565,0,0,1,.776-1.884,2.565,2.565,0,0,1,1.884-.776,2.565,2.565,0,0,1,1.884.776,2.565,2.565,0,0,1,.776,1.884,2.565,2.565,0,0,1-.776,1.884,2.565,2.565,0,0,1-1.884.776,2.565,2.565,0,0,1-1.884-.776A2.565,2.565,0,0,1,146.956-45.7Z" transform="translate(-12.857 51.5)" fill="#00b6f1" stroke="#00b6f1" stroke-width="1"/>
  </g>
</svg>
