<svg xmlns="http://www.w3.org/2000/svg" width="209.588" height="38.184" viewBox="0 0 209.588 38.184">
  <g id="dayservice_ttl_invert" transform="translate(0 0.5)">
    <path id="パス_46278" data-name="パス 46278" d="M3.75-38.009a2.954,2.954,0,0,1,.891-2.171,2.954,2.954,0,0,1,2.171-.891H29.753a3.072,3.072,0,0,1,2.194.868,3.072,3.072,0,0,1,.868,2.194,2.954,2.954,0,0,1-.891,2.171,2.954,2.954,0,0,1-2.171.891H6.812a2.844,2.844,0,0,1-2.148-.914A2.844,2.844,0,0,1,3.75-38.009Zm.183,10.237a2.954,2.954,0,0,1,.891-2.171,2.954,2.954,0,0,1,2.171-.891H29.936a3.072,3.072,0,0,1,2.194.868A3.072,3.072,0,0,1,33-27.773a2.954,2.954,0,0,1-.891,2.171,2.954,2.954,0,0,1-2.171.891H23.492a23.105,23.105,0,0,1-.731,3.565,11.365,11.365,0,0,1-2.993,4.867,8.028,8.028,0,0,1-5.278,2.171H7.177A2.992,2.992,0,0,1,5.1-15a2.992,2.992,0,0,1-.891-2.079,3.117,3.117,0,0,1,.845-2.194,2.923,2.923,0,0,1,2.125-.96h5.758a4.065,4.065,0,0,0,2.879-1.325,5.768,5.768,0,0,0,1.462-2.833,1.343,1.343,0,0,1,.046-.32H6.995a2.844,2.844,0,0,1-2.148-.914A2.844,2.844,0,0,1,3.933-27.773ZM17.21-48.21a3.173,3.173,0,0,1,.96-2.331A3.173,3.173,0,0,1,20.5-51.5a3.173,3.173,0,0,1,2.331.96,3.173,3.173,0,0,1,.96,2.331,3.173,3.173,0,0,1-.96,2.331,3.173,3.173,0,0,1-2.331.96,3.173,3.173,0,0,1-2.331-.96A3.173,3.173,0,0,1,17.21-48.21Zm9.207,0a3.173,3.173,0,0,1,.96-2.331,3.173,3.173,0,0,1,2.331-.96,3.173,3.173,0,0,1,2.331.96A3.173,3.173,0,0,1,33-48.21a3.173,3.173,0,0,1-.96,2.331,3.173,3.173,0,0,1-2.331.96,3.173,3.173,0,0,1-2.331-.96A3.173,3.173,0,0,1,26.417-48.21Zm42.26,9.926-.914,2.376a21.674,21.674,0,0,1-4.753,7.86A10.1,10.1,0,0,1,58.44-25.4v8.454a2.984,2.984,0,0,1-3.016,2.97,3.2,3.2,0,0,1-2.216-.845,2.741,2.741,0,0,1-.937-2.125v-8.272H41.577A2.992,2.992,0,0,1,39.5-26.1a2.992,2.992,0,0,1-.891-2.079,3.117,3.117,0,0,1,.845-2.194,2.923,2.923,0,0,1,2.125-.96H55.47a5.608,5.608,0,0,0,3.267-1.325,8.356,8.356,0,0,0,2.308-2.811,32.231,32.231,0,0,0,1.417-3.359l.548-1.462a3.955,3.955,0,0,1,.937-1.577,2.583,2.583,0,0,1,1.9-.617,2.866,2.866,0,0,1,2.125.914,3.03,3.03,0,0,1,.891,2.194A3.187,3.187,0,0,1,68.677-38.283Zm5.184,3.062a2.954,2.954,0,0,1,.891-2.171,2.954,2.954,0,0,1,2.171-.891H80.03v-1.6a2.923,2.923,0,0,1,.96-2.125,3.117,3.117,0,0,1,2.194-.845,3.075,3.075,0,0,1,2.1.891,2.95,2.95,0,0,1,.914,2.079v1.6H96.345l.229-1.6a3.5,3.5,0,0,1,1.234-2.125,3.453,3.453,0,0,1,2.285-.845,2.677,2.677,0,0,1,1.988.891,2.693,2.693,0,0,1,.663,2.079l-.229,1.6h2.833a3.072,3.072,0,0,1,2.194.868,3.072,3.072,0,0,1,.868,2.194,2.954,2.954,0,0,1-.891,2.171,2.954,2.954,0,0,1-2.171.891h-3.7l-.64,4.387a23.95,23.95,0,0,1-1.691,6.124,13.877,13.877,0,0,1-3.679,4.867,9.182,9.182,0,0,1-5.552,2.171H82.772a2.992,2.992,0,0,1-2.079-.891,2.992,2.992,0,0,1-.891-2.079,3.117,3.117,0,0,1,.845-2.194,2.923,2.923,0,0,1,2.125-.96h6.581a4.654,4.654,0,0,0,3.039-1.325A6.605,6.605,0,0,0,94.2-24.871a18.879,18.879,0,0,0,.731-3.45l.548-3.839H86.2v4.707a2.984,2.984,0,0,1-3.016,2.97,3.2,3.2,0,0,1-2.216-.845,2.741,2.741,0,0,1-.937-2.125V-32.16H76.923a2.844,2.844,0,0,1-2.148-.914A2.844,2.844,0,0,1,73.861-35.222Zm38.407,6.946a2.954,2.954,0,0,1,.891-2.171,2.954,2.954,0,0,1,2.171-.891h22.941a3.072,3.072,0,0,1,2.194.868,3.072,3.072,0,0,1,.868,2.194,2.954,2.954,0,0,1-.891,2.171,2.954,2.954,0,0,1-2.171.891H115.33a2.844,2.844,0,0,1-2.148-.914A2.844,2.844,0,0,1,112.268-28.275ZM150.63-42.3a3.117,3.117,0,0,1,2.194.845,2.924,2.924,0,0,1,.96,2.125v2.148h19.194a3.072,3.072,0,0,1,2.194.868,3.072,3.072,0,0,1,.868,2.194,2.954,2.954,0,0,1-.891,2.171,2.954,2.954,0,0,1-2.171.891H153.783v2.742a16.484,16.484,0,0,0,.251,3.45,5.6,5.6,0,0,0,1.44,2.811,4.065,4.065,0,0,0,2.879,1.325h14.624a2.923,2.923,0,0,1,2.125.96,3.117,3.117,0,0,1,.845,2.194,2.992,2.992,0,0,1-.891,2.079,2.992,2.992,0,0,1-2.079.891H156.8a8.028,8.028,0,0,1-5.278-2.171,11.365,11.365,0,0,1-2.993-4.867,22.194,22.194,0,0,1-.914-6.124V-39.335a2.95,2.95,0,0,1,.914-2.079A3.075,3.075,0,0,1,150.63-42.3Zm9.8-2.02a3.173,3.173,0,0,1,.96-2.331,3.173,3.173,0,0,1,2.331-.96,3.173,3.173,0,0,1,2.331.96,3.173,3.173,0,0,1,.96,2.331,3.173,3.173,0,0,1-.96,2.331,3.173,3.173,0,0,1-2.331.96,3.173,3.173,0,0,1-2.331-.96A3.173,3.173,0,0,1,160.434-44.325Zm9.207,0a3.173,3.173,0,0,1,.96-2.331,3.173,3.173,0,0,1,2.331-.96,3.173,3.173,0,0,1,2.331.96,3.173,3.173,0,0,1,.96,2.331,3.173,3.173,0,0,1-.96,2.331,3.173,3.173,0,0,1-2.331.96,3.173,3.173,0,0,1-2.331-.96A3.173,3.173,0,0,1,169.641-44.325Zm12.45,5.813a2.954,2.954,0,0,1,.891-2.171,2.954,2.954,0,0,1,2.171-.891h22.941a3.072,3.072,0,0,1,2.194.868,3.072,3.072,0,0,1,.868,2.194A3.154,3.154,0,0,1,210.79-37L204.484-26.63l7.952,7.54a2.951,2.951,0,0,1,.046,4.2,3.344,3.344,0,0,1-2.125,1.051,2.543,2.543,0,0,1-2.171-.777l-7.266-6.855a22.778,22.778,0,0,1-4.021,4.022,12.616,12.616,0,0,1-6.809,2.833h-4.753a2.992,2.992,0,0,1-2.079-.891,2.992,2.992,0,0,1-.891-2.079,3.117,3.117,0,0,1,.845-2.194,2.923,2.923,0,0,1,2.125-.96h4.3a7.309,7.309,0,0,0,3.61-1.325,12.92,12.92,0,0,0,3.108-2.811,30.994,30.994,0,0,0,2.331-3.45l4.25-7.129H185.153a2.844,2.844,0,0,1-2.148-.914A2.844,2.844,0,0,1,182.091-38.512Z" transform="translate(-3.75 51.5)" fill="#fff"/>
    <path id="パス_46279" data-name="パス 46279" d="M23.737-48.21a3.173,3.173,0,0,1,.96-2.331,3.173,3.173,0,0,1,2.331-.96,3.173,3.173,0,0,1,2.331.96,3.173,3.173,0,0,1,.96,2.331,3.173,3.173,0,0,1-.96,2.331,3.173,3.173,0,0,1-2.331.96,3.173,3.173,0,0,1-2.331-.96A3.173,3.173,0,0,1,23.737-48.21Zm9.207,0a3.173,3.173,0,0,1,.96-2.331,3.173,3.173,0,0,1,2.331-.96,3.173,3.173,0,0,1,2.331.96,3.173,3.173,0,0,1,.96,2.331,3.173,3.173,0,0,1-.96,2.331,3.173,3.173,0,0,1-2.331.96,3.173,3.173,0,0,1-2.331-.96A3.173,3.173,0,0,1,32.944-48.21ZM118.8-28.275a2.954,2.954,0,0,1,.891-2.171,2.954,2.954,0,0,1,2.171-.891H144.8a3.072,3.072,0,0,1,2.194.868,3.072,3.072,0,0,1,.868,2.194,2.954,2.954,0,0,1-.891,2.171,2.954,2.954,0,0,1-2.171.891H121.857a2.844,2.844,0,0,1-2.148-.914A2.844,2.844,0,0,1,118.8-28.275Zm48.166-16.05a3.173,3.173,0,0,1,.96-2.331,3.173,3.173,0,0,1,2.331-.96,3.173,3.173,0,0,1,2.331.96,3.173,3.173,0,0,1,.96,2.331,3.173,3.173,0,0,1-.96,2.331,3.173,3.173,0,0,1-2.331.96,3.173,3.173,0,0,1-2.331-.96A3.173,3.173,0,0,1,166.961-44.325Zm9.207,0a3.173,3.173,0,0,1,.96-2.331,3.173,3.173,0,0,1,2.331-.96,3.173,3.173,0,0,1,2.331.96,3.173,3.173,0,0,1,.96,2.331,3.173,3.173,0,0,1-.96,2.331,3.173,3.173,0,0,1-2.331.96,3.173,3.173,0,0,1-2.331-.96A3.173,3.173,0,0,1,176.168-44.325Z" transform="translate(-10.277 51.5)" fill="#00b6f1" stroke="#00b6f1" stroke-width="1"/>
  </g>
</svg>
