<svg xmlns="http://www.w3.org/2000/svg" width="168.019" height="187.147" viewBox="0 0 168.019 187.147">
  <g id="facilitytype_illust" transform="translate(-12418.913 3298.107)">
    <path id="パス_50530" data-name="パス 50530" d="M12424.185-2438.648l-.562,1.834,30.417,14.05,19.748-1.253,2.018-5.9-30.777-11.641Z" transform="translate(-3.864 -702.917)" fill="#fff" stroke="#707070" stroke-width="1"/>
    <path id="パス_50529" data-name="パス 50529" d="M12723.333-2911.233s-10.472-3.55-17.093,5.755-5.182,13.61-5.182,13.61l-9.06,10,4.243,6.787,4-2.531,4.488,3.564h6.166l1.45-.7a8.862,8.862,0,0,1,1.754,1.935,11.77,11.77,0,0,1,1.163,2.594l22.315-4.251s13.542-29.439-3.791-33.434S12723.333-2911.233,12723.333-2911.233Z" transform="translate(-224.106 -316.939)" fill="#ffc627"/>
    <g id="グループ_7709" data-name="グループ 7709" transform="translate(12418.913 -3298.107)">
      <g id="グループ_7708" data-name="グループ 7708" transform="translate(0 0)">
        <path id="パス_50531" data-name="パス 50531" d="M2339.919,1923.484s-2.553,18.053-3.794,35.648-1.168,34.735-1.168,34.735a17.247,17.247,0,0,0,5.816,1.247,16.07,16.07,0,0,0,5.685-1.247l5.49-48.514,10.076,49.761a6.562,6.562,0,0,0,3.52.668c2.612-.125,6.345-1.24,7.015-2.7.434-.944-.9-5.361-1.94-12.556-1.073-7.407-1.886-17.734-2.958-25.663-.809-5.986-1.361-17.575-1.361-17.575a18.973,18.973,0,0,0,1.361-5.468,50.383,50.383,0,0,0,0-7.57Z" transform="translate(-2206.025 -1842.221)" fill="#fca518"/>
        <path id="パス_48908" data-name="パス 48908" d="M2055.781,2673.707a3.747,3.747,0,0,1,.125-.683l.07-.07,1.784,1.421a3.123,3.123,0,0,0,2.759-.474,2.52,2.52,0,0,0,.613-2.509l-.808-.85.056-.056c2.244-.2,3.609,2.438,3.233,4.584-.46,2.661-2.592,4.515-4.766,4.139-2.146-.376-3.539-2.857-3.065-5.5" transform="translate(-1992.046 -2496.729)" fill="#fff"/>
        <path id="パス_48909" data-name="パス 48909" d="M2292.869,2480.39a5.17,5.17,0,0,1,.474,4.1,5.922,5.922,0,0,1-1.1,2.076,3.656,3.656,0,0,1-3.762,1.422,3.6,3.6,0,0,1-2.425-2.912,5.8,5.8,0,0,1,.766-4.069,3.882,3.882,0,0,1,4.208-2.048,3.2,3.2,0,0,1,1.839,1.435" transform="translate(-2188.975 -2332.841)" fill="#ffc627"/>
        <path id="パス_48910" data-name="パス 48910" d="M2180.229,2376.592a31.086,31.086,0,0,1,1.1-11.314,32.493,32.493,0,0,1,1.435-4.055c4.487-10.52,13.809-16.847,22.226-14.478,6.591,1.853,10.868,8.57,11.607,16.846a31.055,31.055,0,0,1-1.1,11.315,32.461,32.461,0,0,1-1.435,4.054c-4.487,10.521-13.809,16.861-22.225,14.478-6.591-1.853-10.869-8.57-11.607-16.846m22.587-5.5a5.167,5.167,0,0,0-.474-4.1,3.2,3.2,0,0,0-1.839-1.435,3.883,3.883,0,0,0-4.208,2.048,5.8,5.8,0,0,0-.766,4.069,3.6,3.6,0,0,0,2.425,2.912,3.656,3.656,0,0,0,3.762-1.421,5.924,5.924,0,0,0,1.1-2.076" transform="translate(-2098.45 -2219.443)" fill="#fff"/>
        <path id="パス_48911" data-name="パス 48911" d="M2561.158,1542.22a1.6,1.6,0,1,0-3.163,0v.083a1.6,1.6,0,1,0,3.163-.083m-7.58,6.688s.376,3.748,3.734,3.386c2.829-.321,2.787-4.041,2.787-4.041Zm-.892-7.8a1.906,1.906,0,0,0,0,3.748,1.758,1.758,0,0,0,1.589-1.881,3.491,3.491,0,0,0-.028-.376,1.688,1.688,0,0,0-1.561-1.491m2.968,15.244c-5.7-1.463-6.883-8.528-7.009-13.335a36.033,36.033,0,0,1,.167-4.5.4.4,0,0,0,.014-.084s.516-4.222,3.818-5.281a12.691,12.691,0,0,0,7.566,5.141,16.086,16.086,0,0,0,4.5.4,3.822,3.822,0,0,1,2.884,3.038s1.352-1.964,3.107-1.783a2.111,2.111,0,0,1,1.407.78,3.719,3.719,0,0,1,.627,2.717,7.375,7.375,0,0,1-.279,1.617,3.462,3.462,0,0,1-3.275,2.787,8.594,8.594,0,0,1-.139,1.63,7.066,7.066,0,0,1-4.333,5.476v2.188l-4.64,2.02-1.422.613-3-2.02v-1.408Z" transform="translate(-2413.622 -1524.065)" fill="#fff"/>
        <path id="パス_48912" data-name="パス 48912" d="M2098.2,1797.23a1.564,1.564,0,1,0,1.394-1.923,1.692,1.692,0,0,0-1.394,1.923m-4.793,2.187a1.859,1.859,0,1,0-1.672-1.714,1.7,1.7,0,0,0,1.672,1.714m-3.692,3.985c-.112-1.714-.446-4.166-.446-4.166-.5-2.257-1.1-7.343.418-11.384l.126-.237c.919.725,3.079,1.421,8.179,1.087,2.286,2.257,6.257,2.215,6.257,2.215a2.5,2.5,0,0,1,2.076,1.965,6.581,6.581,0,0,0,2.369,4.557,3.049,3.049,0,0,1,3.679-1.77,2.893,2.893,0,0,1,.919.571c.766.655,1.63,2.034.975,4.612a3.78,3.78,0,0,1-3.665,3.052c-.055,5.56-3.943,6.479-3.943,6.479l.279,2.592s-.014.042-.028.1c-.223.571-1.393,3.094-5.24,2.885-3.316-.2-3.623-1.783-3.623-1.783l-.557-2.118a7.354,7.354,0,0,1-3.818-.655c-4.1-2.048-3.957-8-3.957-8" transform="translate(-2020.291 -1741.689)" fill="#fff"/>
        <path id="パス_48913" data-name="パス 48913" d="M2533.693,1893.215c5.225-.516,5.629-2.787,5.629-2.787,24.984.822,24.343-16.317,24.343-16.317v-.07l.39.014v23.34h-30.363Z" transform="translate(-2400.844 -1815.603)" fill="#fff"/>
        <path id="パス_48914" data-name="パス 48914" d="M2690.386,1623.7s.878-2.313-.7-3.832l-.083-.014a8.6,8.6,0,0,0,.139-1.63,3.462,3.462,0,0,0,3.275-2.787l.167.056c1.379.78,4.417,3.163,1.574,7.9a6.9,6.9,0,0,0-1.31,5.56,4.62,4.62,0,0,1-3.066-5.253" transform="translate(-2534.184 -1594.439)" fill="#fca518"/>
        <path id="パス_48915" data-name="パス 48915" d="M2663.135,2528.674c-3.874,0-2.341-3.9-2.341-3.9l5.268-5.852c1.365.307,4.4.488,9.029-1.784,3.219,6.577-1.449,7.706-1.449,7.706a28.216,28.216,0,0,0-6.438,2.759,9.758,9.758,0,0,1-4.069,1.073" transform="translate(-2509.288 -2365.589)" fill="#fff"/>
        <path id="パス_48916" data-name="パス 48916" d="M2627.626,1697.36l4.64-2.02v-.6h.056a3.165,3.165,0,0,1,2.16,2.648,3.321,3.321,0,0,1-.111,1.254l-5.086,2.495-.585-1.324Z" transform="translate(-2481.177 -1662.26)" fill="#fffbd1"/>
        <path id="パス_48917" data-name="パス 48917" d="M2614.874,1582.906a1.886,1.886,0,0,1,0,3.721,1.706,1.706,0,0,1-1.588-1.77v-.084a1.744,1.744,0,0,1,1.588-1.867" transform="translate(-2468.913 -1566.618)" fill="#2b2f2f"/>
        <path id="パス_48918" data-name="パス 48918" d="M2586.511,1641.518c-3.358.362-3.734-3.386-3.734-3.386l6.521-.655s.042,3.72-2.787,4.041" transform="translate(-2442.822 -1613.288)" fill="#fff"/>
        <path id="パス_48919" data-name="パス 48919" d="M2480.274,1720.114h-.07l-5.644-1-3.33-.585s2.271-10.562,3.985-13.837c2.257-4.333,10.939-6.939,10.939-6.939l.264.042a3.405,3.405,0,0,1,2.8-3.052h.237v1.212l3,2.02,1.421-.613,1.073,2.452.585,1.324,5.086-2.495a3.328,3.328,0,0,0,.112-1.254h.028s7.9,2.09,10.59,6.563c2.369,3.957,3.052,16.777,3.052,16.777l-3.762-.014-.39-.014-9.629-.042v.069s.14,9.921-17.083,9.67a3.87,3.87,0,0,0-3.33-2.02l.07-1.226Z" transform="translate(-2347.425 -1662.26)" fill="#fff"/>
        <path id="パス_48920" data-name="パス 48920" d="M2568.96,1589.595a3.416,3.416,0,0,1,.028.376,1.758,1.758,0,0,1-1.588,1.881,1.906,1.906,0,0,1,0-3.748,1.687,1.687,0,0,1,1.561,1.491" transform="translate(-2428.336 -1571.063)" fill="#2b2f2f"/>
        <path id="パス_48921" data-name="パス 48921" d="M2474.15,2532.047c-2.23-.5-2.342-1.909-2.076-2.982.042-.181.112-.362.167-.529a4.959,4.959,0,0,1,.418-.823l5.741-4.25a24.651,24.651,0,0,0,9.6-.167c2.048,7.469-2.787,7.316-2.787,7.316a43.092,43.092,0,0,0-7.246.892,13.714,13.714,0,0,1-3.818.543" transform="translate(-2348.059 -2370.857)" fill="#fff"/>
        <path id="パス_48922" data-name="パス 48922" d="M2549.61,1485.606c-3.3,1.059-3.818,5.281-3.818,5.281a.389.389,0,0,1-.014.083h-.083s-2.578-6.521,2.884-9.517c0,0,5.058-7.2,15.3-2.021,7.5,3.8,5.49,13.7,5.49,13.7l-.293.056a2.113,2.113,0,0,0-1.407-.78c-1.756-.181-3.108,1.784-3.108,1.784a3.821,3.821,0,0,0-2.884-3.038,16.107,16.107,0,0,1-4.5-.4,12.689,12.689,0,0,1-7.566-5.142" transform="translate(-2410.587 -1476.522)" fill="#fca518"/>
        <path id="パス_48923" data-name="パス 48923" d="M2496.257,1892.968c-3.233.32-4.557-.808-5.072-2.076a5.205,5.205,0,0,1-.083-2.968,4.262,4.262,0,0,1-1.1-2.076c-.348-2.244,2.243-3.484,2.243-3.484a8.017,8.017,0,0,1,3.985-.892,3.87,3.87,0,0,1,3.33,2.021c17.223.251,17.084-9.67,17.084-9.67v-.07l9.628.042v.07s.641,17.139-24.343,16.317c0,0-.4,2.271-5.63,2.787Z" transform="translate(-2363.45 -1815.356)" fill="#fff"/>
        <path id="パス_48924" data-name="パス 48924" d="M2453.045,1962.866c.306-3.818-2.286-4.7-2.286-4.7l-.028-.279,5.6-.585.112-.014a4.264,4.264,0,0,0,1.1,2.076,5.2,5.2,0,0,0,.084,2.968l-.237.112-4.083.39c-.1.014-.181.014-.264.028" transform="translate(-2329.894 -1886.8)" fill="#ffc627"/>
        <path id="パス_48925" data-name="パス 48925" d="M2415.148,1971.532l-5.127-1.143,1.031-4.835a5.636,5.636,0,0,1,1.8-2.926,5.359,5.359,0,0,1,2.745-1.171l.321-.028.028.279s2.591.877,2.285,4.7a2.4,2.4,0,0,0-1.923,1.463l-.864,3.734Z" transform="translate(-2295.077 -1890.339)" fill="#fff"/>
        <path id="パス_48926" data-name="パス 48926" d="M2382.55,1870.065l.279.042c14.227,2.912,15.815-6.828,15.815-6.828l.028-.209,5.643,1h.07v7.037l-.07,1.226a8.024,8.024,0,0,0-3.985.892s-2.592,1.24-2.243,3.484l-.111.014-5.6.585-.32.028a5.362,5.362,0,0,0-2.745,1.17l-.279-.334a29.8,29.8,0,0,1-5.588-.766l-.348-.112a1.313,1.313,0,0,0,.446-.669s1.672-3.581-1.045-6.27a1.823,1.823,0,0,0,.056-.292" transform="translate(-2271.537 -1806.219)" fill="#fff"/>
        <path id="パス_48927" data-name="パス 48927" d="M2352.008,2199.421c-.418-.126-.823-.223-1.254-.32h-.027l-.279-.07.014-.07,2.327-10.994-.013-.083,2.257-.516c2.452-1.6-.362-2.982-.362-2.982l-1.073-.265.627-2.968,4.961,1.212h.028l-4.18,18.184a19.215,19.215,0,0,0-3.024-1.128" transform="translate(-2244.129 -2078.25)" fill="#fff"/>
        <path id="パス_48928" data-name="パス 48928" d="M2322.115,1918.95c-.934-3.442,1.226-4.459,1.226-4.459a5.22,5.22,0,0,0,3.163,1.087c2.021.042,3.734-.878,4.152-2.174,2.717,2.689,1.045,6.271,1.045,6.271a1.314,1.314,0,0,1-.446.669c-.585.544-2.007,1.17-5.365.906a4.464,4.464,0,0,1-3.483-1.811,2.928,2.928,0,0,1-.292-.488" transform="translate(-2219.698 -1849.266)" fill="#fff"/>
        <path id="パス_48929" data-name="パス 48929" d="M2184.331,2339.8c-4.877,15.258-18.31,24.747-30.544,21.292-8.555-2.411-14.338-10.534-15.718-20.525a32.452,32.452,0,0,1-.321-4.7,37.336,37.336,0,0,1,1.435-10.172,36.432,36.432,0,0,1,6.6-12.986c6.075-7.581,14.742-11.622,23.033-9.907h.027c.432.1.836.195,1.254.32a19.249,19.249,0,0,1,3.024,1.129c10.548,5.044,15.7,19.592,11.593,34.264-.056.181-.111.376-.167.557-.084.237-.153.474-.223.725m-40.326-.7c.739,8.277,5.017,14.993,11.607,16.846,8.416,2.383,17.738-3.957,22.225-14.478a32.4,32.4,0,0,0,1.435-4.055,31.058,31.058,0,0,0,1.1-11.314c-.738-8.277-5.016-14.993-11.607-16.846-8.417-2.369-17.739,3.958-22.225,14.478a32.387,32.387,0,0,0-1.435,4.055,31.093,31.093,0,0,0-1.1,11.315" transform="translate(-2062.225 -2181.957)" fill="#ffc627"/>
        <path id="パス_48930" data-name="パス 48930" d="M2326.113,1893.183a2.094,2.094,0,0,1-.5-1.393c.028-1.575,1.937-2.8,4.236-2.745s4.138,1.379,4.083,2.954a3.262,3.262,0,0,1-.083.572c-.418,1.3-2.132,2.216-4.152,2.174a5.217,5.217,0,0,1-3.163-1.087,2.606,2.606,0,0,1-.417-.474" transform="translate(-2222.887 -1828.432)" fill="#fff"/>
        <path id="パス_48931" data-name="パス 48931" d="M2284.194,1923.659c1.128-3.72-1.393-5.114-1.393-5.114l-.014-.209,6.424-.669.278-.028a2.653,2.653,0,0,0,.418.474s-2.16,1.017-1.226,4.459a2.921,2.921,0,0,0,.292.488l-.154.028-4.445.613h-.181Z" transform="translate(-2186.265 -1852.888)" fill="#ffc627"/>
        <path id="パス_48932" data-name="パス 48932" d="M2274.607,1993l19.522,4.389,5.128,1.143.293.07-5.281,22.852h-.028l-4.961-1.212-12.652-3.052a37.111,37.111,0,0,0,1.561-6.869c1.268-10.716-.85-14.088-.85-14.088a10.835,10.835,0,0,0-2.829-3.135Z" transform="translate(-2179.186 -1917.336)" fill="#fff"/>
        <path id="パス_48933" data-name="パス 48933" d="M2237.952,1929.7l1.7-4.682a5.436,5.436,0,0,1,3.776-2.453l1-.111.014.209s2.522,1.394,1.394,5.114v.042a2.468,2.468,0,0,0-2.188,1.268l-.961,3.149-.07.084a26.407,26.407,0,0,0-4.682-2.592Z" transform="translate(-2147.909 -1857.004)" fill="#fff"/>
        <path id="パス_48934" data-name="パス 48934" d="M2154.176,1842.628a1.566,1.566,0,1,1,1.672,1.714,1.693,1.693,0,0,1-1.672-1.714" transform="translate(-2076.27 -1787.087)" fill="#2b2f2f"/>
        <path id="パス_48935" data-name="パス 48935" d="M2100.47,1744.2c-5.1.334-7.26-.362-8.179-1.087a1.4,1.4,0,0,1-.627-1.254s-.6-1.979,2.508-3.2c0,0,4.459-4.347,12.792-2.7,0,0,10.13,2.035,8.834,15.746l-.028.042a2.9,2.9,0,0,0-.92-.571,3.049,3.049,0,0,0-3.678,1.77,6.579,6.579,0,0,1-2.369-4.556,2.505,2.505,0,0,0-2.076-1.965s-3.972.042-6.257-2.215" transform="translate(-2022.773 -1697.188)" fill="#ffc627"/>
        <path id="パス_48936" data-name="パス 48936" d="M2062.066,2536.495l10.534-3h.125a32.427,32.427,0,0,0,.32,4.7l-.446.055-10.534,2.982h-.348v-4.738Z" transform="translate(-1997.202 -2379.582)" fill="#fff"/>
        <path id="パス_48937" data-name="パス 48937" d="M2112.585,1845.6a1.56,1.56,0,1,1-1.672-1.7,1.7,1.7,0,0,1,1.672,1.7" transform="translate(-2038.079 -1789.822)" fill="#2b2f2f"/>
        <path id="パス_48938" data-name="パス 48938" d="M2061.717,2267.563V2262.3c0-3.512,2.1-3.693,2.1-3.693l6.981-2.174.014-.028a6.43,6.43,0,0,0,3.414.167l15.174-3.428.07.363a13.4,13.4,0,0,1-.585,3.609,5.971,5.971,0,0,1-3.289,3.944c-5.434,2.117-23.354,6.507-23.354,6.507Z" transform="translate(-1997.201 -2139.816)" fill="#fff"/>
        <path id="パス_48939" data-name="パス 48939" d="M2085.11,2203.3l-5.393-2.118-.4-.167c-.655-1.9,2.1-2.271,2.1-2.271l2.9-.641,20.72-4.473,10.465-2.271,6.131,1.491,1.073.265s2.815,1.379.362,2.982l-2.257.515-16.442,3.693-15.175,3.428a6.432,6.432,0,0,1-3.414-.167,3.7,3.7,0,0,1-.668-.265" transform="translate(-2012.164 -2086.975)" fill="#ffc627"/>
        <path id="パス_48940" data-name="パス 48940" d="M2030.385,2206.327a7.223,7.223,0,0,1,4.417-.348l1.3-.376.07-.292c.808.432,2.16,1.588,2.773,4.724l-2.9.64s-2.759.376-2.1,2.271l.4.167-.014.042-4.905,1.714a3.868,3.868,0,0,1-3.052-2.3,3.309,3.309,0,0,1-.209-1.421c.112-1.881,1.728-3.832,4.153-4.793.028-.014.056-.014.07-.028" transform="translate(-1966.789 -2098.909)" fill="#fff"/>
        <path id="パス_48941" data-name="パス 48941" d="M2061.717,2291.023h.529s17.919-4.389,23.354-6.507a5.969,5.969,0,0,0,3.289-3.943l14.631,3.484.278.07c-8.291-1.714-16.958,2.327-23.033,9.907l-.195-.153-18.811,5.016h-.042Z" transform="translate(-1997.201 -2163.275)" fill="#fff"/>
        <path id="パス_48942" data-name="パス 48942" d="M2029.655,2614.4a4.517,4.517,0,0,1-1.045-2.55l.07-5.393.46-.139,4.264-1.212.348-.1v5.866l.154.167,3.26,3.512.808.85a2.52,2.52,0,0,1-.614,2.508,3.123,3.123,0,0,1-2.759.474l-1.783-1.421-2.3-1.812a3.7,3.7,0,0,1-.864-.753" transform="translate(-1968.888 -2440.737)" fill="#ffc627"/>
        <path id="パス_48943" data-name="パス 48943" d="M2028.388,2647.778a8.457,8.457,0,0,1,.962-2.745,3.7,3.7,0,0,0,.864.753l2.3,1.811-.07.07a3.7,3.7,0,0,0-.125.683c-.474,2.647.919,5.128,3.065,5.5,2.174.376,4.306-1.477,4.765-4.138.376-2.146-.989-4.78-3.233-4.584l-.056.056-3.26-3.511.167-.167a6.387,6.387,0,0,1,3.748-.627c4.264.557,7.023,5.044,6.243,9.6a8.1,8.1,0,0,1-9.127,6.883c-4.25-.738-7.037-5.03-6.243-9.586" transform="translate(-1968.583 -2471.371)" fill="#ffc627"/>
        <path id="パス_48944" data-name="パス 48944" d="M2035.79,2309.369l-4.264,1.212-.125-.4V2265.03c.167-3.525,2.452-4.041,2.452-4.041l.056-.028,4.905-1.714.014-.042,5.393,2.118a3.634,3.634,0,0,0,.669.265l-.014.028-6.981,2.173s-2.1.181-2.1,3.693v41.886Z" transform="translate(-1971.275 -2145.002)" fill="#fff"/>
        <path id="パス_48945" data-name="パス 48945" d="M2004.446,2363.775l2.494-.53h.1v5.908l-3.985-1.323-.139-.042Z" transform="translate(-1946.911 -2233.978)" fill="#fff"/>
        <path id="パス_48946" data-name="パス 48946" d="M1846.123,2287.522l10.688-33.136a8.939,8.939,0,0,1,4.57-4.933l10.465-3.818h.112a3.3,3.3,0,0,0,.209,1.421,3.867,3.867,0,0,0,3.052,2.3l-.056.028s-2.285.516-2.452,4.041v9.239h-.1l-2.494.529-1.533,4.013-3.637,9.642-4.124,10.911-1.826,4.807-.961-.306-10.423-3.33-1.77-.558Z" transform="translate(-1812.583 -2133.396)" fill="#fff"/>
        <path id="パス_48947" data-name="パス 48947" d="M1953.931,2461.415l7.106,2.634-3.93,10.952-7.608-2.8-.2-.069,4.125-10.911Z" transform="translate(-1901.065 -2317.768)" fill="#fff"/>
        <path id="パス_48948" data-name="パス 48948" d="M1771.449,2234.726l11.315-34.083c1.491-3.247,2.536-4.459,4.347-5.644l4.1-2.007.056-.111a6.739,6.739,0,0,0,5.156-.056,6.868,6.868,0,0,0,3.651-3.024l1.379-.46a6.766,6.766,0,0,1,.125.766,45.542,45.542,0,0,0,4.4-2.411l.07.112a8.956,8.956,0,0,0,6.41,3.428l.028.056c-2.425.961-4.041,2.912-4.153,4.793h-.111l-10.464,3.818a8.937,8.937,0,0,0-4.571,4.933l-10.687,33.136-.251-.084-9.573-2.8Z" transform="translate(-1748.959 -2083.847)" fill="#fff"/>
        <path id="パス_48949" data-name="パス 48949" d="M1796.991,2554.946a13.3,13.3,0,0,1-5.044,0c-1.6-.613-2.285-1.365-2.48-2.076a2.793,2.793,0,0,1,.892-2.438,4.185,4.185,0,0,1,1-.683,20.586,20.586,0,0,1,3.038-1.24,12.157,12.157,0,0,0,4.821-3.483l.125-.362,10.423,3.33-.014.028a20.663,20.663,0,0,1-.028,3.289,6.592,6.592,0,0,1-.543,2.341c-1.3,2.132-3.971,1.435-3.971,1.435a27.838,27.838,0,0,0-8.221-.139" transform="translate(-1764.315 -2389.13)" fill="#ffc627"/>
        <path id="パス_48950" data-name="パス 48950" d="M1896.739,2172.3a3.3,3.3,0,0,1-1.756-1.77c-.822-2.132.934-4.78,3.929-5.95a7.346,7.346,0,0,1,3.79-.474l1.045-.474a9.969,9.969,0,0,1,3.177,5.128l-1.379.46a6.87,6.87,0,0,1-3.651,3.024,6.737,6.737,0,0,1-5.156.055" transform="translate(-1854.435 -2063.27)" fill="#fff"/>
        <path id="パス_48951" data-name="パス 48951" d="M1711.095,2518.489c.739-.307,1.338-.488,1.338-.488a22.416,22.416,0,0,0,5.671-2.815l.042-.167,9.573,2.8.251.083-.279.85,1.77.557-.125.362a12.159,12.159,0,0,1-4.821,3.484,20.588,20.588,0,0,0-3.038,1.24l-.084-.125a36.866,36.866,0,0,0-6.479-.14,12.478,12.478,0,0,1-4.807,0c-4.334-1.686-1.519-4.291-1.519-4.291a8.22,8.22,0,0,1,2.508-1.352" transform="translate(-1694.429 -2363.778)" fill="#ffc627"/>
        <path id="パス_48952" data-name="パス 48952" d="M2127.781,1904.3a3.387,3.387,0,0,1-3.36-2.156,1.045,1.045,0,0,1,1.987-.649,1.358,1.358,0,0,0,1.382.715c1.263-.024,1.53-.756,1.571-.9a1.058,1.058,0,0,1,1.262-.751,1.032,1.032,0,0,1,.774,1.222,3.521,3.521,0,0,1-3.579,2.522Z" transform="translate(-2050.783 -1838.248)" fill="#2b2f2f"/>
        <path id="パス_48953" data-name="パス 48953" d="M2179.043,1887.39a1.045,1.045,0,0,1-1.043-.991,2.612,2.612,0,0,0-1.032-2.127,1.045,1.045,0,1,1,1.031-1.818,4.706,4.706,0,0,1,2.089,3.837,1.045,1.045,0,0,1-.99,1.1Z" transform="translate(-2095.313 -1822.68)" fill="#2b2f2f"/>
        <path id="パス_48954" data-name="パス 48954" d="M2095.942,1809.029c-.159,0-.321,0-.487-.013-4.016-.236-4.545-2.385-4.592-2.629l-.331-1.251a7.866,7.866,0,0,1-3.486-.786c-4.636-2.318-4.541-8.687-4.535-8.957-.106-1.564-.433-3.977-.437-4-.139-.606-1.432-6.819.475-11.893a1.045,1.045,0,0,1,1.957.735c-1.694,4.508-.516,10.16-.376,10.79.029.187.356,2.594.469,4.325,0,.143-.063,5.409,3.382,7.131a6.333,6.333,0,0,0,3.286.547,1.046,1.046,0,0,1,1.075.777l.557,2.118c0,.006.344.869,2.673,1.006,2.8.152,3.827-1.391,4.141-2.071l-.252-2.348a1.045,1.045,0,0,1,.8-1.129c.116-.03,3.093-.857,3.139-5.473a1.044,1.044,0,0,1,1.075-1.034,2.714,2.714,0,0,0,2.619-2.255c.522-2.055-.06-3.074-.639-3.57a2.057,2.057,0,0,0-.579-.377,1.924,1.924,0,0,0-2.363,1.152,1.045,1.045,0,0,1-1.581.482,7.626,7.626,0,0,1-2.8-5.3,1.465,1.465,0,0,0-1.172-1.028c-.795-.015-4.524-.212-6.856-2.516a5.318,5.318,0,0,1-1.232-1.67,1.045,1.045,0,0,1,1.869-.935,3.4,3.4,0,0,0,.781,1.071c1.99,1.962,5.528,1.96,5.563,1.96a1.033,1.033,0,0,1,.248.028,3.544,3.544,0,0,1,2.875,2.858,5.949,5.949,0,0,0,1.168,3.032,4.031,4.031,0,0,1,4.083-1.138,3.8,3.8,0,0,1,1.371.806c.829.708,2.121,2.4,1.3,5.652a4.814,4.814,0,0,1-3.676,3.728c-.337,3.973-2.552,5.609-3.821,6.227l.194,1.8a1.043,1.043,0,0,1-.047.441c-.006.017-.04.131-.046.148A5.885,5.885,0,0,1,2095.942,1809.029Z" transform="translate(-2014.135 -1733.704)" fill="#2b2f2f"/>
        <path id="パス_48955" data-name="パス 48955" d="M2088.465,2080.381a1.04,1.04,0,0,1-1.037-.91c-.537-2.681-1.625-3.622-2.228-3.944a1.5,1.5,0,0,0-.318-.135,1.065,1.065,0,0,1-.817-.993,1.035,1.035,0,0,1,.732-1.032c.1-.031,10.248-3.041,14.162-5.5,5.777-3.646,5.246-14.179,5.239-14.285a1.045,1.045,0,0,1,2.086-.121c.028.482.613,11.868-6.212,16.175-3.049,1.914-9.288,4.035-12.57,5.081a8.853,8.853,0,0,1,1.989,4.411,1.052,1.052,0,0,1-1.025,1.252Z" transform="translate(-2016.313 -1968.205)" fill="#2b2f2f"/>
        <path id="パス_48956" data-name="パス 48956" d="M2152.774,2356.74a19.964,19.964,0,0,1-5.443-.752c-8.674-2.444-14.985-10.639-16.469-21.388a33.582,33.582,0,0,1-.33-4.839,38.368,38.368,0,0,1,1.475-10.457,37.731,37.731,0,0,1,6.8-13.356c6.446-8.043,15.627-11.981,23.978-10.293a1.042,1.042,0,0,1,.128.021c.456.1.883.206,1.324.339a20.327,20.327,0,0,1,3.169,1.185c11.111,5.313,16.334,20.57,12.154,35.491l-.175.583c-.089.255-.152.47-.215.7C2174.783,2347.682,2163.852,2356.739,2152.774,2356.74Zm6.117-59.381c-6.584,0-13.4,3.587-18.459,9.9a35.617,35.617,0,0,0-6.414,12.615,36.286,36.286,0,0,0-1.4,9.89,31.479,31.479,0,0,0,.309,4.544c1.37,9.921,7.1,17.456,14.967,19.671a17.955,17.955,0,0,0,4.892.676c10.179,0,20.285-8.488,24.374-21.28.065-.236.142-.5.233-.755l.154-.516c3.9-13.931-.843-28.135-11.045-33.014a18.27,18.27,0,0,0-2.855-1.065c-.385-.116-.742-.2-1.119-.289-.031,0-.062-.009-.093-.015A17.492,17.492,0,0,0,2158.891,2297.359Z" transform="translate(-2056.053 -2175.844)" fill="#2b2f2f"/>
        <path id="パス_48957" data-name="パス 48957" d="M2189.29,2388.811a14.332,14.332,0,0,1-3.9-.54c-6.819-1.917-11.557-8.723-12.364-17.759a32.307,32.307,0,0,1,1.136-11.692,33.385,33.385,0,0,1,1.48-4.183c4.043-9.479,11.728-15.606,19.577-15.606a14.365,14.365,0,0,1,3.891.535c6.821,1.917,11.559,8.722,12.365,17.76a32,32,0,0,1-1.136,11.691,33.445,33.445,0,0,1-1.481,4.184C2204.813,2382.682,2197.132,2388.811,2189.29,2388.811Zm5.927-47.69c-6.9,0-14,5.762-17.656,14.339a31.343,31.343,0,0,0-1.39,3.927,30.214,30.214,0,0,0-1.067,10.935c.728,8.156,4.885,14.261,10.85,15.938a12.247,12.247,0,0,0,3.336.461c6.9,0,13.986-5.764,17.645-14.343a31.423,31.423,0,0,0,1.39-3.927,29.914,29.914,0,0,0,1.066-10.936c-.728-8.155-4.885-14.26-10.85-15.937A12.263,12.263,0,0,0,2195.217,2341.121Z" transform="translate(-2092.284 -2213.27)" fill="#2b2f2f"/>
        <path id="パス_48958" data-name="パス 48958" d="M2284.057,2471.627a4.066,4.066,0,0,1,1.087.147,4.224,4.224,0,0,1,2.449,1.892,6.174,6.174,0,0,1,.592,4.927,7,7,0,0,1-1.3,2.464,4.944,4.944,0,0,1-3.747,1.912,4.073,4.073,0,0,1-1.1-.152,4.643,4.643,0,0,1-3.167-3.718,6.665,6.665,0,0,1,.148-3.1,6.568,6.568,0,0,1,.766-1.736A5.125,5.125,0,0,1,2284.057,2471.627Zm-.922,9.252a2.879,2.879,0,0,0,2.137-1.156,4.875,4.875,0,0,0,.9-1.708,4.137,4.137,0,0,0-.357-3.242,2.193,2.193,0,0,0-1.242-.986,1.965,1.965,0,0,0-.521-.07,3.13,3.13,0,0,0-2.508,1.656,4.573,4.573,0,0,0-.53,1.21,4.5,4.5,0,0,0-.1,2.12,2.579,2.579,0,0,0,1.678,2.1A2,2,0,0,0,2283.135,2480.879Z" transform="translate(-2182.811 -2326.668)" fill="#2b2f2f"/>
        <path id="パス_48959" data-name="パス 48959" d="M2053.247,2674.133a4.387,4.387,0,0,1-.751-.065,4.585,4.585,0,0,1-2.954-1.949,6.4,6.4,0,0,1-.962-4.769l.028-.2a2.731,2.731,0,0,1,.134-.629,1.045,1.045,0,0,1,1.983.661.719.719,0,0,0-.041.2c-.01.093-.022.2-.048.338a4.294,4.294,0,0,0,.618,3.2,2.508,2.508,0,0,0,1.6,1.087,2.611,2.611,0,0,0,2.16-.689,4.415,4.415,0,0,0,1.4-2.6,3.488,3.488,0,0,0-.763-2.795,1.587,1.587,0,0,0-1.349-.571,1.045,1.045,0,0,1-.181-2.083,3.676,3.676,0,0,1,3.071,1.241,5.55,5.55,0,0,1,1.281,4.565,6.5,6.5,0,0,1-2.084,3.816A4.773,4.773,0,0,1,2053.247,2674.133Z" transform="translate(-1985.874 -2490.556)" fill="#2b2f2f"/>
        <path id="パス_48960" data-name="パス 48960" d="M2081.641,2198.758h0a7.72,7.72,0,0,1-2.358-.375,4.548,4.548,0,0,1-.857-.347l-5.267-2.059-.421-.174a1.044,1.044,0,0,1-.588-.624,2.376,2.376,0,0,1,.181-2.1,4.063,4.063,0,0,1,2.77-1.552l2.813-.626,20.726-4.474,10.463-2.271a1.043,1.043,0,0,1,.469.006l6.131,1.491,1.077.266a1.045,1.045,0,0,1,.209.076,3.343,3.343,0,0,1,1.947,2.43,2.637,2.637,0,0,1-1.473,2.365,1.047,1.047,0,0,1-.339.144l-2.257.516-16.446,3.693-15.173,3.427A7.026,7.026,0,0,1,2081.641,2198.758Zm-7.49-4.636,5.164,2.028a3.67,3.67,0,0,0,.587.236,5.659,5.659,0,0,0,1.738.281h0a4.965,4.965,0,0,0,1.136-.13l15.183-3.43,16.443-3.693,2.059-.47c.343-.25.386-.4.386-.4a1.81,1.81,0,0,0-.694-.623l-.95-.234-5.894-1.434-10.229,2.22-20.722,4.473-2.893.64A2.622,2.622,0,0,0,2074.151,2194.122Z" transform="translate(-2005.988 -2080.801)" fill="#2b2f2f"/>
        <path id="パス_48961" data-name="パス 48961" d="M2059.2,2264.577a1.045,1.045,0,0,1-.248-2.06c.179-.044,17.915-4.4,23.223-6.466a4.848,4.848,0,0,0,2.677-3.3,12.338,12.338,0,0,0,.531-3.276,1.045,1.045,0,0,1,1.045-1.045h0a1.045,1.045,0,0,1,1.045,1.045,14.478,14.478,0,0,1-.633,3.924,6.887,6.887,0,0,1-3.91,4.6c-5.431,2.117-22.746,6.367-23.48,6.547A1.047,1.047,0,0,1,2059.2,2264.577Z" transform="translate(-1994.156 -2135.784)" fill="#2b2f2f"/>
        <path id="パス_48962" data-name="パス 48962" d="M1776.075,2264.037a1.048,1.048,0,0,1-.294-.042l-9.573-2.8-1.229-.363a1.045,1.045,0,0,1-.7-1.331l11.315-34.083c1.529-3.344,2.677-4.822,4.767-6.189l4.209-2.07a1.045,1.045,0,0,1,.919,1.877l-4.1,2.006c-1.449.957-2.392,1.951-3.857,5.141l-10.932,32.951.19.056,9.57,2.8a1.045,1.045,0,0,1-.293,2.048Z" transform="translate(-1742.786 -2108.95)" fill="#2b2f2f"/>
        <path id="パス_48963" data-name="パス 48963" d="M1852.826,2287.437a1.042,1.042,0,0,1-.318-.05l-.961-.306-10.423-3.331-1.765-.556a1.045,1.045,0,0,1-.679-1.322l.279-.85,10.686-33.131c1.926-4.394,5.083-5.55,5.217-5.6l10.454-3.814a1.045,1.045,0,0,1,.717,1.964l-10.465,3.818a7.936,7.936,0,0,0-3.972,4.372l-10.6,32.886.762.24,10.445,3.337,1.474-3.882,4.124-10.909,3.636-9.641,1.534-4.017a1.045,1.045,0,0,1,.759-.649l2.494-.53a1.045,1.045,0,0,1,.434,2.045l-1.938.411-1.33,3.482-3.635,9.638-4.125,10.912-1.826,4.809A1.046,1.046,0,0,1,1852.826,2287.437Z" transform="translate(-1806.411 -2127.222)" fill="#2b2f2f"/>
        <path id="線_16" data-name="線 16" d="M-6.174-4.976a1.046,1.046,0,0,1-.276-.037A1.045,1.045,0,0,1-7.183-6.3l.042-.153a1.045,1.045,0,0,1,1.283-.733A1.045,1.045,0,0,1-5.125-5.9l-.042.153A1.046,1.046,0,0,1-6.174-4.976Z" transform="translate(66.161 152.302)" fill="#2b2f2f"/>
        <path id="パス_48964" data-name="パス 48964" d="M1647.115,2501.392a1.051,1.051,0,0,1-.439-.1l-16.247-7.525-13.711-6.34a1.045,1.045,0,0,1-.582-1.175l.5-2.257a1.045,1.045,0,0,1,.937-.815l15.119-1.212.143-.013a1.045,1.045,0,1,1,.189,2.081l-.153.014-14.36,1.151-.151.682,12.947,5.987,16.014,7.417,19.126-.956,8.654-24.105a1.045,1.045,0,0,1,1.967.706l-3.929,10.953-4.961,13.809a1.044,1.044,0,0,1-.931.691l-20.079,1Z" transform="translate(-1616.112 -2328.302)" fill="#2b2f2f"/>
        <path id="線_17" data-name="線 17" d="M-6.175-.113A1.045,1.045,0,0,1-7.184-.889a1.045,1.045,0,0,1,.74-1.279L12.367-7.184a1.045,1.045,0,0,1,1.279.74,1.045,1.045,0,0,1-.74,1.279L-5.905-.149A1.047,1.047,0,0,1-6.175-.113Z" transform="translate(70.732 136.779)" fill="#2b2f2f"/>
        <path id="パス_48965" data-name="パス 48965" d="M1952.122,2534.744a1.021,1.021,0,0,1-.323-.053l-7.681-2.826a1.045,1.045,0,0,1,.722-1.961l7.608,2.8a1.064,1.064,0,0,1,.646,1.333A1.035,1.035,0,0,1,1952.122,2534.744Z" transform="translate(-1896.043 -2376.453)" fill="#2b2f2f"/>
        <path id="線_18" data-name="線 18" d="M-4.117,7.956a.7.7,0,0,1-.244-.044.7.7,0,0,1-.408-.9L-.511-4.361a.7.7,0,0,1,.9-.408.7.7,0,0,1,.408.9L-3.464,7.5A.7.7,0,0,1-4.117,7.956Z" transform="translate(98.214 162.918)" fill="#2b2f2f"/>
        <path id="線_19" data-name="線 19" d="M-4.117,5.357a.694.694,0,0,1-.308-.072.7.7,0,0,1-.316-.933L-.4-4.425a.7.7,0,0,1,.933-.316.7.7,0,0,1,.316.933L-3.492,4.969A.7.7,0,0,1-4.117,5.357Z" transform="translate(109.412 138.232)" fill="#2b2f2f"/>
        <path id="線_20" data-name="線 20" d="M.259-.549A.693.693,0,0,1-.123-.663L-4.5-3.533A.7.7,0,0,1-4.7-4.5a.7.7,0,0,1,.965-.2L.642-1.828a.7.7,0,0,1,.2.965A.7.7,0,0,1,.259-.549Z" transform="translate(111.549 159.314)" fill="#2b2f2f"/>
        <path id="線_21" data-name="線 21" d="M1.739.409A.693.693,0,0,1,1.359.3L-4.5-3.533A.7.7,0,0,1-4.7-4.5a.7.7,0,0,1,.964-.2L2.121-.871a.7.7,0,0,1,.2.964A.7.7,0,0,1,1.739.409Z" transform="translate(92.598 146.941)" fill="#2b2f2f"/>
        <path id="線_22" data-name="線 22" d="M-4.116-.842a.7.7,0,0,1-.639-.418A.7.7,0,0,1-4.4-2.177L1.5-4.755a.7.7,0,0,1,.917.359.7.7,0,0,1-.359.917L-3.837-.9A.694.694,0,0,1-4.116-.842Z" transform="translate(112.441 148.502)" fill="#2b2f2f"/>
        <path id="線_23" data-name="線 23" d="M-4.116-.087A.7.7,0,0,1-4.754-.5.7.7,0,0,1-4.4-1.422L3.178-4.754A.7.7,0,0,1,4.1-4.4a.7.7,0,0,1-.357.918L-3.836-.146A.694.694,0,0,1-4.116-.087Z" transform="translate(89.784 157.682)" fill="#2b2f2f"/>
        <path id="線_24" data-name="線 24" d="M-1.719,4.255a.7.7,0,0,1-.665-.489l-2.4-7.674a.7.7,0,0,1,.457-.873.7.7,0,0,1,.873.457l2.4,7.674a.7.7,0,0,1-.457.873A.7.7,0,0,1-1.719,4.255Z" transform="translate(107.996 162.704)" fill="#2b2f2f"/>
        <path id="線_25" data-name="線 25" d="M-2,6.966a.7.7,0,0,1-.682-.557L-4.8-3.977A.7.7,0,0,1-4.256-4.8a.7.7,0,0,1,.822.543L-1.312,6.13a.7.7,0,0,1-.543.822A.7.7,0,0,1-2,6.966Z" transform="translate(101.578 136.49)" fill="#2b2f2f"/>
        <path id="パス_48966" data-name="パス 48966" d="M2375.937,2034.425a1.067,1.067,0,0,1-.235-.027,1.046,1.046,0,0,1-.785-1.253l4.18-18.184,5.282-22.854.864-3.735a3.467,3.467,0,0,1,2.763-2.257c.031-.005.2-.024.228-.026l4.2-.4a1.045,1.045,0,0,1,.2,2.081l-4.083.39-.147.015a1.412,1.412,0,0,0-1.154.783l-.831,3.622-5.281,22.852-4.18,18.183A1.046,1.046,0,0,1,2375.937,2034.425Z" transform="translate(-2265.033 -1911.079)" fill="#2b2f2f"/>
        <path id="線_26" data-name="線 26" d="M-6.173,5.865a1.049,1.049,0,0,1-.217-.023A1.045,1.045,0,0,1-7.2,4.6L-4.869-6.391A1.045,1.045,0,0,1-3.631-7.2a1.045,1.045,0,0,1,.806,1.239L-5.152,5.036A1.045,1.045,0,0,1-6.173,5.865Z" transform="translate(112.506 115.891)" fill="#2b2f2f"/>
        <path id="パス_48967" data-name="パス 48967" d="M2365.923,2179.025a.98.98,0,0,1-.2-.02,1.016,1.016,0,0,1-.822-1.193l.644-3.049a1.045,1.045,0,1,1,2.045.432l-.627,2.968A1.088,1.088,0,0,1,2365.923,2179.025Z" transform="translate(-2256.475 -2072.075)" fill="#2b2f2f"/>
        <path id="パス_48968" data-name="パス 48968" d="M2403.847,1961.8a1.046,1.046,0,0,1-1.023-1.263l1.031-4.835A6.716,6.716,0,0,1,2406,1952.2a6.41,6.41,0,0,1,3.27-1.4l.375-.034,5.584-.583a1.045,1.045,0,1,1,.217,2.079l-5.6.585-.338.03a4.31,4.31,0,0,0-2.167.932,4.644,4.644,0,0,0-1.443,2.332l-1.033,4.845A1.045,1.045,0,0,1,2403.847,1961.8Z" transform="translate(-2288.903 -1880.708)" fill="#2b2f2f"/>
        <path id="パス_48969" data-name="パス 48969" d="M2264.583,1955.172a1.045,1.045,0,0,1-1-1.35l.961-3.149a1.046,1.046,0,0,1,.052-.136,3.515,3.515,0,0,1,3.108-1.871h.208l4.3-.6a1.045,1.045,0,1,1,.285,2.07l-4.445.613-.323.01a1.454,1.454,0,0,0-1.219.627l-.931,3.05A1.045,1.045,0,0,1,2264.583,1955.172Z" transform="translate(-2169.802 -1878.898)" fill="#2b2f2f"/>
        <path id="パス_48970" data-name="パス 48970" d="M2671.938,1731.237h0l-3.762-.014-.424-.015-9.6-.041-1.676-.014a1.045,1.045,0,0,1-1.036-1.045v-9.057a1.045,1.045,0,1,1,2.09,0v8.021l.636.005,9.624.042.423.015,2.612.009c-.287-4.114-1.17-12.409-2.836-15.191-2.435-4.051-9.886-6.07-9.961-6.089a1.045,1.045,0,0,1,.535-2.02c.34.09,8.344,2.253,11.219,7.035,2.474,4.134,3.171,16.726,3.2,17.26a1.045,1.045,0,0,1-1.044,1.1Z" transform="translate(-2504.964 -1671.725)" fill="#2b2f2f"/>
        <path id="パス_48971" data-name="パス 48971" d="M2474.033,1732.764a1.028,1.028,0,0,1-.184-.016l-5.643-1-3.329-.585a1.045,1.045,0,0,1-.841-1.249c.094-.437,2.321-10.74,4.081-14.1,2.432-4.669,11.192-7.344,11.564-7.456a1.045,1.045,0,0,1,.6,2c-2.3.692-8.631,3.193-10.312,6.421-1.319,2.52-3.035,9.778-3.655,12.514l2.254.4,5.646,1a1.045,1.045,0,0,1-.182,2.074Z" transform="translate(-2341.253 -1673.865)" fill="#2b2f2f"/>
        <path id="パス_48972" data-name="パス 48972" d="M2557.882,1892.679H2527.52a1.045,1.045,0,0,1-1.045-1.045v-4.18a1.069,1.069,0,0,1,1.045-1.073,1.022,1.022,0,0,1,1.045,1.017v3.191h28.272V1868.35a1.045,1.045,0,0,1,2.09,0v23.284A1.045,1.045,0,0,1,2557.882,1892.679Z" transform="translate(-2394.671 -1809.841)" fill="#2b2f2f"/>
        <path id="パス_48973" data-name="パス 48973" d="M2527.52,1821.041a1.045,1.045,0,0,1-1.045-1.045v-15.648a1.045,1.045,0,1,1,2.09,0V1820A1.045,1.045,0,0,1,2527.52,1821.041Z" transform="translate(-2394.671 -1755.106)" fill="#2b2f2f"/>
        <path id="パス_48974" data-name="パス 48974" d="M2489.077,1888.306c-3.186,0-4.488-1.47-5.021-2.782a5.966,5.966,0,0,1-.245-3.089,5.071,5.071,0,0,1-1-2.161c-.467-3,2.686-4.549,2.82-4.613a9.138,9.138,0,0,1,4.522-.991,5.009,5.009,0,0,1,3.826,2.021c6.065.006,10.621-1.346,13.2-3.922a7.16,7.16,0,0,0,2.259-4.693,1.045,1.045,0,1,1,2.09-.029,9.249,9.249,0,0,1-2.871,6.2c-3.109,3.108-8.25,4.631-15.272,4.529a1.045,1.045,0,0,1-.94-.621,2.866,2.866,0,0,0-2.445-1.4,7.1,7.1,0,0,0-3.477.8s-1.873.936-1.649,2.375a3.267,3.267,0,0,0,.849,1.541,1.046,1.046,0,0,1,.222.991,4.167,4.167,0,0,0,.056,2.3c.467,1.148,1.813,1.629,3.994,1.413.034,0,.11-.005.145-.005,4-.4,4.6-1.91,4.6-1.925a1.046,1.046,0,0,1,1.063-.861c.574.019,1.141.029,1.7.029,7.832,0,13.681-1.88,17.4-5.6a14.313,14.313,0,0,0,4.166-9.666,1.045,1.045,0,0,1,2.088-.075,16.164,16.164,0,0,1-4.744,11.187c-4.3,4.32-11.022,6.415-19.99,6.232-.61.954-2.179,2.369-6.18,2.764C2489.827,1888.287,2489.439,1888.306,2489.077,1888.306Z" transform="translate(-2357.289 -1809.594)" fill="#2b2f2f"/>
        <path id="パス_48975" data-name="パス 48975" d="M2323.653,1889.617h-.154a6.252,6.252,0,0,1-3.809-1.328,3.74,3.74,0,0,1-.621-.7,3.048,3.048,0,0,1-.676-2c.037-2.106,2.291-3.763,5.13-3.763l.176,0a5.962,5.962,0,0,1,4.15,1.663,3.256,3.256,0,0,1,.952,2.373,2.8,2.8,0,0,1-.042.415,2.456,2.456,0,0,1-.081.407C2328.108,1888.452,2326.093,1889.617,2323.653,1889.617Z" transform="translate(-2216.715 -1822.259)" fill="#2b2f2f"/>
        <path id="パス_48976" data-name="パス 48976" d="M2321.187,1916.123q-.74,0-1.577-.066a5.458,5.458,0,0,1-4.262-2.261,3.834,3.834,0,0,1-.393-.669,1.021,1.021,0,0,1-.048-.138c-1.15-4.238,1.669-5.621,1.79-5.678a1.045,1.045,0,0,1,.909,1.882c-.152.082-1.311.8-.706,3.154a2.791,2.791,0,0,0,.159.248,3.423,3.423,0,0,0,2.713,1.377c3.333.263,4.344-.415,4.574-.629a.578.578,0,0,0,.151-.177.415.415,0,0,1,.06-.168,4.674,4.674,0,0,0-.833-5.085,1.054,1.054,0,0,1-.015-1.485,1.036,1.036,0,0,1,1.47-.015,6.722,6.722,0,0,1,1.313,7.375,2.455,2.455,0,0,1-.738,1.1C2324.872,1915.707,2323.337,1916.122,2321.187,1916.123Z" transform="translate(-2213.499 -1843.031)" fill="#2b2f2f"/>
        <path id="パス_48977" data-name="パス 48977" d="M2447.033,1962.949h-.04a1.02,1.02,0,0,1-1-1.016c.242-3.111-1.557-3.756-1.575-3.762a1.045,1.045,0,0,1,.67-1.98c.137.046,3.359,1.192,2.992,5.769A1.071,1.071,0,0,1,2447.033,1962.949Z" transform="translate(-2323.884 -1885.81)" fill="#2b2f2f"/>
        <path id="パス_48978" data-name="パス 48978" d="M2278.158,1923.887a1.046,1.046,0,0,1-1-1.349c.84-2.769-.73-3.8-.912-3.9a1.052,1.052,0,0,1-.381-1.422,1.038,1.038,0,0,1,1.4-.4c1.128.624,2.975,2.749,1.888,6.332A1.045,1.045,0,0,1,2278.158,1923.887Z" transform="translate(-2180.228 -1852.071)" fill="#2b2f2f"/>
        <path id="パス_48979" data-name="パス 48979" d="M2507.664,2103.729a24.273,24.273,0,0,1-4.533-.413,9.192,9.192,0,0,1-1.227-.265,1.053,1.053,0,0,1-.735-.98c-.594-35.46,4.516-70.014,4.568-70.359a1.045,1.045,0,0,1,2.067.31c-.051.341-5.057,34.2-4.558,69.2.076.014.157.028.244.041a23.779,23.779,0,0,0,8.8-.071c.388-5.1,2.622-33.571,5.219-49.2a1.045,1.045,0,1,1,2.062.343c-2.83,17.035-5.232,49.478-5.256,49.8a1.044,1.044,0,0,1-.815.943l-.2.04-.15.031A26.02,26.02,0,0,1,2507.664,2103.729Z" transform="translate(-2372.988 -1949.683)" fill="#2b2f2f"/>
        <path id="パス_48980" data-name="パス 48980" d="M2606.532,2102.674a9.091,9.091,0,0,1-1.993-.2,3.933,3.933,0,0,1-1.12-.345,1.043,1.043,0,0,1-.469-.5c-4.263-9.467-8.916-41.37-10.241-50.923-.235-1.635-.381-2.686-.42-2.973l-3.421-11.467a1.045,1.045,0,1,1,2-.6l3.444,11.544a1.011,1.011,0,0,1,.034.156s.153,1.114.431,3.045c1.3,9.354,5.8,40.251,9.9,49.951.074.019.163.038.264.055,1.043.233,3.8.514,8.2-1.6-.783-5.678-5.675-41.779-5.521-56.143a1.017,1.017,0,0,1,.016-.17c.013-.077,1.35-7.772.517-12.281a1.045,1.045,0,0,1,2.055-.38c.862,4.666-.34,12.009-.5,12.937-.143,15.442,5.549,56.09,5.606,56.5a1.045,1.045,0,0,1-.507,1.048,5.124,5.124,0,0,1-.5.25A17.805,17.805,0,0,1,2606.532,2102.674Z" transform="translate(-2447.994 -1948.119)" fill="#2b2f2f"/>
        <path id="パス_48981" data-name="パス 48981" d="M2468.117,2526.426c-.094,0-.151,0-.163,0a1.082,1.082,0,0,1-.2-.025,3.82,3.82,0,0,1-2.552-1.6,3.4,3.4,0,0,1-.309-2.65,5.085,5.085,0,0,1,.151-.495c.005-.015.054-.157.061-.173a5.962,5.962,0,0,1,.519-1.014,1.043,1.043,0,0,1,.248-.26l5.741-4.25a1.012,1.012,0,0,1,.15-.093,1.058,1.058,0,0,1,1.418.455,1.033,1.033,0,0,1-.385,1.362l-5.515,4.083a4.242,4.242,0,0,0-.236.493c-.059.177-.1.276-.119.377a1.393,1.393,0,0,0,.054,1.065,1.879,1.879,0,0,0,1.131.638,13.087,13.087,0,0,0,3.4-.5,43.219,43.219,0,0,1,7.551-.933,2.184,2.184,0,0,0,1.646-.812c.742-.965.782-2.757.117-5.182a1.052,1.052,0,0,1,1.929-.827,1.293,1.293,0,0,1,.1.324c.85,3.128.675,5.482-.52,7a4.286,4.286,0,0,1-3.321,1.588,42.564,42.564,0,0,0-7,.87A14.718,14.718,0,0,1,2468.117,2526.426Z" transform="translate(-2341.896 -2364.189)" fill="#2b2f2f"/>
        <path id="パス_48982" data-name="パス 48982" d="M2656.971,2524.575a3.522,3.522,0,0,1-3.148-1.379c-1.067-1.565-.272-3.71-.178-3.95a1.037,1.037,0,0,1,.2-.317l5.267-5.852.791.685.734.744-.014.014-5.083,5.651a2.52,2.52,0,0,0,.017,1.851,1.752,1.752,0,0,0,1.406.464,8.778,8.778,0,0,0,3.564-.943,28.815,28.815,0,0,1,6.722-2.865,2.545,2.545,0,0,0,1.5-1.328c.513-1.125.246-2.818-.771-4.9-.065-.145-.127-.267-.187-.389l.931-.474.935-.467c.079.159.155.31.215.447,1.316,2.687,1.576,4.951.757,6.695a4.673,4.673,0,0,1-2.916,2.451,27.278,27.278,0,0,0-6.156,2.646A10.83,10.83,0,0,1,2656.971,2524.575Z" transform="translate(-2503.11 -2360.445)" fill="#2b2f2f"/>
        <path id="線_27" data-name="線 27" d="M-6.175-2.147a1.045,1.045,0,0,1-1-.761A1.045,1.045,0,0,1-6.459-4.2L4.075-7.18a1.045,1.045,0,0,1,1.29.721,1.045,1.045,0,0,1-.721,1.29L-5.89-2.187A1.046,1.046,0,0,1-6.175-2.147Z" transform="translate(71.038 164.842)" fill="#2b2f2f"/>
        <path id="線_28" data-name="線 28" d="M-6.175-2.133a1.045,1.045,0,0,1-1-.759A1.045,1.045,0,0,1-6.46-4.184l10.534-3a1.045,1.045,0,0,1,1.291.719,1.045,1.045,0,0,1-.719,1.291l-10.534,3A1.046,1.046,0,0,1-6.175-2.133Z" transform="translate(71.038 160.091)" fill="#2b2f2f"/>
        <path id="線_29" data-name="線 29" d="M-6.174-4.6a1.045,1.045,0,0,1-1.043-.99,1.045,1.045,0,0,1,.988-1.1L3.79-7.217a1.045,1.045,0,0,1,1.1.988A1.045,1.045,0,0,1,3.9-5.13L-6.118-4.6Z" transform="translate(21.013 169.955)" fill="#2b2f2f"/>
        <path id="線_30" data-name="線 30" d="M1.141-2.147a1.042,1.042,0,0,1-.394-.078L-6.569-5.207a1.045,1.045,0,0,1-.573-1.362A1.045,1.045,0,0,1-5.78-7.142L1.535-4.16A1.045,1.045,0,0,1,2.109-2.8,1.045,1.045,0,0,1,1.141-2.147Z" transform="translate(51.781 168.368)" fill="#2b2f2f"/>
        <path id="パス_48983" data-name="パス 48983" d="M2055.544,2318.757a1.045,1.045,0,0,1-1.045-1.044v-42.165c0-3.892,2.275-4.592,2.9-4.711l6.916-2.153a1.045,1.045,0,1,1,.621,2l-6.981,2.173a1,1,0,0,1-.221.044c-.4.069-1.149.71-1.149,2.651v42.165A1.045,1.045,0,0,1,2055.544,2318.757Z" transform="translate(-1991.029 -2153.067)" fill="#2b2f2f"/>
        <path id="パス_48984" data-name="パス 48984" d="M2025.228,2305.294a1.045,1.045,0,0,1-1.045-1.045V2259.1c.18-3.83,2.509-4.824,3.124-5.02.032-.015.065-.029.084-.035l4.905-1.714a1.045,1.045,0,0,1,.689,1.973l-4.9,1.714a.547.547,0,0,1-.171.061c-.04.012-1.514.449-1.638,3.071v45.1A1.045,1.045,0,0,1,2025.228,2305.294Z" transform="translate(-1965.101 -2139.074)" fill="#2b2f2f"/>
        <path id="パス_48985" data-name="パス 48985" d="M2109.6,1746.553c-.033,0-.066,0-.1,0a1.045,1.045,0,0,1-.942-1.139c1.194-12.629-7.624-14.547-8-14.623-7.64-1.507-11.691,2.269-11.86,2.43a1.072,1.072,0,0,1-.343.221c-2.117.835-1.895,1.919-1.892,1.93a1.043,1.043,0,0,1,.029.485c.014-.044.048.086.267.269.455.358,2.137,1.195,7.442.847l.125,1.043v1.045h-.056c-4.426.292-7.335-.136-8.826-1.311a2.6,2.6,0,0,1-1.034-2c-.2-1.059.213-3.008,3-4.181.923-.806,5.579-4.405,13.56-2.831.114.023,11.041,2.388,9.672,16.869A1.045,1.045,0,0,1,2109.6,1746.553Z" transform="translate(-2016.573 -1690.998)" fill="#2b2f2f"/>
        <path id="パス_48986" data-name="パス 48986" d="M2010.657,2186.766h-.023a9.973,9.973,0,0,1-7.218-3.839,1.045,1.045,0,1,1,1.662-1.267,7.839,7.839,0,0,0,5.606,3.017,1.045,1.045,0,0,1-.027,2.09Z" transform="translate(-1947.158 -2078.331)" fill="#2b2f2f"/>
        <path id="パス_48987" data-name="パス 48987" d="M1982.2,2460.071a1.126,1.126,0,0,1-.377-.065l-7.106-2.634a1.045,1.045,0,0,1,.726-1.96l7.076,2.623a1.044,1.044,0,0,1-.318,2.036Z" transform="translate(-1922.217 -2312.745)" fill="#2b2f2f"/>
        <path id="パス_48988" data-name="パス 48988" d="M2001.4,2391.063l-4.027-1.337a1.045,1.045,0,0,1,.659-1.984l3.985,1.324-.288,1.006Z" transform="translate(-1941.559 -2254.883)" fill="#2b2f2f"/>
        <path id="パス_48989" data-name="パス 48989" d="M2029.446,2613.39h0a4.731,4.731,0,0,1-1.309-.182,1.051,1.051,0,0,1-.339-.18l-1.783-1.421-2.247-1.77a4.954,4.954,0,0,1-1.055-.927,5.561,5.561,0,0,1-1.3-3.146l.066-5.493a1.045,1.045,0,0,1,.742-.987l.46-.139,4.634-1.316a1.045,1.045,0,0,1,1.326,1.007v5.458l3.135,3.376.8.841a1.045,1.045,0,0,1,.24.408,3.485,3.485,0,0,1-.929,3.612A3.62,3.62,0,0,1,2029.446,2613.39Zm-.525-2.141a2.853,2.853,0,0,0,.525.051h0a1.561,1.561,0,0,0,1.069-.344,1.348,1.348,0,0,0,.348-1.219l-.607-.638-3.427-3.693a1.044,1.044,0,0,1-.275-.706v-4.484l-2.992.851-.06,4.622a3.426,3.426,0,0,0,.8,1.863,2.821,2.821,0,0,0,.58.517,1.014,1.014,0,0,1,.132.088l2.3,1.811Z" transform="translate(-1962.736 -2434.565)" fill="#2b2f2f"/>
        <path id="パス_48990" data-name="パス 48990" d="M2029.712,2652.348a8.318,8.318,0,0,1-1.439-.125,8.512,8.512,0,0,1-5.709-3.821,9.686,9.686,0,0,1-1.384-6.974,9.488,9.488,0,0,1,1.042-3.009,1.1,1.1,0,0,1,.224-.338,1.045,1.045,0,0,1,1.721,1.1,1.064,1.064,0,0,1-.084.195,7.4,7.4,0,0,0-.843,2.407,7.606,7.606,0,0,0,1.075,5.483,6.446,6.446,0,0,0,4.316,2.9,7.061,7.061,0,0,0,7.918-6.034,7.826,7.826,0,0,0-1.347-5.946,5.936,5.936,0,0,0-4-2.439,5.431,5.431,0,0,0-3.092.5,1.045,1.045,0,0,1-1.05-1.807,7.457,7.457,0,0,1,4.408-.762,8.007,8.007,0,0,1,5.416,3.271,9.925,9.925,0,0,1,1.725,7.543A9.268,9.268,0,0,1,2029.712,2652.348Z" transform="translate(-1962.404 -2465.201)" fill="#2b2f2f"/>
        <path id="パス_48991" data-name="パス 48991" d="M2231.859,1920.618a1.045,1.045,0,0,1-.982-1.4l1.7-4.682a1.086,1.086,0,0,1,.062-.138,6.476,6.476,0,0,1,4.561-2.994l1.024-.114,6.431-.67a1.045,1.045,0,1,1,.216,2.079l-6.424.669-1,.111h0a4.451,4.451,0,0,0-2.937,1.847l-1.672,4.605A1.045,1.045,0,0,1,2231.859,1920.618Z" transform="translate(-2141.816 -1846.879)" fill="#2b2f2f"/>
        <path id="パス_48992" data-name="パス 48992" d="M2300.5,2159.212a1.052,1.052,0,0,1-.249-.031l-4.96-1.212-12.623-3.044a1.055,1.055,0,0,1-.84-1.022,1.033,1.033,0,0,1,1.031-1.045h.028a1.058,1.058,0,0,1,.245.029l12.653,3.052,4.963,1.213a1.045,1.045,0,0,1-.248,2.061Z" transform="translate(-2185.442 -2054.051)" fill="#2b2f2f"/>
        <path id="パス_48993" data-name="パス 48993" d="M2293.66,1993.4a1.044,1.044,0,0,1-.228-.025l-5.128-1.142-19.524-4.39a1.045,1.045,0,0,1,.459-2.039l19.522,4.389,5.126,1.142a1.045,1.045,0,0,1-.226,2.065Z" transform="translate(-2173.588 -1911.162)" fill="#2b2f2f"/>
        <path id="パス_48994" data-name="パス 48994" d="M2258.089,2278.921a1.282,1.282,0,0,1-.281-.031l-.278-.07-14.62-3.48a1.043,1.043,0,0,1-.225-.082,1.059,1.059,0,0,1-.483-1.409,1.033,1.033,0,0,1,1.281-.522l14.541,3.462.263.065a1.055,1.055,0,0,1,.833,1.021A1.033,1.033,0,0,1,2258.089,2278.921Z" transform="translate(-2151.464 -2157.026)" fill="#2b2f2f"/>
        <path id="パス_48995" data-name="パス 48995" d="M2383.581,1866.774a25.841,25.841,0,0,1-5.16-.567,1.045,1.045,0,1,1,.419-2.048c4.842.991,8.639.58,11.283-1.224a8.02,8.02,0,0,0,3.292-4.754,1.045,1.045,0,0,1,2.062.342,9.986,9.986,0,0,1-4.133,6.109A13.388,13.388,0,0,1,2383.581,1866.774Z" transform="translate(-2267.338 -1801.295)" fill="#2b2f2f"/>
        <path id="パス_48996" data-name="パス 48996" d="M2388.455,1957.742h-.047a30.626,30.626,0,0,1-5.8-.8,1.045,1.045,0,0,1,.525-2.023,29.069,29.069,0,0,0,5.371.734,1.045,1.045,0,0,1-.045,2.089Z" transform="translate(-2270.961 -1884.741)" fill="#2b2f2f"/>
        <path id="パス_48997" data-name="パス 48997" d="M2579.893,1636.414h0c-3.078,0-4.177-2.846-4.329-4.351a1.045,1.045,0,0,1,.935-1.144l6.521-.655a1.045,1.045,0,0,1,1.149,1.028c.018,1.613-.735,4.753-3.714,5.091A5.2,5.2,0,0,1,2579.893,1636.414Zm-1.979-3.537a2.1,2.1,0,0,0,1.979,1.447h0a3.143,3.143,0,0,0,.333-.019,2.127,2.127,0,0,0,1.7-1.832Z" transform="translate(-2436.648 -1607.115)" fill="#2b2f2f"/>
        <path id="パス_48998" data-name="パス 48998" d="M2687.773,1624.153a1.044,1.044,0,0,1-.314-.048,5.616,5.616,0,0,1-3.784-6.416,1.071,1.071,0,0,1,.055-.205,2.727,2.727,0,0,0-.445-2.709,1.045,1.045,0,0,1,1.451-1.5,4.751,4.751,0,0,1,.991,4.833,3.459,3.459,0,0,0,.935,3.115,7.552,7.552,0,0,1,1.57-4.284,5.176,5.176,0,0,0,.87-3.893,4.3,4.3,0,0,0-2.109-2.485,1.045,1.045,0,0,1,1.029-1.819,6.363,6.363,0,0,1,3.1,3.771,7.2,7.2,0,0,1-1.145,5.577,1.043,1.043,0,0,1-.138.182,5.922,5.922,0,0,0-1.032,4.7,1.046,1.046,0,0,1-1.035,1.187Z" transform="translate(-2528.505 -1588.594)" fill="#2b2f2f"/>
        <path id="線_31" data-name="線 31" d="M-6.173-2.481a1.053,1.053,0,0,1-.159-.012,1.045,1.045,0,0,1-.875-1.191l.4-2.647a1.045,1.045,0,0,1,1.191-.875,1.045,1.045,0,0,1,.875,1.191l-.4,2.647A1.045,1.045,0,0,1-6.173-2.481Z" transform="translate(150.602 41.942)" fill="#2b2f2f"/>
        <path id="パス_48999" data-name="パス 48999" d="M2629.448,1696.007a1.045,1.045,0,0,1-.956-.623l-.585-1.323a1.045,1.045,0,1,1,1.911-.845l.146.329,3.643-1.786a2.379,2.379,0,0,0,0-.443,2.171,2.171,0,0,0-1.522-1.785,1.045,1.045,0,0,1,.805-1.929,4.18,4.18,0,0,1,2.8,3.5,4.4,4.4,0,0,1-.159,1.7,1.043,1.043,0,0,1-.531.608l-5.086,2.494A1.046,1.046,0,0,1,2629.448,1696.007Z" transform="translate(-2481.341 -1656.087)" fill="#2b2f2f"/>
        <path id="パス_49000" data-name="パス 49000" d="M2571.653,1695.618a1.045,1.045,0,0,1-.694-.264l-2.369-2.1a1.045,1.045,0,0,1-.35-.74,4.635,4.635,0,0,1,.122-1.118,4.371,4.371,0,0,1,3.657-3.857,1.045,1.045,0,1,1,.327,2.064,2.335,2.335,0,0,0-1.935,2.2c-.019.086-.033.165-.045.236l.957.85.117-.237a1.045,1.045,0,0,1,1.873.928l-.725,1.463a1.043,1.043,0,0,1-.737.562A1.033,1.033,0,0,1,2571.653,1695.618Z" transform="translate(-2430.388 -1656.088)" fill="#2b2f2f"/>
        <path id="パス_49001" data-name="パス 49001" d="M2552.477,1548.8a1.045,1.045,0,0,1-.584-.178l-3-2.02a1.045,1.045,0,0,1-.461-.867v-.637c-4.332-1.57-6.812-6.526-7.009-14.078a37.561,37.561,0,0,1,.173-4.636,1,1,0,0,1,.025-.145h0c.12-.807.765-4.034,3.348-5.579-.026-.052-.041-.085-.046-.1a1.045,1.045,0,0,1,1.906-.858,5.079,5.079,0,0,0,.247.448,1.047,1.047,0,0,1,.565.827,11.648,11.648,0,0,0,6.636,4.273,15.164,15.164,0,0,0,4.209.375,1.029,1.029,0,0,1,.217.014,4.812,4.812,0,0,1,3.082,2.193,3.972,3.972,0,0,1,2.842-.948,3.142,3.142,0,0,1,2.112,1.161,4.8,4.8,0,0,1,.857,3.46,8.343,8.343,0,0,1-.32,1.835,4.719,4.719,0,0,1-3.265,3.4,8.278,8.278,0,0,1-.124.917,8.069,8.069,0,0,1-4.314,5.954v1.511a1.044,1.044,0,0,1-.628.958l-4.64,2.02-1.424.615A1.048,1.048,0,0,1,2552.477,1548.8Zm-1.951-3.621,2.061,1.39.9-.387,4.009-1.745v-1.5a1.045,1.045,0,0,1,.71-.99,5.992,5.992,0,0,0,3.638-4.659,7.565,7.565,0,0,0,.125-1.458,1.045,1.045,0,0,1,1.094-1.044c.147,0,1.617-.035,2.226-2.046a6.286,6.286,0,0,0,.236-1.384,2.841,2.841,0,0,0-.406-2,1.094,1.094,0,0,0-.639-.382c-1.143-.116-2.182,1.318-2.193,1.333a1.045,1.045,0,0,1-1.881-.367,2.792,2.792,0,0,0-1.957-2.214,17.152,17.152,0,0,1-4.656-.438,13.759,13.759,0,0,1-7.663-4.856c-2.057,1.2-2.432,4.075-2.435,4.107s-.008.057-.015.095a35.427,35.427,0,0,0-.159,4.338c.106,4.041,1.054,11.021,6.224,12.348a1.045,1.045,0,0,1,.785,1.012Z" transform="translate(-2407.45 -1512.045)" fill="#2b2f2f"/>
        <path id="パス_49002" data-name="パス 49002" d="M2563.142,1488.059a1.033,1.033,0,0,1-.208-.021,1.045,1.045,0,0,1-.818-1.23c.074-.373,1.747-9.167-4.939-12.559-9.326-4.72-13.786,1.425-13.971,1.689a1.046,1.046,0,0,1-.353.316c-4.574,2.509-2.5,7.987-2.414,8.219a1.045,1.045,0,0,1-1.945.766c-1-2.519-1.59-7.954,3.164-10.71,1-1.217,6.566-7.153,16.464-2.144,8.113,4.117,6.064,14.731,6.042,14.838A1.044,1.044,0,0,1,2563.142,1488.059Z" transform="translate(-2404.36 -1470.405)" fill="#2b2f2f"/>
        <path id="パス_49003" data-name="パス 49003" d="M1892.917,2167.576a6.619,6.619,0,0,1-2.806-.583,4.353,4.353,0,0,1-2.284-2.333c-1.042-2.7.945-5.908,4.522-7.306a8.45,8.45,0,0,1,4.011-.575l.772-.35c.033-.015.11-.042.144-.054a1.045,1.045,0,0,1,.658,1.984l-.042.014-.943.434a1.049,1.049,0,0,1-.593.081,6.354,6.354,0,0,0-3.246.414c-2.409.941-3.936,3.048-3.337,4.6a2.256,2.256,0,0,0,1.215,1.2,5.764,5.764,0,0,0,4.343-.08,5.833,5.833,0,0,0,3.107-2.541,1.044,1.044,0,0,1,.592-.5l1.379-.46a1.1,1.1,0,0,1,1.385.64.99.99,0,0,1-.6,1.3l-1.131.377a8.092,8.092,0,0,1-3.984,3.134A8.813,8.813,0,0,1,1892.917,2167.576Z" transform="translate(-1848.251 -2057.014)" fill="#2b2f2f"/>
        <path id="パス_49004" data-name="パス 49004" d="M2023.251,2211.468a1.041,1.041,0,0,1-.2-.02,4.885,4.885,0,0,1-3.831-2.958,4.3,4.3,0,0,1-.274-1.847c.138-2.327,2.072-4.619,4.811-5.706l.031-.012.043-.018a8.332,8.332,0,0,1,4.774-.456l1.028-.3a1.045,1.045,0,1,1,.583,2.007l-1.3.376a1.039,1.039,0,0,1-.563.006,6.2,6.2,0,0,0-3.744.3,1.161,1.161,0,0,1-.135.051c-1.982.833-3.358,2.394-3.446,3.867a2.273,2.273,0,0,0,.138.977,2.862,2.862,0,0,0,2.279,1.656,1.045,1.045,0,0,1-.2,2.071Z" transform="translate(-1960.616 -2094.463)" fill="#2b2f2f"/>
        <path id="パス_49005" data-name="パス 49005" d="M1948.008,1983.817a1.045,1.045,0,0,1-1.039-.935,5.773,5.773,0,0,0-.106-.649,9.838,9.838,0,0,0-3.728-5.281,1.046,1.046,0,0,1,.008-1.741c7.844-5.156,8.833-9.567,8.843-9.611,4.487-13.558,7.115-15.994,7.4-16.228a14.875,14.875,0,0,1,9.321-4.11,1.045,1.045,0,0,1,.076,2.089,13.089,13.089,0,0,0-7.986,3.558c-.162.151-2.566,2.473-6.793,15.22,0,.069-.929,4.653-8.537,10.027a11.126,11.126,0,0,1,3.3,5.073c.8-.414,1.917-1.022,3.093-1.755a21.187,21.187,0,0,0,4.342-3.39,1.063,1.063,0,0,1,.172-.149c.029-.021,4.009-3.065,6.241-15.407a1.045,1.045,0,1,1,2.057.372c-2.239,12.381-6.263,16.085-7,16.67a23.631,23.631,0,0,1-4.716,3.683,46.164,46.164,0,0,1-4.51,2.468A1.048,1.048,0,0,1,1948.008,1983.817Z" transform="translate(-1895.392 -1876.511)" fill="#2b2f2f"/>
        <path id="パス_49006" data-name="パス 49006" d="M2218.431,1993.775a1.058,1.058,0,0,1-1.027-.776,1.028,1.028,0,0,1,.677-1.256,1.461,1.461,0,0,0,.138-.062,6.89,6.89,0,0,0,3.006-3.341h0s.495-1.135,1.037-2.841a36.159,36.159,0,0,0,1.519-6.681c1.188-10.041-.687-13.385-.706-13.417a9.835,9.835,0,0,0-2.582-2.856c-.176-.139-.355-.266-.558-.406a25.263,25.263,0,0,0-4.51-2.5c-1.232-.544-2.348-.982-3.32-1.3l.215-1.035.33-.992c1.145.382,2.326.845,3.618,1.416a27.252,27.252,0,0,1,4.868,2.7c.226.156.438.307.65.474a11.842,11.842,0,0,1,3.1,3.45c.208.328,2.249,3.946.974,14.717a38.337,38.337,0,0,1-1.606,7.075c-.578,1.818-1.1,3.011-1.123,3.061a9.03,9.03,0,0,1-3.973,4.345,2.543,2.543,0,0,1-.475.2A1.069,1.069,0,0,1,2218.431,1993.775Z" transform="translate(-2125.815 -1885.963)" fill="#2b2f2f"/>
        <path id="パス_49007" data-name="パス 49007" d="M1800.055,2552.213a5.405,5.405,0,0,1-1.266-.141,27.009,27.009,0,0,0-7.767-.123,14.39,14.39,0,0,1-5.519-.022c-1.834-.7-2.882-1.631-3.2-2.806a3.723,3.723,0,0,1,1.191-3.483,5.07,5.07,0,0,1,1.231-.843,21.394,21.394,0,0,1,3.207-1.31,11.135,11.135,0,0,0,4.307-3.127,1.045,1.045,0,0,1,1.653,1.28,13.178,13.178,0,0,1-5.275,3.821,20.083,20.083,0,0,0-2.916,1.185,3.132,3.132,0,0,0-.76.5c-.226.215-.767.883-.621,1.428.129.47.8.971,1.842,1.37a9.762,9.762,0,0,0,1.875.149,18.256,18.256,0,0,0,2.646-.206,28.713,28.713,0,0,1,8.52.138c.189.041,2.062.484,2.93-.941a6.8,6.8,0,0,0,.4-1.9,19.729,19.729,0,0,0,.025-3.122,1.045,1.045,0,0,1,2.086-.126,21.76,21.76,0,0,1-.031,3.458,7.389,7.389,0,0,1-.672,2.748A4.336,4.336,0,0,1,1800.055,2552.213Z" transform="translate(-1758.155 -2385.105)" fill="#2b2f2f"/>
        <path id="パス_49008" data-name="パス 49008" d="M1706.1,2520.2a9.77,9.77,0,0,1-2.464-.251c-1.873-.724-2.894-1.7-3.127-2.922a3.7,3.7,0,0,1,1.185-3.142,8.681,8.681,0,0,1,2.846-1.561c.764-.318,1.407-.511,1.407-.511a21.369,21.369,0,0,0,5.357-2.658,1.045,1.045,0,1,1,1.233,1.688,23.364,23.364,0,0,1-5.964,2.964c-.041.012-.589.18-1.261.459a6.705,6.705,0,0,0-2.18,1.135c-.188.18-.665.763-.57,1.241.089.449.722.932,1.736,1.327a9.141,9.141,0,0,0,1.768.141,16.92,16.92,0,0,0,2.508-.2,37.257,37.257,0,0,1,6.745.134,1.045,1.045,0,1,1-.219,2.078,36.1,36.1,0,0,0-6.276-.138A18.262,18.262,0,0,1,1706.1,2520.2Z" transform="translate(-1688.251 -2358.593)" fill="#2b2f2f"/>
      </g>
    </g>
  </g>
</svg>
