<svg id="grouphome_ttl" xmlns="http://www.w3.org/2000/svg" width="234.055" height="40.177" viewBox="0 0 234.055 40.177">
  <path id="前面オブジェクトで型抜き_1" data-name="前面オブジェクトで型抜き 1" d="M37.039,40.176H35.783a.341.341,0,0,1-.089-.017.337.337,0,0,0-.09-.017.132.132,0,0,0-.08.026.2.2,0,0,0-.1-.026.534.534,0,0,0-.114.017.534.534,0,0,1-.114.017H10.053c-.118,0-.237-.008-.352-.015-.094.007-.19.015-.284.015H8.161a3.142,3.142,0,0,1-3.138-3.139V28.249c0-.045,0-.134.007-.22V22.568H2.515A2.49,2.49,0,0,1,0,20.049a2.544,2.544,0,0,1,.785-1.883L20.905.629A2.257,2.257,0,0,1,22.631,0a2.642,2.642,0,0,1,1.656.55L44.32,18.166a2.127,2.127,0,0,1,.863,1.883,2.494,2.494,0,0,1-.755,1.789,2.53,2.53,0,0,1-1.755.73H40.161l.055,12.563a5.7,5.7,0,0,1-.039.636v1.271A3.142,3.142,0,0,1,37.039,40.176ZM21.571,20.2c-2.118,0-5.058.445-7.034,2.563-1.8,1.926-2.393,5.52-2.577,8.195a37.7,37.7,0,0,0,.033,5.4H31.1a21.644,21.644,0,0,0,.69-3.616,16.527,16.527,0,0,0-.69-7.319,7.42,7.42,0,0,0-6.629-4.946A14.866,14.866,0,0,0,21.571,20.2Z" transform="translate(188.858)" fill="#3e71be"/>
  <path id="パス_46483" data-name="パス 46483" d="M12.67-36.94h16.2a2.562,2.562,0,0,1,1.829.724,2.327,2.327,0,0,1,.724,1.829L30.2-25.43a19.975,19.975,0,0,1-1.41,5.107,11.574,11.574,0,0,1-3.068,4.059,7.658,7.658,0,0,1-4.631,1.81H17.586a2.5,2.5,0,0,1-1.734-.743,2.5,2.5,0,0,1-.743-1.734,2.6,2.6,0,0,1,.705-1.829,2.438,2.438,0,0,1,1.772-.8h2.9a3.882,3.882,0,0,0,2.535-1.105,5.509,5.509,0,0,0,1.506-2.344,15.745,15.745,0,0,0,.61-2.878l.686-4.993q.114-.915-.648-.953H14.423a18.015,18.015,0,0,1-1.029,3.125,11.574,11.574,0,0,1-3.068,4.059,7.658,7.658,0,0,1-4.631,1.81H4.856a2.5,2.5,0,0,1-1.734-.743,2.5,2.5,0,0,1-.743-1.734,2.6,2.6,0,0,1,.705-1.829,2.438,2.438,0,0,1,1.772-.8h.229A3.882,3.882,0,0,0,7.62-29.05a5.509,5.509,0,0,0,1.506-2.344,15.745,15.745,0,0,0,.61-2.878v-.191a3,3,0,0,1,1.029-1.791A2.928,2.928,0,0,1,12.67-36.94Zm7.47-4.269a2.646,2.646,0,0,1,.8-1.944,2.646,2.646,0,0,1,1.944-.8,2.646,2.646,0,0,1,1.944.8,2.646,2.646,0,0,1,.8,1.944,2.646,2.646,0,0,1-.8,1.944,2.646,2.646,0,0,1-1.944.8,2.646,2.646,0,0,1-1.944-.8A2.646,2.646,0,0,1,20.14-41.209Zm6.556,0a2.646,2.646,0,0,1,.8-1.944,2.646,2.646,0,0,1,1.944-.8,2.646,2.646,0,0,1,1.944.8,2.646,2.646,0,0,1,.8,1.944,2.646,2.646,0,0,1-.8,1.944,2.646,2.646,0,0,1-1.944.8,2.646,2.646,0,0,1-1.944-.8A2.646,2.646,0,0,1,26.7-41.209ZM42.3-37.55a2.565,2.565,0,0,1,1.753.743,2.46,2.46,0,0,1,.762,1.734v13.645a15.749,15.749,0,0,1-1.41,6.06,2.517,2.517,0,0,1-3.316,1.258A2.836,2.836,0,0,1,38.7-15.52a2.225,2.225,0,0,1-.019-1.906,9.674,9.674,0,0,0,.991-3.85v-13.8a2.438,2.438,0,0,1,.8-1.772A2.6,2.6,0,0,1,42.3-37.55Zm8.614,0a2.565,2.565,0,0,1,1.753.743,2.46,2.46,0,0,1,.762,1.734v14.6a1.55,1.55,0,0,0,.457,1.067q.648.648,2.02.114a18.865,18.865,0,0,0,4.612-3.621,2.93,2.93,0,0,1,1.963-.648,3.087,3.087,0,0,1,1.887.686,2.35,2.35,0,0,1,.762,1.7,2.229,2.229,0,0,1-.762,1.658L59.986-15.6a8.961,8.961,0,0,1-4.345,1.925,7.4,7.4,0,0,1-4.879-1.067q-2.477-1.429-2.477-5.546V-35.073a2.438,2.438,0,0,1,.8-1.772A2.6,2.6,0,0,1,50.915-37.55Zm20.98,11.7a2.464,2.464,0,0,1,.743-1.81,2.464,2.464,0,0,1,1.81-.743H93.582a2.562,2.562,0,0,1,1.829.724,2.562,2.562,0,0,1,.724,1.829,2.464,2.464,0,0,1-.743,1.81,2.464,2.464,0,0,1-1.81.743H74.448a2.372,2.372,0,0,1-1.791-.762A2.372,2.372,0,0,1,71.895-25.849Zm31.232-8.538a2.464,2.464,0,0,1,.743-1.81,2.464,2.464,0,0,1,1.81-.743h17.228a4.272,4.272,0,0,1-.648-2.325,4.077,4.077,0,0,1,1.239-2.992,4.121,4.121,0,0,1,3.03-1.239,4.077,4.077,0,0,1,2.992,1.239,4.077,4.077,0,0,1,1.239,2.992,4.091,4.091,0,0,1-1.22,3.011,5.749,5.749,0,0,1-.762.648,2.262,2.262,0,0,1,.267,1.22l-1.22,8.957a19.975,19.975,0,0,1-1.41,5.107,11.574,11.574,0,0,1-3.068,4.059,7.658,7.658,0,0,1-4.631,1.81H111.55a2.5,2.5,0,0,1-1.734-.743,2.5,2.5,0,0,1-.743-1.734,2.6,2.6,0,0,1,.705-1.829,2.438,2.438,0,0,1,1.772-.8h6.556a3.882,3.882,0,0,0,2.535-1.105,5.509,5.509,0,0,0,1.506-2.344,15.743,15.743,0,0,0,.61-2.878l.686-4.993q.114-.915-.648-.953H105.681a2.372,2.372,0,0,1-1.791-.762A2.372,2.372,0,0,1,103.127-34.386Zm21.191-4.879a2.13,2.13,0,0,0,.648,1.563,2.13,2.13,0,0,0,1.563.648,2.086,2.086,0,0,0,1.525-.648,2.13,2.13,0,0,0,.648-1.563,2.086,2.086,0,0,0-.648-1.525,2.086,2.086,0,0,0-1.525-.648,2.13,2.13,0,0,0-1.563.648A2.086,2.086,0,0,0,124.318-39.265Z" transform="translate(-2.379 51.559)" fill="#3e71be"/>
  <path id="パス_46484" data-name="パス 46484" d="M201.433-30.2a2.464,2.464,0,0,1,.743-1.81,2.464,2.464,0,0,1,1.81-.743H211.3a2.5,2.5,0,0,1,.8-1.677,2.64,2.64,0,0,1,1.829-.686,2.6,2.6,0,0,1,1.753.724,2.538,2.538,0,0,1,.762,1.639h7.28a2.562,2.562,0,0,1,1.829.724,2.562,2.562,0,0,1,.724,1.829,2.464,2.464,0,0,1-.743,1.81,2.464,2.464,0,0,1-1.81.743h-7.28v14.14a2.489,2.489,0,0,1-2.516,2.477,2.668,2.668,0,0,1-1.849-.705,2.286,2.286,0,0,1-.781-1.772v-14.14h-7.318a2.372,2.372,0,0,1-1.791-.762A2.372,2.372,0,0,1,201.433-30.2Zm3.659,4.688a2.565,2.565,0,0,1,1.753.743,2.461,2.461,0,0,1,.762,1.734v4.5a15.749,15.749,0,0,1-1.41,6.06,2.517,2.517,0,0,1-3.316,1.258,2.836,2.836,0,0,1-1.391-1.41,2.225,2.225,0,0,1-.019-1.906,9.674,9.674,0,0,0,.991-3.85v-4.65a2.438,2.438,0,0,1,.8-1.772A2.6,2.6,0,0,1,205.092-25.512Zm17.761,0a2.6,2.6,0,0,1,1.829.705,2.438,2.438,0,0,1,.8,1.772v4.65a9.674,9.674,0,0,0,.991,3.85,2.225,2.225,0,0,1-.019,1.906,2.836,2.836,0,0,1-1.391,1.41,2.517,2.517,0,0,1-3.316-1.258,15.749,15.749,0,0,1-1.41-6.06v-4.5a2.461,2.461,0,0,1,.762-1.734A2.565,2.565,0,0,1,222.853-25.512Zm10.612,2.554a2.464,2.464,0,0,1,.743-1.81,2.464,2.464,0,0,1,1.81-.743h19.133a2.562,2.562,0,0,1,1.829.724,2.562,2.562,0,0,1,.724,1.829,2.464,2.464,0,0,1-.743,1.81,2.464,2.464,0,0,1-1.81.743H236.019a2.372,2.372,0,0,1-1.791-.762A2.372,2.372,0,0,1,233.465-22.959Zm53.605,11.4h-19.9a2.562,2.562,0,0,1-1.829-.724,2.326,2.326,0,0,1-.724-1.829l1.22-8.957a19.975,19.975,0,0,1,1.41-5.107,11.574,11.574,0,0,1,3.068-4.059,7.658,7.658,0,0,1,4.631-1.81h3.507a2.5,2.5,0,0,1,1.734.743,2.5,2.5,0,0,1,.743,1.734,2.6,2.6,0,0,1-.705,1.829,2.438,2.438,0,0,1-1.772.8h-2.9a3.882,3.882,0,0,0-2.535,1.105,5.509,5.509,0,0,0-1.505,2.344,15.749,15.749,0,0,0-.61,2.878l-.686,4.993q-.114.915.648.953H284.25a1.128,1.128,0,0,0,1.258-1.3V-23.8a2.489,2.489,0,0,1,2.516-2.477,2.668,2.668,0,0,1,1.849.705,2.286,2.286,0,0,1,.781,1.772v8.842a3.456,3.456,0,0,1-.953,2.5A3.6,3.6,0,0,1,287.071-11.563Z" transform="translate(-67.432 48.669)" fill="#051a2b"/>
  <path id="パス_46486" data-name="パス 46486" d="M28.773-41.209a2.646,2.646,0,0,1,.8-1.944,2.646,2.646,0,0,1,1.944-.8,2.646,2.646,0,0,1,1.944.8,2.646,2.646,0,0,1,.8,1.944,2.646,2.646,0,0,1-.8,1.944,2.646,2.646,0,0,1-1.944.8,2.646,2.646,0,0,1-1.944-.8A2.646,2.646,0,0,1,28.773-41.209Zm6.556,0a2.646,2.646,0,0,1,.8-1.944,2.646,2.646,0,0,1,1.944-.8,2.646,2.646,0,0,1,1.944.8,2.646,2.646,0,0,1,.8,1.944,2.646,2.646,0,0,1-.8,1.944,2.646,2.646,0,0,1-1.944.8,2.646,2.646,0,0,1-1.944-.8A2.646,2.646,0,0,1,35.329-41.209Z" transform="translate(-11.012 51.559)" fill="#051a2b"/>
</svg>
