<svg xmlns="http://www.w3.org/2000/svg" width="323.352" height="126.319" viewBox="0 0 323.352 126.319">
  <g id="main_title" transform="translate(0 0.5)">
    <text id="求人特集" transform="translate(74 112.819)" fill="#051a2b" font-size="42" font-family="RoundedMplus1c-Medium, 'Rounded Mplus \31 c'" font-weight="500" letter-spacing="0.02em"><tspan x="0" y="0">求人特集</tspan></text>
    <g id="グループ_7311" data-name="グループ 7311">
      <path id="パス_46248" data-name="パス 46248" d="M3.75-30.686a4.558,4.558,0,0,1,1.375-3.349A4.558,4.558,0,0,1,8.474-35.41H43.867a4.74,4.74,0,0,1,3.384,1.34,4.74,4.74,0,0,1,1.34,3.384,4.558,4.558,0,0,1-1.375,3.349,4.558,4.558,0,0,1-3.349,1.375H8.474a4.388,4.388,0,0,1-3.314-1.41A4.388,4.388,0,0,1,3.75-30.686Zm.282,15.793a4.558,4.558,0,0,1,1.375-3.349,4.558,4.558,0,0,1,3.349-1.375H44.149a4.74,4.74,0,0,1,3.384,1.34,4.74,4.74,0,0,1,1.34,3.384A4.558,4.558,0,0,1,47.5-11.544a4.558,4.558,0,0,1-3.349,1.375H34.208a35.646,35.646,0,0,1-1.128,5.5,17.534,17.534,0,0,1-4.618,7.509,12.385,12.385,0,0,1-8.143,3.349H9.038A4.616,4.616,0,0,1,5.83,4.813,4.616,4.616,0,0,1,4.455,1.6a4.809,4.809,0,0,1,1.3-3.384A4.51,4.51,0,0,1,9.038-3.26h8.884A6.272,6.272,0,0,0,22.363-5.3a8.9,8.9,0,0,0,2.256-4.371,2.072,2.072,0,0,1,.071-.494H8.756a4.388,4.388,0,0,1-3.314-1.41A4.388,4.388,0,0,1,4.032-14.893Zm20.484-31.53A4.9,4.9,0,0,1,26-50.019a4.9,4.9,0,0,1,3.6-1.481,4.9,4.9,0,0,1,3.6,1.481,4.9,4.9,0,0,1,1.481,3.6,4.9,4.9,0,0,1-1.481,3.6,4.9,4.9,0,0,1-3.6,1.481A4.9,4.9,0,0,1,26-42.828,4.9,4.9,0,0,1,24.516-46.424Zm14.2,0a4.9,4.9,0,0,1,1.481-3.6A4.9,4.9,0,0,1,43.8-51.5a4.9,4.9,0,0,1,3.6,1.481,4.9,4.9,0,0,1,1.481,3.6,4.9,4.9,0,0,1-1.481,3.6,4.9,4.9,0,0,1-3.6,1.481,4.9,4.9,0,0,1-3.6-1.481A4.9,4.9,0,0,1,38.72-46.424Zm65.2,15.314-1.41,3.666q-3.1,8.038-7.332,12.127a15.588,15.588,0,0,1-7.05,4.089V1.816A4.6,4.6,0,0,1,83.472,6.4a4.935,4.935,0,0,1-3.419-1.3,4.229,4.229,0,0,1-1.445-3.278V-10.945H62.11A4.616,4.616,0,0,1,58.9-12.32a4.616,4.616,0,0,1-1.375-3.208,4.809,4.809,0,0,1,1.3-3.384,4.51,4.51,0,0,1,3.278-1.481H83.543a8.652,8.652,0,0,0,5.041-2.045,12.892,12.892,0,0,0,3.56-4.336,49.727,49.727,0,0,0,2.186-5.182l.846-2.256a6.1,6.1,0,0,1,1.445-2.432,3.985,3.985,0,0,1,2.926-.952,4.421,4.421,0,0,1,3.278,1.41A4.675,4.675,0,0,1,104.2-32.8,4.917,4.917,0,0,1,103.919-31.109Zm8,4.724a4.558,4.558,0,0,1,1.375-3.349,4.558,4.558,0,0,1,3.349-1.375h4.794v-2.468a4.51,4.51,0,0,1,1.481-3.278,4.809,4.809,0,0,1,3.384-1.3,4.744,4.744,0,0,1,3.243,1.375,4.552,4.552,0,0,1,1.41,3.208v2.468h15.652l.353-2.468a5.406,5.406,0,0,1,1.9-3.278,5.327,5.327,0,0,1,3.525-1.3,4.13,4.13,0,0,1,3.067,1.375,4.154,4.154,0,0,1,1.022,3.208l-.353,2.468h4.371a4.74,4.74,0,0,1,3.384,1.34,4.74,4.74,0,0,1,1.34,3.384,4.558,4.558,0,0,1-1.375,3.349,4.558,4.558,0,0,1-3.349,1.375h-5.711l-.987,6.768a36.951,36.951,0,0,1-2.609,9.448,21.41,21.41,0,0,1-5.676,7.509,14.166,14.166,0,0,1-8.566,3.349H125.665a4.616,4.616,0,0,1-3.208-1.375A4.616,4.616,0,0,1,121.082.829a4.809,4.809,0,0,1,1.3-3.384,4.51,4.51,0,0,1,3.278-1.481h10.153a7.181,7.181,0,0,0,4.689-2.045,10.191,10.191,0,0,0,2.785-4.336,29.124,29.124,0,0,0,1.128-5.323l.846-5.922H130.953V-14.4A4.6,4.6,0,0,1,126.3-9.817a4.935,4.935,0,0,1-3.419-1.3,4.229,4.229,0,0,1-1.445-3.278v-7.262h-4.794a4.388,4.388,0,0,1-3.314-1.41A4.388,4.388,0,0,1,111.917-26.386Zm59.255,10.717a4.558,4.558,0,0,1,1.375-3.349,4.558,4.558,0,0,1,3.349-1.375h35.393a4.74,4.74,0,0,1,3.384,1.34,4.74,4.74,0,0,1,1.34,3.384,4.558,4.558,0,0,1-1.375,3.349,4.558,4.558,0,0,1-3.349,1.375H175.9a4.388,4.388,0,0,1-3.314-1.41A4.388,4.388,0,0,1,171.172-15.669Zm59.184-21.645a4.809,4.809,0,0,1,3.384,1.3,4.51,4.51,0,0,1,1.481,3.278v3.314h29.612a4.74,4.74,0,0,1,3.384,1.34,4.74,4.74,0,0,1,1.34,3.384,4.558,4.558,0,0,1-1.375,3.349,4.558,4.558,0,0,1-3.349,1.375H235.221v4.23a25.433,25.433,0,0,0,.388,5.323A8.638,8.638,0,0,0,237.83-6.08a6.272,6.272,0,0,0,4.442,2.045h22.561a4.51,4.51,0,0,1,3.278,1.481,4.809,4.809,0,0,1,1.3,3.384,4.616,4.616,0,0,1-1.375,3.208,4.616,4.616,0,0,1-3.208,1.375H239.874a12.385,12.385,0,0,1-8.143-3.349,17.534,17.534,0,0,1-4.618-7.509,34.241,34.241,0,0,1-1.41-9.448V-32.731a4.552,4.552,0,0,1,1.41-3.208A4.744,4.744,0,0,1,230.356-37.314Zm15.125-3.117a4.9,4.9,0,0,1,1.481-3.6,4.9,4.9,0,0,1,3.6-1.481,4.9,4.9,0,0,1,3.6,1.481,4.9,4.9,0,0,1,1.481,3.6,4.9,4.9,0,0,1-1.481,3.6,4.9,4.9,0,0,1-3.6,1.481,4.9,4.9,0,0,1-3.6-1.481A4.9,4.9,0,0,1,245.481-40.431Zm14.2,0a4.9,4.9,0,0,1,1.481-3.6,4.9,4.9,0,0,1,3.6-1.481,4.9,4.9,0,0,1,3.6,1.481,4.9,4.9,0,0,1,1.481,3.6,4.9,4.9,0,0,1-1.481,3.6,4.9,4.9,0,0,1-3.6,1.481,4.9,4.9,0,0,1-3.6-1.481A4.9,4.9,0,0,1,259.686-40.431Zm19.208,8.969a4.557,4.557,0,0,1,1.375-3.349,4.558,4.558,0,0,1,3.349-1.375h35.393a4.74,4.74,0,0,1,3.384,1.34,4.74,4.74,0,0,1,1.34,3.384,4.866,4.866,0,0,1-.564,2.327l-9.73,16L325.71-1.5q2.75,3.173.07,6.486A5.159,5.159,0,0,1,322.5,6.611a3.923,3.923,0,0,1-3.349-1.2L307.942-5.164a35.143,35.143,0,0,1-6.2,6.2q-5.429,4.089-10.505,4.371H283.9a4.616,4.616,0,0,1-3.208-1.375A4.616,4.616,0,0,1,279.317.829a4.809,4.809,0,0,1,1.3-3.384A4.51,4.51,0,0,1,283.9-4.036h6.627A11.276,11.276,0,0,0,296.1-6.08a19.932,19.932,0,0,0,4.794-4.336,47.819,47.819,0,0,0,3.6-5.323l6.557-11H283.618a4.388,4.388,0,0,1-3.314-1.41A4.388,4.388,0,0,1,278.894-31.462Z" transform="translate(-3.75 51.5)" fill="#051a2b"/>
      <path id="パス_46254" data-name="パス 46254" d="M23.737-46.424a4.9,4.9,0,0,1,1.481-3.6,4.9,4.9,0,0,1,3.6-1.481,4.9,4.9,0,0,1,3.6,1.481,4.9,4.9,0,0,1,1.481,3.6,4.9,4.9,0,0,1-1.481,3.6,4.9,4.9,0,0,1-3.6,1.481,4.9,4.9,0,0,1-3.6-1.481A4.9,4.9,0,0,1,23.737-46.424Zm14.2,0a4.9,4.9,0,0,1,1.481-3.6,4.9,4.9,0,0,1,3.6-1.481,4.9,4.9,0,0,1,3.6,1.481,4.9,4.9,0,0,1,1.481,3.6,4.9,4.9,0,0,1-1.481,3.6,4.9,4.9,0,0,1-3.6,1.481,4.9,4.9,0,0,1-3.6-1.481A4.9,4.9,0,0,1,37.942-46.424ZM170.393-15.669a4.558,4.558,0,0,1,1.375-3.349,4.558,4.558,0,0,1,3.349-1.375H210.51a4.74,4.74,0,0,1,3.384,1.34,4.74,4.74,0,0,1,1.34,3.384,4.558,4.558,0,0,1-1.375,3.349,4.558,4.558,0,0,1-3.349,1.375H175.117a4.388,4.388,0,0,1-3.314-1.41A4.388,4.388,0,0,1,170.393-15.669ZM244.7-40.431a4.9,4.9,0,0,1,1.481-3.6,4.9,4.9,0,0,1,3.6-1.481,4.9,4.9,0,0,1,3.6,1.481,4.9,4.9,0,0,1,1.481,3.6,4.9,4.9,0,0,1-1.481,3.6,4.9,4.9,0,0,1-3.6,1.481,4.9,4.9,0,0,1-3.6-1.481A4.9,4.9,0,0,1,244.7-40.431Zm14.2,0a4.9,4.9,0,0,1,1.481-3.6,4.9,4.9,0,0,1,3.6-1.481,4.9,4.9,0,0,1,3.6,1.481,4.9,4.9,0,0,1,1.481,3.6,4.9,4.9,0,0,1-1.481,3.6,4.9,4.9,0,0,1-3.6,1.481,4.9,4.9,0,0,1-3.6-1.481A4.9,4.9,0,0,1,258.907-40.431Z" transform="translate(-2.972 51.5)" fill="#00b6f1" stroke="#00b6f1" stroke-width="1"/>
    </g>
  </g>
</svg>
