<svg xmlns="http://www.w3.org/2000/svg" width="347.825" height="132.247" viewBox="0 0 347.825 132.247">
  <g id="main_title_grouphome" transform="translate(-217.463 -205.314)">
    <g id="グループ_7312" data-name="グループ 7312" transform="translate(298.178 275.561)">
      <text id="求人特集" transform="translate(0 48)" fill="#051a2b" font-size="45" font-family="RoundedMplus1c-Medium, 'Rounded Mplus \31 c'" font-weight="500" letter-spacing="0.02em"><tspan x="0" y="0">求人特集</tspan></text>
    </g>
    <g id="グループ_7451" data-name="グループ 7451" transform="translate(215.084 201.314)">
      <path id="前面オブジェクトで型抜き_2" data-name="前面オブジェクトで型抜き 2" d="M-2150.042-136.289h-1.866a.505.505,0,0,1-.134-.025.5.5,0,0,0-.133-.025.2.2,0,0,0-.119.038.294.294,0,0,0-.15-.038.8.8,0,0,0-.17.025.8.8,0,0,1-.169.025h-37.363c-.175,0-.352-.012-.524-.023-.139.011-.282.023-.42.023h-1.867a4.669,4.669,0,0,1-4.665-4.664v-13.061c0-.11,0-.226.011-.327v-8.116h-3.736a3.7,3.7,0,0,1-3.738-3.743,3.783,3.783,0,0,1,1.167-2.8l29.9-26.061a3.36,3.36,0,0,1,2.566-.934,3.922,3.922,0,0,1,2.461.817L-2139.221-169a3.16,3.16,0,0,1,1.283,2.8,3.7,3.7,0,0,1-1.122,2.659,3.76,3.76,0,0,1-2.609,1.085h-3.731l.082,18.67a8.349,8.349,0,0,1-.058.944v1.89A4.67,4.67,0,0,1-2150.042-136.289Zm-22.985-29.694c-5.7,0-8.833,2.072-10.453,3.81a13.13,13.13,0,0,0-2.773,5.494,34.034,34.034,0,0,0-1.058,6.683,55.115,55.115,0,0,0,.048,8.02h28.388a32.63,32.63,0,0,0,1.026-5.374,24.568,24.568,0,0,0-1.026-10.877,11.518,11.518,0,0,0-2.693-4.243,10.711,10.711,0,0,0-3.258-2.182,10.979,10.979,0,0,0-3.9-.924A21.938,21.938,0,0,0-2173.028-165.982Z" transform="translate(2488.121 199.994)" fill="#3e71be"/>
      <path id="パス_46483" data-name="パス 46483" d="M17.672-33.531H41.744a3.808,3.808,0,0,1,2.719,1.076,3.457,3.457,0,0,1,1.076,2.719L43.727-16.426a29.685,29.685,0,0,1-2.1,7.59A17.2,17.2,0,0,1,37.071-2.8a11.38,11.38,0,0,1-6.882,2.69H24.979a3.708,3.708,0,0,1-2.577-1.1,3.708,3.708,0,0,1-1.1-2.577,3.864,3.864,0,0,1,1.048-2.719A3.623,3.623,0,0,1,24.979-7.7h4.3A5.769,5.769,0,0,0,33.05-9.346a8.187,8.187,0,0,0,2.237-3.483,23.4,23.4,0,0,0,.906-4.276l1.02-7.42q.17-1.359-.963-1.416H20.277A26.772,26.772,0,0,1,18.748-21.3a17.2,17.2,0,0,1-4.56,6.032,11.38,11.38,0,0,1-6.882,2.69H6.061a3.708,3.708,0,0,1-2.577-1.1,3.708,3.708,0,0,1-1.1-2.577,3.864,3.864,0,0,1,1.048-2.719,3.623,3.623,0,0,1,2.634-1.189H6.4a5.769,5.769,0,0,0,3.767-1.643A8.187,8.187,0,0,0,12.4-25.29a23.4,23.4,0,0,0,.906-4.276v-.283a4.464,4.464,0,0,1,1.529-2.662A4.351,4.351,0,0,1,17.672-33.531Zm11.1-6.344a3.933,3.933,0,0,1,1.189-2.889,3.933,3.933,0,0,1,2.889-1.189,3.933,3.933,0,0,1,2.889,1.189,3.933,3.933,0,0,1,1.189,2.889,3.933,3.933,0,0,1-1.189,2.889A3.933,3.933,0,0,1,32.852-35.8a3.933,3.933,0,0,1-2.889-1.189A3.933,3.933,0,0,1,28.773-39.875Zm9.742,0a3.933,3.933,0,0,1,1.189-2.889,3.933,3.933,0,0,1,2.889-1.189,3.933,3.933,0,0,1,2.889,1.189,3.933,3.933,0,0,1,1.189,2.889,3.933,3.933,0,0,1-1.189,2.889A3.933,3.933,0,0,1,42.594-35.8a3.933,3.933,0,0,1-2.889-1.189A3.933,3.933,0,0,1,38.516-39.875Zm23.191,5.438a3.811,3.811,0,0,1,2.605,1.1,3.656,3.656,0,0,1,1.133,2.577v20.277a23.4,23.4,0,0,1-2.1,9.006A3.741,3.741,0,0,1,58.421.4a4.215,4.215,0,0,1-2.067-2.1,3.306,3.306,0,0,1-.028-2.832A14.377,14.377,0,0,0,57.8-10.252v-20.5a3.623,3.623,0,0,1,1.189-2.634A3.864,3.864,0,0,1,61.707-34.437Zm12.8,0a3.812,3.812,0,0,1,2.605,1.1,3.656,3.656,0,0,1,1.133,2.577V-9.062a2.3,2.3,0,0,0,.68,1.586q.963.963,3,.17t6.854-5.381A4.354,4.354,0,0,1,91.7-13.65a4.588,4.588,0,0,1,2.8,1.02,3.493,3.493,0,0,1,1.133,2.521A3.313,3.313,0,0,1,94.5-7.646L87.988-1.812a13.317,13.317,0,0,1-6.457,2.86,10.99,10.99,0,0,1-7.25-1.586Q70.6-2.662,70.6-8.779V-30.756a3.623,3.623,0,0,1,1.189-2.634A3.864,3.864,0,0,1,74.507-34.437Zm31.177,17.389a3.661,3.661,0,0,1,1.1-2.69,3.661,3.661,0,0,1,2.69-1.1h28.434a3.808,3.808,0,0,1,2.719,1.076,3.808,3.808,0,0,1,1.076,2.719,3.661,3.661,0,0,1-1.1,2.69,3.661,3.661,0,0,1-2.69,1.1H109.48a3.525,3.525,0,0,1-2.662-1.133A3.525,3.525,0,0,1,105.685-17.049ZM152.1-29.736a3.661,3.661,0,0,1,1.1-2.69,3.661,3.661,0,0,1,2.69-1.1h25.6a6.348,6.348,0,0,1-.963-3.455,6.058,6.058,0,0,1,1.841-4.446,6.125,6.125,0,0,1,4.5-1.841,6.058,6.058,0,0,1,4.446,1.841,6.058,6.058,0,0,1,1.841,4.446,6.079,6.079,0,0,1-1.812,4.475,8.541,8.541,0,0,1-1.133.963,3.361,3.361,0,0,1,.4,1.813L188.8-16.426a29.685,29.685,0,0,1-2.1,7.59,17.2,17.2,0,0,1-4.56,6.032,11.38,11.38,0,0,1-6.882,2.69H164.616a3.708,3.708,0,0,1-2.577-1.1,3.708,3.708,0,0,1-1.1-2.577,3.864,3.864,0,0,1,1.048-2.719A3.623,3.623,0,0,1,164.616-7.7h9.742a5.769,5.769,0,0,0,3.767-1.643,8.187,8.187,0,0,0,2.237-3.483,23.4,23.4,0,0,0,.906-4.276l1.02-7.42q.17-1.359-.963-1.416H155.893a3.525,3.525,0,0,1-2.662-1.133A3.525,3.525,0,0,1,152.1-29.736Zm31.492-7.25a3.165,3.165,0,0,0,.963,2.322,3.165,3.165,0,0,0,2.322.963,3.1,3.1,0,0,0,2.266-.963,3.165,3.165,0,0,0,.963-2.322,3.1,3.1,0,0,0-.963-2.266,3.1,3.1,0,0,0-2.266-.963,3.165,3.165,0,0,0-2.322.963A3.1,3.1,0,0,0,183.59-36.986Z" transform="translate(0 59.715)" fill="#3e71be"/>
      <path id="パス_46484" data-name="パス 46484" d="M201.514-27.811a3.661,3.661,0,0,1,1.1-2.69,3.661,3.661,0,0,1,2.69-1.1h10.875a3.716,3.716,0,0,1,1.189-2.492,3.924,3.924,0,0,1,2.719-1.02,3.871,3.871,0,0,1,2.605,1.076,3.772,3.772,0,0,1,1.133,2.436h10.818a3.808,3.808,0,0,1,2.719,1.076,3.808,3.808,0,0,1,1.076,2.719,3.661,3.661,0,0,1-1.1,2.69,3.661,3.661,0,0,1-2.69,1.1H223.83V-3A3.7,3.7,0,0,1,220.092.68a3.965,3.965,0,0,1-2.747-1.048A3.4,3.4,0,0,1,216.184-3V-24.016H205.309a3.525,3.525,0,0,1-2.662-1.133A3.525,3.525,0,0,1,201.514-27.811Zm5.438,6.967a3.812,3.812,0,0,1,2.605,1.1,3.657,3.657,0,0,1,1.133,2.577v6.684a23.4,23.4,0,0,1-2.1,9.006A3.741,3.741,0,0,1,203.666.4,4.215,4.215,0,0,1,201.6-1.7a3.306,3.306,0,0,1-.028-2.832,14.377,14.377,0,0,0,1.473-5.721v-6.91a3.623,3.623,0,0,1,1.189-2.634A3.864,3.864,0,0,1,206.951-20.844Zm26.395,0a3.864,3.864,0,0,1,2.719,1.048,3.623,3.623,0,0,1,1.189,2.634v6.91a14.377,14.377,0,0,0,1.473,5.721A3.306,3.306,0,0,1,238.7-1.7,4.215,4.215,0,0,1,236.631.4,3.741,3.741,0,0,1,231.7-1.473a23.4,23.4,0,0,1-2.1-9.006v-6.684a3.657,3.657,0,0,1,1.133-2.577A3.812,3.812,0,0,1,233.346-20.844Zm15.771,3.795a3.661,3.661,0,0,1,1.1-2.69,3.661,3.661,0,0,1,2.69-1.1h28.434a3.808,3.808,0,0,1,2.719,1.076,3.808,3.808,0,0,1,1.076,2.719,3.661,3.661,0,0,1-1.1,2.69,3.661,3.661,0,0,1-2.69,1.1H252.912a3.525,3.525,0,0,1-2.662-1.133A3.525,3.525,0,0,1,249.117-17.049ZM328.778-.113H299.212a3.808,3.808,0,0,1-2.719-1.076,3.457,3.457,0,0,1-1.076-2.719l1.813-13.311a29.684,29.684,0,0,1,2.1-7.59,17.2,17.2,0,0,1,4.56-6.032,11.38,11.38,0,0,1,6.882-2.69h5.211a3.708,3.708,0,0,1,2.577,1.1,3.708,3.708,0,0,1,1.1,2.577,3.864,3.864,0,0,1-1.048,2.719,3.623,3.623,0,0,1-2.634,1.189h-4.3a5.769,5.769,0,0,0-3.767,1.643,8.187,8.187,0,0,0-2.237,3.483,23.4,23.4,0,0,0-.906,4.276l-1.02,7.42q-.17,1.359.963,1.416h19.881a1.677,1.677,0,0,0,1.869-1.926v-8.666a3.7,3.7,0,0,1,3.738-3.682,3.965,3.965,0,0,1,2.747,1.048,3.4,3.4,0,0,1,1.161,2.634V-5.154a5.136,5.136,0,0,1-1.416,3.71A5.357,5.357,0,0,1,328.778-.113Z" transform="translate(0 59.715)" fill="#051a2b"/>
      <path id="パス_46486" data-name="パス 46486" d="M28.773-39.875a3.933,3.933,0,0,1,1.189-2.889,3.933,3.933,0,0,1,2.889-1.189,3.933,3.933,0,0,1,2.889,1.189,3.933,3.933,0,0,1,1.189,2.889,3.933,3.933,0,0,1-1.189,2.889A3.933,3.933,0,0,1,32.852-35.8a3.933,3.933,0,0,1-2.889-1.189A3.933,3.933,0,0,1,28.773-39.875Zm9.742,0a3.933,3.933,0,0,1,1.189-2.889,3.933,3.933,0,0,1,2.889-1.189,3.933,3.933,0,0,1,2.889,1.189,3.933,3.933,0,0,1,1.189,2.889,3.933,3.933,0,0,1-1.189,2.889A3.933,3.933,0,0,1,42.594-35.8a3.933,3.933,0,0,1-2.889-1.189A3.933,3.933,0,0,1,38.516-39.875Z" transform="translate(0 59.715)" fill="#051a2b"/>
    </g>
  </g>
</svg>
