<svg xmlns="http://www.w3.org/2000/svg" width="287.607" height="27" viewBox="0 0 287.607 27">
  <g id="main_copy" transform="translate(1.237 -3)">
    <text id="未経験でも働きやすい_" data-name="未経験でも働きやすい！" transform="translate(40.716 24)" fill="#051a2b" font-size="20" font-family="RoundedMplus1c-Medium, 'Rounded Mplus \31 c'" font-weight="500"><tspan x="0" y="0">未経験</tspan><tspan y="0">でも</tspan><tspan y="0">働</tspan><tspan y="0">きやすい！</tspan></text>
    <g id="グループ_7348" data-name="グループ 7348" transform="translate(0 7.158)">
      <g id="グループ_7348-2" data-name="グループ 7348" transform="translate(10.13)">
        <path id="パス_46333" data-name="パス 46333" d="M8693.652,679.859l4.364,14.166" transform="translate(-8692.144 -675.628)" fill="none" stroke="#051a2b" stroke-linecap="round" stroke-width="2"/>
        <path id="パス_46334" data-name="パス 46334" d="M0,0V0Z" transform="translate(0.001 0) rotate(-16)" fill="none" stroke="#051a2b" stroke-linecap="round" stroke-linejoin="round" stroke-width="2"/>
      </g>
      <g id="グループ_7349" data-name="グループ 7349" transform="translate(269.13 0)">
        <path id="パス_46333-2" data-name="パス 46333" d="M8698.016,679.859l-4.364,14.166" transform="translate(-8693.651 -675.628)" fill="none" stroke="#051a2b" stroke-linecap="round" stroke-width="2"/>
        <path id="パス_46334-2" data-name="パス 46334" d="M0,.719v0Z" transform="translate(5.674 0.691) rotate(-164)" fill="none" stroke="#051a2b" stroke-linecap="round" stroke-linejoin="round" stroke-width="2"/>
      </g>
      <g id="グループ_7350" data-name="グループ 7350" transform="translate(0 5.269)">
        <path id="パス_46333-3" data-name="パス 46333" d="M8693.651,679.858l4.46,10.1" transform="translate(-8692.111 -676.827)" fill="none" stroke="#051a2b" stroke-linecap="round" stroke-width="2"/>
        <path id="パス_46334-3" data-name="パス 46334" d="M0,0,.059.529Z" transform="translate(0 0.016) rotate(-16)" fill="none" stroke="#051a2b" stroke-linecap="round" stroke-linejoin="round" stroke-width="2"/>
      </g>
      <g id="グループ_7351" data-name="グループ 7351" transform="translate(279.132 5.269)">
        <path id="パス_46333-4" data-name="パス 46333" d="M8698.11,679.858l-4.46,10.1" transform="translate(-8693.65 -676.827)" fill="none" stroke="#051a2b" stroke-linecap="round" stroke-width="2"/>
        <path id="パス_46334-4" data-name="パス 46334" d="M0,.529.059,0Z" transform="translate(5.855 0.525) rotate(-164)" fill="none" stroke="#051a2b" stroke-linecap="round" stroke-linejoin="round" stroke-width="2"/>
      </g>
    </g>
  </g>
</svg>
