<svg xmlns="http://www.w3.org/2000/svg" width="235.514" height="173.996" viewBox="0 0 235.514 173.996">
  <g id="main_title_paidnursing" transform="translate(-572.643 -190.39)">
    <text id="ホーム" transform="translate(608.599 300.386)" fill="#051a2b" font-size="66" font-family="'NicoMoji\+'" letter-spacing="0.06em"><tspan x="0" y="0">ホーム</tspan></text>
    <text id="求人特集" transform="translate(604.9 351.386)" fill="#051a2b" font-size="42" font-family="RoundedMplus1c-Medium, 'Rounded Mplus \31 c'" font-weight="500" letter-spacing="0.02em"><tspan x="0" y="0">求人特集</tspan></text>
    <g id="グループ_7471" data-name="グループ 7471" transform="translate(572.643 190.39)">
      <path id="パス_46489" data-name="パス 46489" d="M41.06-26.555h-18.4c-.414,0-.592-.177-.592-.592v-1.3c0-.414.177-.592.592-.592h18.4c.414,0,.592.177.592.592v1.3C41.651-26.732,41.474-26.555,41.06-26.555ZM3.2-43.947a3.885,3.885,0,0,0,1.183,2.839,3.885,3.885,0,0,0,2.839,1.183h7.335a.273.273,0,0,1,.3.177.264.264,0,0,1,0,.3A45.2,45.2,0,0,1,4.679-26.614a4.113,4.113,0,0,0-1.42,2.78v.473a3.78,3.78,0,0,0,.946,2.544A4.8,4.8,0,0,0,7.223-19.16a1.484,1.484,0,0,0,.592.059,3.993,3.993,0,0,0,2.6-1.006c.651-.532,1.538-1.361,2.721-2.544.059-.059.118-.059.237-.059q.177.089.177.177V-2.952A4.107,4.107,0,0,0,14.795.065a4.107,4.107,0,0,0,3.017,1.242A4.107,4.107,0,0,0,20.828.065a4.107,4.107,0,0,0,1.242-3.017V-9.222c0-.414.177-.592.592-.592h18.4c.414,0,.592.177.592.592v1.538c0,.71-.414,1.065-1.3,1.065h-2.6A2.657,2.657,0,0,0,35.44-5.436a2.747,2.747,0,0,0-.592,1.716,2.452,2.452,0,0,0,.177.946A6.093,6.093,0,0,0,37.037.3a4.452,4.452,0,0,0,3.017,1.124h.3A16.569,16.569,0,0,0,46.679.065,4.894,4.894,0,0,0,49.341-2.6a13.688,13.688,0,0,0,.71-4.91V-31.465a5.021,5.021,0,0,0-1.479-3.549,4.827,4.827,0,0,0-3.549-1.479H23.668a.317.317,0,0,1-.237-.177.222.222,0,0,1,0-.355l1.242-2.425a.944.944,0,0,1,.828-.473H52.477a3.885,3.885,0,0,0,2.839-1.183A3.885,3.885,0,0,0,56.5-43.947a3.885,3.885,0,0,0-1.183-2.839,3.885,3.885,0,0,0-2.839-1.183H28.755a.325.325,0,0,1-.3-.177c-.118-.059-.118-.118-.059-.3l.059-.118a5.276,5.276,0,0,0,.177-1.3,4.387,4.387,0,0,0-.473-2.011,4.258,4.258,0,0,0-2.721-2.011C24.91-53.944,24.5-54,24.319-54a4.608,4.608,0,0,0-2.425.71,5.147,5.147,0,0,0-2.248,2.839c-.118.414-.355,1.065-.651,1.952a.7.7,0,0,1-.71.532H7.223a3.885,3.885,0,0,0-2.839,1.183A3.885,3.885,0,0,0,3.2-43.947ZM22.071-17.5v-1.361c0-.414.177-.592.592-.592h18.4c.414,0,.592.177.592.592V-17.5c0,.414-.177.592-.592.592h-18.4C22.248-16.913,22.071-17.09,22.071-17.5Zm40.98-13.724a3.885,3.885,0,0,0,1.183,2.839,3.885,3.885,0,0,0,2.839,1.183h1.242a.358.358,0,0,1,.355.177c.059.177.118.3.059.355a73.571,73.571,0,0,1-4.141,9.051,9.937,9.937,0,0,0-1.3,4.2,2.438,2.438,0,0,0-.059.71A8.422,8.422,0,0,0,64-9.1a2.1,2.1,0,0,0,1.952,1.42h.3A1.8,1.8,0,0,0,68.02-8.808c1.242-2.662,2.425-5.561,3.49-8.578l.118-.059.059.059V-2.774A3.7,3.7,0,0,0,72.811.006a3.885,3.885,0,0,0,2.839,1.183A3.85,3.85,0,0,0,78.431.006a3.753,3.753,0,0,0,1.183-2.78V-16.913l.118-.177c.059,0,.118,0,.118.059l.769,1.3a3.261,3.261,0,0,0,2.6,1.656c.059.059.177.059.355.059A2.835,2.835,0,0,0,86-15.315l1.42-1.775a.307.307,0,0,1,.237-.118q.177.089.177.177l.355,1.893a4.624,4.624,0,0,0,1.952,3.254,4.681,4.681,0,0,0,2.839.946l.946-.118,10-1.834a.358.358,0,0,1,.355.177.541.541,0,0,1,.177.3v9.7A4.309,4.309,0,0,0,105.643.124a3.885,3.885,0,0,0,2.839,1.183A3.885,3.885,0,0,0,111.322.124,4.309,4.309,0,0,0,112.5-2.715V-13.836a.624.624,0,0,1,.592-.71l2.248-.414a3.751,3.751,0,0,0,2.6-1.656,4.106,4.106,0,0,0,.828-2.366l-.059-.71a4.1,4.1,0,0,0-1.656-2.6,3.641,3.641,0,0,0-2.248-.71,2.206,2.206,0,0,0-.71.118l-1.006.118a.689.689,0,0,1-.414-.118.541.541,0,0,1-.177-.3V-50.868a3.885,3.885,0,0,0-1.183-2.839,3.885,3.885,0,0,0-2.839-1.183,3.885,3.885,0,0,0-2.839,1.183,3.885,3.885,0,0,0-1.183,2.839v29.045a.62.62,0,0,1-.532.71l-15.5,2.78a1.606,1.606,0,0,1-1.006-.355c-.769-1.006-2.13-2.485-4.082-4.555a51.362,51.362,0,0,0-3.668-3.668l-.059-.177a.127.127,0,0,1,.118-.118h4.141a3.753,3.753,0,0,0,2.78-1.183,3.885,3.885,0,0,0,1.183-2.839,3.85,3.85,0,0,0-1.183-2.78,3.753,3.753,0,0,0-2.78-1.183H80.206c-.414,0-.592-.177-.592-.592v-1.124a.273.273,0,0,1,.177-.3.5.5,0,0,1,.355-.118,5.834,5.834,0,0,0,1.42.177,5.134,5.134,0,0,0,2.485-.592,4.981,4.981,0,0,0,2.485-2.9l1.952-6.152a3.281,3.281,0,0,0,.177-1.006,2.9,2.9,0,0,0-.532-1.656A2.858,2.858,0,0,0,86-50.986l-.769-.118a3.476,3.476,0,0,0-1.893.651,3.365,3.365,0,0,0-1.479,2.307c-.651,3.49-1.361,6.744-2.13,9.7,0,.059,0,.059-.059.059l-.059-.118V-50.513a3.753,3.753,0,0,0-1.183-2.78,3.85,3.85,0,0,0-2.78-1.183,3.885,3.885,0,0,0-2.839,1.183,3.7,3.7,0,0,0-1.124,2.78v14.73c0,.414-.177.592-.592.592H67.073a3.885,3.885,0,0,0-2.839,1.183A3.85,3.85,0,0,0,63.051-31.228Zm.3-16.386a4.369,4.369,0,0,0,.118.71,65.622,65.622,0,0,1,1.361,7.927,2.724,2.724,0,0,0,1.183,2.011,2.391,2.391,0,0,0,1.479.532,4.368,4.368,0,0,0,.71-.118,4.42,4.42,0,0,0,2.248-1.538A3.847,3.847,0,0,0,71.1-40.1a1.313,1.313,0,0,0-.059-.532A58.574,58.574,0,0,0,69.5-48.443a2.839,2.839,0,0,0-1.479-1.893,2.607,2.607,0,0,0-1.538-.414c-.177,0-.414.059-.828.118a3.3,3.3,0,0,0-1.834,1.361A3.527,3.527,0,0,0,63.347-47.614ZM153.8-41.7h6.744c.118,0,.177.059.237.177.059.059.059.118-.059.237-1.183,1.183-2.544,2.425-4.023,3.727a1.3,1.3,0,0,1-1.006.414H153.8c-.414,0-.592-.177-.592-.532v-3.431C153.2-41.521,153.382-41.7,153.8-41.7Zm-27.567,8.578a3.885,3.885,0,0,0,1.183,2.839,3.7,3.7,0,0,0,2.78,1.124h14.789c.118,0,.177.059.177.118a.217.217,0,0,1-.059.177,94.219,94.219,0,0,1-16.268,8.4,2.749,2.749,0,0,0-1.952,2.189,2.742,2.742,0,0,0-.118.828,2.811,2.811,0,0,0,.769,2.07,6.377,6.377,0,0,0,3.254,2.248,6.856,6.856,0,0,0,1.656.237,6.963,6.963,0,0,0,2.248-.473c2.78-1.3,4.673-2.248,5.679-2.78a.377.377,0,0,1,.355,0,.273.273,0,0,1,.177.3v4.792c0,3.963.887,6.625,2.662,8.045,1.834,1.479,5.265,2.189,10.352,2.189h12.6c4.082,0,6.98-.769,8.7-2.366a10.117,10.117,0,0,0,2.485-4.792,4.369,4.369,0,0,0,.177-1.124,3.817,3.817,0,0,0-.71-2.13,5.615,5.615,0,0,0-2.839-2.189,2.346,2.346,0,0,0-1.183-.237,3.011,3.011,0,0,0-1.538.414,3.479,3.479,0,0,0-1.775,2.189,6.044,6.044,0,0,1-.473,1.361c-.592.828-1.775,1.242-3.49,1.242h-11.18a10.384,10.384,0,0,1-3.963-.473c-.592-.237-.887-.946-.887-2.189v-1.6a.6.6,0,0,1,.592-.651,191.016,191.016,0,0,0,19.817-5.147,2.553,2.553,0,0,0,1.775-2.07,2.012,2.012,0,0,0,.059-.592,2.562,2.562,0,0,0-.887-2.011,8.117,8.117,0,0,0-3.786-1.834c-.651-.059-1.065-.118-1.3-.118a8.038,8.038,0,0,0-2.839.532,126.75,126.75,0,0,1-12.837,3.963c-.177,0-.355,0-.414-.059a.511.511,0,0,1-.177-.355v-.118a.973.973,0,0,1,.473-.887q4.792-3.194,9.228-6.744a1.606,1.606,0,0,1,1.006-.355h16.09a3.7,3.7,0,0,0,2.78-1.124,3.885,3.885,0,0,0,1.183-2.839,3.885,3.885,0,0,0-1.183-2.839,3.85,3.85,0,0,0-2.78-1.183h-7.513c-.177,0-.237-.059-.237-.118a.26.26,0,0,1,.059-.3,97.929,97.929,0,0,0,7.335-8.7,3.919,3.919,0,0,0,.651-2.13,4.406,4.406,0,0,0-.118-1.065,3.778,3.778,0,0,0-2.07-2.485,4.714,4.714,0,0,0-2.13-.473c-.3,0-.71.059-1.361.118a5.157,5.157,0,0,0-2.958,2.13c-.651.887-1.775,2.307-3.254,4.141,0,.059-.059.059-.118,0l-.118-.118a3.351,3.351,0,0,0-1.006-2.425,3.316,3.316,0,0,0-2.366-1.006H153.8c-.414,0-.592-.177-.592-.532v-1.6a4.2,4.2,0,0,0-1.3-3.135,4.385,4.385,0,0,0-3.194-1.361,4.385,4.385,0,0,0-3.194,1.361,4.2,4.2,0,0,0-1.3,3.135v1.6c0,.355-.177.532-.592.532h-7.986a3.85,3.85,0,0,0-2.78,1.183,3.7,3.7,0,0,0-1.124,2.78,3.7,3.7,0,0,0,1.124,2.78,3.7,3.7,0,0,0,2.78,1.124h7.986c.414,0,.592.177.592.592v3.431c0,.355-.177.532-.592.532H130.193a3.85,3.85,0,0,0-2.78,1.183A3.885,3.885,0,0,0,126.229-33.121Zm80.008-16.859a12.927,12.927,0,0,0-.059,1.656l-.414,4.437c-.237,2.07-.473,3.786-.769,5.147q-.266,1.331-1.242,5.324a47.6,47.6,0,0,1-2.011,5.679q-1.154,2.485-2.839,5.5a34.79,34.79,0,0,1-3.845,5.442,50.892,50.892,0,0,1-5.087,4.91l-2.13,1.716a3.7,3.7,0,0,0-1.42,3.017,3.941,3.941,0,0,0,1.242,2.9l.059.059a6.491,6.491,0,0,0,3.668,1.775,2.041,2.041,0,0,0,.71.059,5.383,5.383,0,0,0,2.958-1.006A52.069,52.069,0,0,0,211.8-27.679c.059-.059.118-.118.177-.118s.118.059.177.118c3.845,10.944,10,19.166,18.338,24.668a4.859,4.859,0,0,0,2.544.71,5.179,5.179,0,0,0,1.183-.118,6.906,6.906,0,0,0,3.49-2.07,3.993,3.993,0,0,0,1.006-2.6l-.059-.473a3.765,3.765,0,0,0-1.6-2.721,30.139,30.139,0,0,1-3.9-2.78,42.011,42.011,0,0,1-6.27-6.389,41.618,41.618,0,0,1-4.5-7.1,59.22,59.22,0,0,1-3.017-7.158,55.167,55.167,0,0,1-1.834-6.921c-.414-1.952-.769-3.963-1.006-5.916l-.355-3.431A5.145,5.145,0,0,0,214.7-53.53a4.606,4.606,0,0,0-3.372-1.42,5.009,5.009,0,0,0-3.549,1.42A5.129,5.129,0,0,0,206.237-49.981Z" transform="translate(-3.2 56.192)" fill="#051a2b"/>
      <path id="パス_46490" data-name="パス 46490" d="M0,4.692A4.525,4.525,0,0,1,1.369,1.369,4.525,4.525,0,0,1,4.692,0,4.525,4.525,0,0,1,8.016,1.369,4.525,4.525,0,0,1,9.384,4.692,4.525,4.525,0,0,1,8.016,8.016,4.525,4.525,0,0,1,4.692,9.384,4.525,4.525,0,0,1,1.369,8.016,4.525,4.525,0,0,1,0,4.692Zm13.13,0A4.525,4.525,0,0,1,14.5,1.369a4.72,4.72,0,0,1,6.647,0,4.525,4.525,0,0,1,1.369,3.324,4.525,4.525,0,0,1-1.369,3.324,4.72,4.72,0,0,1-6.647,0A4.525,4.525,0,0,1,13.13,4.692Z" transform="translate(88.828 30.302) rotate(-90)" fill="#00b6f1" stroke="#00b6f1" stroke-width="1"/>
    </g>
  </g>
</svg>
