<svg xmlns="http://www.w3.org/2000/svg" width="208.47" height="35" viewBox="0 0 208.47 35">
  <g id="paidnursing_ttl" transform="translate(0)">
    <text id="ホーム" transform="translate(122.47 30)" fill="#051a2b" font-size="35" font-family="'NicoMoji\+'" letter-spacing="0.06em"><tspan x="0" y="0">ホーム</tspan></text>
    <g id="グループ_7473" data-name="グループ 7473" transform="translate(-6294 -415.552)">
      <path id="パス_46489" data-name="パス 46489" d="M21.772-41.654H12.747c-.2,0-.29-.087-.29-.29v-.638c0-.2.087-.29.29-.29h9.025c.2,0,.29.087.29.29v.638C22.062-41.741,21.975-41.654,21.772-41.654ZM3.2-50.185a1.906,1.906,0,0,0,.58,1.393,1.906,1.906,0,0,0,1.393.58h3.6a.134.134,0,0,1,.145.087.13.13,0,0,1,0,.145,22.173,22.173,0,0,1-4.991,6.3,2.017,2.017,0,0,0-.7,1.364v.232a1.854,1.854,0,0,0,.464,1.248,2.356,2.356,0,0,0,1.48.813.728.728,0,0,0,.29.029,1.959,1.959,0,0,0,1.277-.493c.319-.261.754-.667,1.335-1.248.029-.029.058-.029.116-.029q.087.044.087.087v9.605a2.015,2.015,0,0,0,.609,1.48,2.015,2.015,0,0,0,1.48.609,2.015,2.015,0,0,0,1.48-.609,2.015,2.015,0,0,0,.609-1.48v-3.076c0-.2.087-.29.29-.29h9.025c.2,0,.29.087.29.29v.754c0,.348-.2.522-.638.522H20.147a1.3,1.3,0,0,0-1.132.58,1.347,1.347,0,0,0-.29.842,1.2,1.2,0,0,0,.087.464,2.989,2.989,0,0,0,.987,1.509,2.184,2.184,0,0,0,1.48.551h.145a8.128,8.128,0,0,0,3.105-.667A2.4,2.4,0,0,0,25.835-29.9a6.715,6.715,0,0,0,.348-2.409V-44.062a2.463,2.463,0,0,0-.725-1.741,2.368,2.368,0,0,0-1.741-.725H13.24a.155.155,0,0,1-.116-.087.109.109,0,0,1,0-.174l.609-1.19a.463.463,0,0,1,.406-.232H27.373a1.906,1.906,0,0,0,1.393-.58,1.906,1.906,0,0,0,.58-1.393,1.906,1.906,0,0,0-.58-1.393,1.906,1.906,0,0,0-1.393-.58H15.736a.16.16,0,0,1-.145-.087c-.058-.029-.058-.058-.029-.145l.029-.058a2.588,2.588,0,0,0,.087-.638,2.152,2.152,0,0,0-.232-.987,2.089,2.089,0,0,0-1.335-.987c-.261-.029-.464-.058-.551-.058a2.26,2.26,0,0,0-1.19.348,2.525,2.525,0,0,0-1.1,1.393c-.058.2-.174.522-.319.958a.341.341,0,0,1-.348.261H5.173a1.906,1.906,0,0,0-1.393.58A1.906,1.906,0,0,0,3.2-50.185Zm9.257,12.971v-.667c0-.2.087-.29.29-.29h9.025c.2,0,.29.087.29.29v.667c0,.2-.087.29-.29.29H12.747C12.544-36.924,12.457-37.011,12.457-37.214Zm20.1-6.732a1.906,1.906,0,0,0,.58,1.393,1.906,1.906,0,0,0,1.393.58h.609a.175.175,0,0,1,.174.087c.029.087.058.145.029.174a36.09,36.09,0,0,1-2.031,4.44,4.875,4.875,0,0,0-.638,2.06,1.2,1.2,0,0,0-.029.348,4.132,4.132,0,0,0,.377,1.77,1.03,1.03,0,0,0,.958.7h.145A.882.882,0,0,0,35-32.948c.609-1.306,1.19-2.728,1.712-4.208l.058-.029.029.029v7.168a1.816,1.816,0,0,0,.551,1.364,1.906,1.906,0,0,0,1.393.58,1.889,1.889,0,0,0,1.364-.58,1.841,1.841,0,0,0,.58-1.364v-6.935l.058-.087c.029,0,.058,0,.058.029l.377.638a1.6,1.6,0,0,0,1.277.813c.029.029.087.029.174.029a1.391,1.391,0,0,0,1.19-.638l.7-.871a.151.151,0,0,1,.116-.058q.087.044.087.087l.174.929a2.268,2.268,0,0,0,.958,1.6,2.3,2.3,0,0,0,1.393.464l.464-.058,4.9-.9a.175.175,0,0,1,.174.087.265.265,0,0,1,.087.145v4.759a2.114,2.114,0,0,0,.58,1.393,1.906,1.906,0,0,0,1.393.58,1.906,1.906,0,0,0,1.393-.58,2.114,2.114,0,0,0,.58-1.393v-5.456a.306.306,0,0,1,.29-.348l1.1-.2a1.84,1.84,0,0,0,1.277-.813,2.014,2.014,0,0,0,.406-1.161l-.029-.348a2.012,2.012,0,0,0-.813-1.277,1.786,1.786,0,0,0-1.1-.348,1.082,1.082,0,0,0-.348.058l-.493.058a.338.338,0,0,1-.2-.058A.265.265,0,0,1,56.819-40V-53.58a1.906,1.906,0,0,0-.58-1.393,1.906,1.906,0,0,0-1.393-.58,1.906,1.906,0,0,0-1.393.58,1.906,1.906,0,0,0-.58,1.393v14.248a.3.3,0,0,1-.261.348l-7.6,1.364a.788.788,0,0,1-.493-.174c-.377-.493-1.045-1.219-2-2.234a25.2,25.2,0,0,0-1.8-1.8l-.029-.087a.062.062,0,0,1,.058-.058h2.031a1.841,1.841,0,0,0,1.364-.58,1.906,1.906,0,0,0,.58-1.393,1.889,1.889,0,0,0-.58-1.364,1.841,1.841,0,0,0-1.364-.58h-1.8c-.2,0-.29-.087-.29-.29v-.551a.134.134,0,0,1,.087-.145.245.245,0,0,1,.174-.058,2.862,2.862,0,0,0,.7.087,2.519,2.519,0,0,0,1.219-.29A2.443,2.443,0,0,0,44.08-48.56l.958-3.018a1.61,1.61,0,0,0,.087-.493,1.422,1.422,0,0,0-.261-.813,1.4,1.4,0,0,0-1.045-.754l-.377-.058a1.705,1.705,0,0,0-.929.319,1.65,1.65,0,0,0-.725,1.132c-.319,1.712-.667,3.308-1.045,4.759,0,.029,0,.029-.029.029l-.029-.058v-5.891a1.841,1.841,0,0,0-.58-1.364,1.889,1.889,0,0,0-1.364-.58,1.906,1.906,0,0,0-1.393.58,1.816,1.816,0,0,0-.551,1.364v7.226c0,.2-.087.29-.29.29H34.533a1.906,1.906,0,0,0-1.393.58A1.889,1.889,0,0,0,32.56-43.946Zm.145-8.038a2.143,2.143,0,0,0,.058.348,32.191,32.191,0,0,1,.667,3.889,1.336,1.336,0,0,0,.58.987,1.173,1.173,0,0,0,.725.261,2.143,2.143,0,0,0,.348-.058,2.168,2.168,0,0,0,1.1-.754,1.887,1.887,0,0,0,.319-.987.644.644,0,0,0-.029-.261,28.733,28.733,0,0,0-.754-3.83A1.392,1.392,0,0,0,35-53.319a1.279,1.279,0,0,0-.754-.2c-.087,0-.2.029-.406.058a1.617,1.617,0,0,0-.9.667A1.73,1.73,0,0,0,32.7-51.984Zm44.37,2.9h3.308c.058,0,.087.029.116.087.029.029.029.058-.029.116-.58.58-1.248,1.19-1.973,1.828a.636.636,0,0,1-.493.2h-.929c-.2,0-.29-.087-.29-.261v-1.683C76.784-49,76.871-49.082,77.074-49.082ZM63.552-44.875a1.906,1.906,0,0,0,.58,1.393,1.816,1.816,0,0,0,1.364.551h7.255c.058,0,.087.029.087.058a.107.107,0,0,1-.029.087,46.22,46.22,0,0,1-7.98,4.121,1.349,1.349,0,0,0-.958,1.074,1.345,1.345,0,0,0-.058.406,1.379,1.379,0,0,0,.377,1.016,3.128,3.128,0,0,0,1.6,1.1,3.363,3.363,0,0,0,.813.116,3.416,3.416,0,0,0,1.1-.232c1.364-.638,2.292-1.1,2.786-1.364a.185.185,0,0,1,.174,0,.134.134,0,0,1,.087.145v2.351c0,1.944.435,3.25,1.306,3.947.9.725,2.583,1.074,5.078,1.074h6.181c2,0,3.424-.377,4.266-1.161A4.963,4.963,0,0,0,88.8-32.542a2.143,2.143,0,0,0,.087-.551,1.872,1.872,0,0,0-.348-1.045,2.754,2.754,0,0,0-1.393-1.074,1.151,1.151,0,0,0-.58-.116,1.477,1.477,0,0,0-.754.2,1.706,1.706,0,0,0-.871,1.074,2.964,2.964,0,0,1-.232.667,2,2,0,0,1-1.712.609H77.51a5.094,5.094,0,0,1-1.944-.232c-.29-.116-.435-.464-.435-1.074v-.784a.3.3,0,0,1,.29-.319,93.7,93.7,0,0,0,9.721-2.525,1.252,1.252,0,0,0,.871-1.016.987.987,0,0,0,.029-.29A1.257,1.257,0,0,0,85.606-40a3.982,3.982,0,0,0-1.857-.9c-.319-.029-.522-.058-.638-.058a3.943,3.943,0,0,0-1.393.261,62.177,62.177,0,0,1-6.3,1.944c-.087,0-.174,0-.2-.029a.251.251,0,0,1-.087-.174v-.058a.477.477,0,0,1,.232-.435q2.351-1.567,4.527-3.308a.788.788,0,0,1,.493-.174h7.893a1.816,1.816,0,0,0,1.364-.551,1.906,1.906,0,0,0,.58-1.393,1.906,1.906,0,0,0-.58-1.393,1.889,1.889,0,0,0-1.364-.58H84.59c-.087,0-.116-.029-.116-.058a.128.128,0,0,1,.029-.145,48.039,48.039,0,0,0,3.6-4.266,1.923,1.923,0,0,0,.319-1.045,2.161,2.161,0,0,0-.058-.522A1.853,1.853,0,0,0,87.347-54.1a2.312,2.312,0,0,0-1.045-.232c-.145,0-.348.029-.667.058a2.53,2.53,0,0,0-1.451,1.045c-.319.435-.871,1.132-1.6,2.031,0,.029-.029.029-.058,0l-.058-.058a1.644,1.644,0,0,0-.493-1.19,1.627,1.627,0,0,0-1.161-.493H77.074c-.2,0-.29-.087-.29-.261v-.784a2.06,2.06,0,0,0-.638-1.538,2.151,2.151,0,0,0-1.567-.667,2.151,2.151,0,0,0-1.567.667,2.06,2.06,0,0,0-.638,1.538v.784c0,.174-.087.261-.29.261H68.166a1.889,1.889,0,0,0-1.364.58A1.816,1.816,0,0,0,66.25-51a1.816,1.816,0,0,0,.551,1.364,1.816,1.816,0,0,0,1.364.551h3.918c.2,0,.29.087.29.29v1.683c0,.174-.087.261-.29.261H65.5a1.889,1.889,0,0,0-1.364.58A1.906,1.906,0,0,0,63.552-44.875Zm39.248-8.27a6.341,6.341,0,0,0-.029.813l-.2,2.176c-.116,1.016-.232,1.857-.377,2.525q-.131.653-.609,2.612a23.356,23.356,0,0,1-.987,2.786q-.566,1.219-1.393,2.7a17.067,17.067,0,0,1-1.886,2.67,24.967,24.967,0,0,1-2.5,2.409l-1.045.842a1.816,1.816,0,0,0-.7,1.48,1.933,1.933,0,0,0,.609,1.422l.029.029a3.184,3.184,0,0,0,1.8.871,1,1,0,0,0,.348.029,2.641,2.641,0,0,0,1.451-.493A25.542,25.542,0,0,0,105.527-42.2c.029-.029.058-.058.087-.058s.058.029.087.058a23.131,23.131,0,0,0,9,12.1,2.383,2.383,0,0,0,1.248.348,2.54,2.54,0,0,0,.58-.058,3.388,3.388,0,0,0,1.712-1.016,1.959,1.959,0,0,0,.493-1.277l-.029-.232a1.847,1.847,0,0,0-.784-1.335A14.785,14.785,0,0,1,116-35.037a20.61,20.61,0,0,1-3.076-3.134,20.416,20.416,0,0,1-2.205-3.482,29.048,29.048,0,0,1-1.48-3.511,27.062,27.062,0,0,1-.9-3.4c-.2-.958-.377-1.944-.493-2.9l-.174-1.683a2.524,2.524,0,0,0-.725-1.741,2.26,2.26,0,0,0-1.654-.7,2.457,2.457,0,0,0-1.741.7A2.516,2.516,0,0,0,102.8-53.145Z" transform="translate(6290.799 475.818)" fill="#051a2b"/>
      <path id="パス_46490" data-name="パス 46490" d="M0,2.3A2.22,2.22,0,0,1,.671.671,2.22,2.22,0,0,1,2.3,0a2.22,2.22,0,0,1,1.63.671A2.22,2.22,0,0,1,4.6,2.3a2.22,2.22,0,0,1-.671,1.63A2.22,2.22,0,0,1,2.3,4.6a2.22,2.22,0,0,1-1.63-.671A2.22,2.22,0,0,1,0,2.3Zm6.441,0A2.22,2.22,0,0,1,7.112.671a2.315,2.315,0,0,1,3.261,0,2.22,2.22,0,0,1,.671,1.63,2.22,2.22,0,0,1-.671,1.63,2.315,2.315,0,0,1-3.261,0A2.22,2.22,0,0,1,6.441,2.3Z" transform="translate(6337.574 434.49) rotate(-90)" fill="#00b6f1"/>
    </g>
  </g>
</svg>
