<svg xmlns="http://www.w3.org/2000/svg" viewBox="0 0 780 128"><title>logo</title><path d="M577.91 58c-8.12 8.68-22.89 18-26.6 18-2.73 0-4.41-2.66-4.41-5.18a4 4 0 0 1 2.52-4c8.26-4.13 11.48-5.74 18.06-11.34 2.45-2.1 3.43-3.08 6.16-5.81a7.77 7.77 0 0 1 6.36-2.92c3.57 0 4.9 1.33 7.7 4.13 8.3 8.26 15.47 12.25 18.3 13.58 1.12.56 5.18 2.52 5.74 2.94a4 4 0 0 1 1.54 3.36c0 2.87-2 5.18-4.48 5.18-4.41 0-19.81-10.57-26.74-18-1-1.19-1.47-1.61-2.1-1.61s-.87.36-2.05 1.67zm-6.3 25.69c0 12-2.94 19.25-8.75 24.57-1.61 1.4-5.88 4.69-9 4.69-3.71 0-4.76-3.43-4.76-5a4.1 4.1 0 0 1 1.9-3.45c6.16-3.78 7.35-4.55 9-7.7 2.24-4.34 2.59-10.36 2.59-13.93v-7.63c0-1.26 0-4.34 4.48-4.34s4.55 2.8 4.55 4.34zm26 25.48c0 1.12 0 4.34-4.41 4.34-3.5 0-4.83-1.33-4.83-4.34v-34c0-1.33.14-4.27 4.34-4.27 3.22 0 4.9 1 4.9 4.27zm26.98-42.26c-1.12 0-3.71 0-3.71-3.71 0-3.43 2-3.78 3.71-3.78h16.17c1.68 0 3.71.28 3.71 3.64 0 3.57-2 3.85-3.71 3.85zm14.14 2.87c1.33 0 2.52.14 3.29 1.61.21-.21.35-.35.91-1a32.48 32.48 0 0 0 5.07-6.77c2-3.43 2.8-3.71 4.13-3.71a2.75 2.75 0 0 1 .91.14c0-.21-.07-.35-.07-.63V58.3h-6.23c-1.68 0-3.71-.56-3.71-3.29 0-3.22 2.87-3.22 3.71-3.22H653V50c0-2.59 2.52-2.8 4.34-2.8.84 0 3.64.14 3.64 2.8v1.75h9.66V50c0-2.52 1.82-2.87 4.41-2.87 1.47 0 3.57.35 3.57 2.87v1.75h5.18c1.82 0 3.64.56 3.64 3.29 0 3.08-2.59 3.22-3.64 3.22h-5.18v1.33c0 2.24-2.1 2.52-4.13 2.52a8.59 8.59 0 0 1-1.82-.21A4.81 4.81 0 0 1 672 64h11.48c1.33 0 2.66.49 2.66 2.45a2.29 2.29 0 0 1-2.66 2.38H671.7v2h10.85c1.26 0 2.17.49 2.17 2.1 0 2-1.4 2-2.17 2H671.7v2h10.78c1.26 0 2.24.49 2.24 2.17 0 2.1-1.61 2.1-2.45 2.1H671.7v2.17h12.81c1.19 0 3 .21 3 2.73s-2.24 2.66-3 2.66H654.2c-6.51 0-7.84-1.47-7.84-7.84V77a3.65 3.65 0 0 1-2.52 1.26 3.51 3.51 0 0 1-2.8-1.54 4.14 4.14 0 0 1-2.31.42h-12.32c-1.54 0-3.71-.21-3.71-3.71s2.66-3.64 3.71-3.64zm-12.32-13.3c-1 0-3.71 0-3.71-3.64s2.45-3.64 3.71-3.64h12.32c1 0 3.71 0 3.71 3.64s-2.38 3.64-3.71 3.64zm0 30.87c-1 0-3.71 0-3.71-3.64s2.52-3.64 3.71-3.64h12.32c1 0 3.71 0 3.71 3.64s-2.66 3.64-3.92 3.64zm20.65 9.24c-.77 0-3.5 0-3.5-3 0-2.66 2-3.08 3.5-3.08H678c1.19 0 5 .07 5 4.13 0 1.47-.42 3.22-2.73 5.39a41.77 41.77 0 0 1-5.74 4.41c1.68.28 9.73 1.12 11 1.75a2.76 2.76 0 0 1 1.75 2.94c0 3.85-3.15 3.85-4.34 3.85-5.46 0-15.19-3-18.27-4.13-8.61 2.73-16.73 4.06-18.9 4.06-3.15 0-3.71-2.1-3.78-3.57-1.12 2.73-3.78 2.8-6.72 2.8H630c-5.88 0-7.28-1.26-7.28-7.28V97.5c0-5.95 1.33-7.28 7.35-7.28h5.18c6 0 7.35 1.26 7.35 7.28v7.35c0 .77-.07 1.68-.14 2.38a3.45 3.45 0 0 1 2.38-1.33c1.68-.28 9.24-1.26 10.71-1.54-2.24-1.33-5.88-3.78-5.88-5.74a2.68 2.68 0 0 1 1-2zm-10.85 2a1.51 1.51 0 0 0-1.68-1.68h-3.08a1.48 1.48 0 0 0-1.68 1.68v4.76a1.48 1.48 0 0 0 1.68 1.68h3.08a1.5 1.5 0 0 0 1.68-1.68zM664 70.9v-2h-8.61c-1.4 0-1.4.91-1.4 2zm0 4.1h-10v2h10zm0 6.23h-10c0 1.26 0 2.17 1.4 2.17h8.6zM663.65 64c1.47-3 2.1-4.2 4.62-4.2a8.84 8.84 0 0 1 2.38.28V58.3H661v1.26c0 2.94-4 2.66-5.46 2.45a3.64 3.64 0 0 1-.07 2zm-7.91 32.55c5.18 3.5 6.93 4.27 9.24 5.11 2.87-1.19 7.7-3.15 7.7-4.62 0-.42-.63-.49-1-.49zm71.4 12.01c-6.44 0-7.84-1.4-7.84-7.84V87c0-6.37 1.33-7.84 7.84-7.84h4.55c6.37 0 7.84 1.4 7.84 7.84v14a49.74 49.74 0 0 0 3.85-3.85c-.28-1.54-1.4-7.77-1.89-20.51h-22a2.91 2.91 0 0 1-2.87-1.47v34.65c0 1.47-.21 3.64-3.36 3.64-2.45 0-3.78-.7-3.78-3.64v-7.49c-.91.28-9.45 2.59-11.27 2.59-2.38 0-3.36-2.59-3.36-4.83 0-2.52 1.19-3.29 3.29-3.57V57.25c-2.17-.21-2.87-2-2.87-3.92 0-3.85 2.38-4 3.85-4h16.17c1.26 0 4.34 0 3.71 5 .28-.28.84-.77 2.66-.77h4.06v-3.24c0-2.66 2-3.29 3.64-3.29s3.71.42 3.71 3.29v3.22h4.48c1.68 0 3.43.42 3.43 3.71 0 3.5-1.68 3.78-3.29 3.85-.42 3.22-.56 4.06-1.26 7.91h5c-.07-5.88-.21-13.09-.21-17.85 0-1.47 0-4.06 3.78-4.06a3.61 3.61 0 0 1 3.22 1.33c.63.91.63 1.54.63 6.16V69h8.47c1.33 0 4.27.07 4.27 3.64 0 2.73-1.19 4-4.27 4H749c.14 4.13.42 7.35.77 10.85.49-1.12 2.66-6.3 3.08-7.14.7-1.33 1.26-1.75 2.45-1.75s4.48.56 4.48 3c0 2-3.57 10.29-8.19 17 .28 1 1.4 4.83 2.87 4.83.7 0 1.19-.7 1.75-2.66.42-1.61.77-2.87 2.59-2.87 1 0 3.78.63 3.78 3.5 0 3.08-2.45 7.35-3.08 8.26-2 2.94-4.06 3.57-6.09 3.57-4.13 0-6.44-3.64-7.84-7.35a66.82 66.82 0 0 1-7 6 4 4 0 0 1-6.37-3.29zm-17.71-51.24h-4.2v7.35h4.2zm0 14.56h-4.2v7.7h4.2zm-4.2 23.52c.91-.14 2.24-.42 4.2-.84v-7.63h-4.2zM722 69a64 64 0 0 0-1.12-8c-3.43-.28-3.08-3.64-2.94-4.48a2.43 2.43 0 0 1-1.4.7v13.19a3 3 0 0 1 2.87-1.4zm3.85 21.35h7v-2.86c0-1.19-.56-1.75-1.68-1.75h-3.64c-1 0-1.68.49-1.68 1.75zm0 6.23v3.29a1.48 1.48 0 0 0 1.68 1.68h3.64c1 0 1.68-.42 1.68-1.68v-3.28zm1-35.49c.14 1.12.84 6.65.84 7.91h2.8a69.84 69.84 0 0 0 1-7.91zm29.61 5.46c-2.1 0-2.31-.84-3.5-4.48-.63-2-2-5.46-2.45-6.79a5.77 5.77 0 0 1-.49-2c0-1.68 2.1-3.08 4.06-3.08s2.38 1.05 3.22 3.08c1.12 2.52 3.36 8.47 3.36 9.8.08 2.71-2.79 3.48-4.12 3.48z" fill="#e2740f"/><path d="M523.82 41.77c-.79-2.35-2-6.1-2.46-7.5l-.14-.42a2.71 2.71 0 0 0-2.74-1.92h-8.42a1.64 1.64 0 0 0-1.5.65 1.69 1.69 0 0 0-.2 1.55c.2.65 1.91 5.75 2.84 8.35a2.92 2.92 0 0 0 3.09 1.89h7.51c1.2 0 1.66-.36 1.91-.7a2 2 0 0 0 .1-1.9m-19.16-7.98a2.67 2.67 0 0 0-2.71-1.79h-8.42a1.64 1.64 0 0 0-1.5.63 1.72 1.72 0 0 0-.21 1.58c.22.68 1.92 5.78 2.84 8.34a2.9 2.9 0 0 0 3.09 1.89h7.56a2.16 2.16 0 0 0 1.88-.69 1.94 1.94 0 0 0 .13-1.91c-.93-2.77-2.51-7.5-2.67-8"/><path d="M182.06 100.55a10.2 10.2 0 1 1-10.22-10.19 10.21 10.21 0 0 1 10.22 10.19m6.09-72.48a7.56 7.56 0 0 0-4.45-10.21c-4.22-1.54-8.36.81-10.53 4.67-3.51 6.25-21.72 40.75-24.77 46.47s-6.9 13.89-10.09 12.65c-2.94-1.14-6.4-13.68-7.88-17.26-2.62-6.36-7.94-13.92-16.82-12-6.79 1.46-10.61 6.8-16.79 18.61-3.37 6.47-5.49 10.74-8.56 14.93-6.26 8.58-9.86-5.55-11.95-12.86-2.8-9.81-7.9-23.69-19-23.68-6.22 0-12.84 3.65-21.09 17-4.84 7.79-16.1 29.61-17.76 33.48-1.77 4.13-.25 8.62 3.89 10.39s8.19-.07 10.62-3.85c7.91-12.29 10.09-17.09 14.13-22.74 4.33-6 10.22-11.4 14.73 3 2.84 9.09 7.79 24 21.14 24.09 8 .06 16.35-6.88 20.24-13.49 4.4-7.48 5.5-11.47 8.85-15.08 1.71-1.84 4.26-2.5 6.67 2.84 2.33 5.16 7.13 21.48 15.7 25 12.09 5 23.47-19.44 27.4-27.23 3.17-6.29 24.94-51.51 26.33-54.81" fill="#209ed8"/><path d="M286.45 35a3.62 3.62 0 0 0-2.65-.91h.06l-73.53.1a2.52 2.52 0 0 0-1.92.86 2.71 2.71 0 0 0-.63 1.76v9.31a2.55 2.55 0 0 0 2.55 2.49h.42l53.59-.07h2.18c1.56 0 2 .28 2.36.76.81 1.06 0 2.75-.14 3.16-3.54 12.8-11.3 22.7-22.43 28.63l-.63.33-.42-.58c-2.74-3.75-4.79-6.34-7.17-9.34l-.34-.45a4.58 4.58 0 0 0-3.3-2h-12.41a1.73 1.73 0 0 0-1.71 1.08 2.11 2.11 0 0 0 .19 1.94 279.89 279.89 0 0 1 24.45 37 3.07 3.07 0 0 0 2.78 1.65h13.46a1.65 1.65 0 0 0 1.51-1 1.85 1.85 0 0 0 0-1.82 109.28 109.28 0 0 0-7.6-12.59l-.45-.67.66-.46c15.73-11.06 30.44-25.15 31.84-57a3 3 0 0 0-.68-2.24M362 34a2.5 2.5 0 0 0-2-.86c-1.41 0-8.11.05-12.2.07a3.49 3.49 0 0 0-2.91 1.93c-7 16-27.23 28-55.06 32.69-1.8.35-2.66 1.41-2.7 2.62v9.62a2.38 2.38 0 0 0 .81 1.85 2.85 2.85 0 0 0 2.25.69c13.46-1.64 23.82-4.31 32-8.07l1.16-.54v34.16a2.56 2.56 0 0 0 2.64 2.56h10.51a2.53 2.53 0 0 0 2.42-2.38l.08-41.72.36-.24C349.86 59.19 359 47.45 362.49 36a2.41 2.41 0 0 0-.44-2m56.26 33.25v-.77l23.5-.06a2.56 2.56 0 0 0 1.8-.77 2.71 2.71 0 0 0 .73-1.72v-9.27a2.53 2.53 0 0 0-2.56-2.58h-23.31v-16.5a2.56 2.56 0 0 0-2.68-2.58h-10.37a2.48 2.48 0 0 0-1.85.8 2.57 2.57 0 0 0-.68 1.74v16.54h-35.25a2.59 2.59 0 0 0-1.93.78 2.64 2.64 0 0 0-.72 1.86v9.38a2.53 2.53 0 0 0 2.62 2.47h.39l34.82-.07-.06.87c-1.24 20.16-10.9 25.92-29.08 29.64-1.58.38-2.49 1.15-2.49 2.53v9.58a2.15 2.15 0 0 0 .81 1.73 2.71 2.71 0 0 0 1.92.61c30.44-4.21 42.86-17 44.41-44.21m104.26-14.57a2.51 2.51 0 0 0-1.66-.69h-.43l-51 .07V35.55a2.58 2.58 0 0 0-.73-1.85 2.68 2.68 0 0 0-2-.78H457a2.54 2.54 0 0 0-2.53 2.57l.08 55.34c0 13.77 5.43 19.57 20.56 19.57h1.21l46-.08a2.55 2.55 0 0 0 2.37-2.48v-9.41a2.55 2.55 0 0 0-2.54-2.57H480c-3.81 0-6.62-.25-8.26-1.58-2-1.71-2.24-4.17-2.2-8V66.39l51.27-.08a2.54 2.54 0 0 0 2.57-2.59v-9.21a2.44 2.44 0 0 0-.78-1.83"/></svg>