<svg id="logo2.svg" xmlns="http://www.w3.org/2000/svg" width="306.751" height="20.5" viewBox="0 0 306.751 20.5"><defs><style>.cls-1{fill:#00abeb}.cls-1,.cls-2,.cls-3{fill-rule:evenodd}.cls-3{fill:#ee7800}</style></defs><path id="シェイプ_1" data-name="シェイプ 1" class="cls-1" d="M887.257 74.9a2.175 2.175 0 1 1-2.179-2.165 2.173 2.173 0 0 1 2.179 2.165m1.3-15.406a1.605 1.605 0 0 0-.949-2.17 1.866 1.866 0 0 0-2.245.993c-.749 1.329-4.631 8.661-5.282 9.877s-1.47 2.953-2.152 2.689c-.626-.243-1.364-2.908-1.679-3.669-.558-1.352-1.692-2.959-3.587-2.55-1.447.31-2.27 1.446-3.58 3.951a23.915 23.915 0 0 1-1.824 3.174c-1.344 1.829-2.1-1.176-2.547-2.73-.6-2.086-1.684-5.036-4.056-5.033-1.326 0-2.739.776-4.5 3.614-1.026 1.655-3.427 6.291-3.781 7.117a1.622 1.622 0 0 0 .829 2.208 1.8 1.8 0 0 0 2.265-.818c1.686-2.612 2.149-3.633 3.012-4.834.924-1.277 2.179-2.423 3.14.648.605 1.932 1.662 5.1 4.507 5.121 1.712.012 3.485-1.462 4.314-2.868a19.949 19.949 0 0 1 1.888-3.2c.365-.391.908-.532 1.421.6.5 1.1 1.521 4.566 3.347 5.322 2.578 1.067 5-4.131 5.841-5.789.677-1.336 5.317-10.95 5.615-11.651" transform="translate(-852.219 -57.219)"/><path id="シェイプ_1_のコピー" data-name="シェイプ 1 のコピー" class="cls-2" d="M960.122 62.406c-.169-.5-.427-1.3-.524-1.594l-.029-.089a.579.579 0 0 0-.584-.409h-1.795a.351.351 0 0 0-.321.138.357.357 0 0 0-.043.33c.042.138.407 1.223.606 1.774a.623.623 0 0 0 .659.4h1.6a.447.447 0 0 0 .407-.15.424.424 0 0 0 .022-.4m-4.087-1.7a.571.571 0 0 0-.578-.39h-1.8a.35.35 0 0 0-.319.134.365.365 0 0 0-.045.335c.046.145.409 1.229.606 1.773a.62.62 0 0 0 .66.4h1.612a.464.464 0 0 0 .4-.148.412.412 0 0 0 .028-.405c-.2-.589-.535-1.6-.569-1.7m-46.521.261a.774.774 0 0 0-.566-.193h.012l-15.676.02a.538.538 0 0 0-.409.184.573.573 0 0 0-.135.374v1.979a.542.542 0 0 0 .543.528h.089l11.426-.015h.464a.522.522 0 0 1 .5.162.765.765 0 0 1-.03.671 9.583 9.583 0 0 1-4.783 6.086l-.134.071-.09-.123c-.583-.8-1.021-1.348-1.529-1.986l-.072-.095a.977.977 0 0 0-.7-.427h-2.646a.367.367 0 0 0-.365.23.445.445 0 0 0 .04.412 59.462 59.462 0 0 1 5.213 7.875.655.655 0 0 0 .592.351h2.87a.351.351 0 0 0 .321-.207.392.392 0 0 0 0-.387 23.079 23.079 0 0 0-1.621-2.676l-.1-.142.141-.1c3.354-2.351 6.491-5.346 6.788-12.122a.626.626 0 0 0-.145-.476m16.118-.226a.534.534 0 0 0-.425-.183c-.3 0-1.729.011-2.6.014a.743.743 0 0 0-.621.41c-1.488 3.4-5.8 5.96-11.739 6.949a.61.61 0 0 0-.574.557v2.046a.507.507 0 0 0 .173.393.61.61 0 0 0 .479.147 23.068 23.068 0 0 0 6.823-1.716l.248-.114.01 7.261a.544.544 0 0 0 .562.544h2.241a.538.538 0 0 0 .516-.506l-.013-8.856.077-.052a12.933 12.933 0 0 0 4.934-6.458.514.514 0 0 0-.094-.432m12 7.077l.009-.165 5.009-.014a.547.547 0 0 0 .385-.164.574.574 0 0 0 .156-.367v-1.969a.537.537 0 0 0-.546-.548h-4.974v-3.509a.545.545 0 0 0-.57-.546h-2.212a.529.529 0 0 0-.395.171.544.544 0 0 0-.145.369v3.517l-7.515.008a.553.553 0 0 0-.413.166.561.561 0 0 0-.153.4v1.978a.54.54 0 0 0 .558.525h.072l7.424-.014-.012.186c-.264 4.286-2.325 5.509-6.2 6.3a.558.558 0 0 0-.53.539v2.036a.458.458 0 0 0 .172.367.581.581 0 0 0 .409.13c6.49-.9 9.137-3.6 9.468-9.4m22.233-3.1a.535.535 0 0 0-.354-.146h-.092l-10.87.016-.006-3.51a.547.547 0 0 0-.155-.394.573.573 0 0 0-.42-.166h-2.095a.541.541 0 0 0-.538.545l.017 11.763c0 2.928 1.158 4.159 4.382 4.159h.258l9.8-.018a.543.543 0 0 0 .5-.528v-2a.544.544 0 0 0-.541-.547l-8.951.009h-.012a2.918 2.918 0 0 1-1.76-.336 1.972 1.972 0 0 1-.47-1.706l-.006-4.229 10.932-.016a.541.541 0 0 0 .548-.55v-1.962a.516.516 0 0 0-.166-.389m63.77 9.358h-.01a1.9 1.9 0 0 1-1.16-.579.279.279 0 0 1 .11-.3.479.479 0 0 1 .19-.1c0-.011.01-.023.01-.034a.1.1 0 0 1 .07-.054l.02-.014a.08.08 0 0 1 .08-.028h.069a.079.079 0 0 1 .08.046.689.689 0 0 0 .69.316c.11 0 .22-.007.32-.014l.14-.008.57.007a4.322 4.322 0 0 1 1.12-.115 4.2 4.2 0 0 1 .67-.115l.53-.038a.967.967 0 0 1 .33-.047h.31l.86-.112a.888.888 0 0 1 .39-.062c.11 0 .23.007.34.013s.19.011.26.011h.04l.52-.041.3-.111a.1.1 0 0 1 .05 0 1.018 1.018 0 0 1 .75.423.149.149 0 0 1 .04.157.112.112 0 0 1-.06.056.675.675 0 0 1-.54.206 3.162 3.162 0 0 1-.41-.038 2.564 2.564 0 0 0-.34-.034l-.4.068h-.45l-.28.028-.91.089c-.13.011-.25.024-.37.037-.22.023-.43.044-.64.055h-.34l-.88.116c-.05.019-.12.042-.19.064a8.616 8.616 0 0 1-1.5.108h-.02l-.34.039h-.01zm19.44 2.61a.087.087 0 0 0-.08-.056.036.036 0 0 1-.02-.018 1.129 1.129 0 0 0-.66-.306l-.11.013a.117.117 0 0 0-.04.014l-.22-.085a.1.1 0 0 0-.09.01.221.221 0 0 0-.03.033.03.03 0 0 0-.02.019 1.774 1.774 0 0 1-.42-.2 10.926 10.926 0 0 1-1.75-1.267c-.12-.087-.24-.174-.36-.256-.34-.315-.7-.631-1.05-.951-.07-.049-.16-.109-.26-.177a2.446 2.446 0 0 1-.6-.462.579.579 0 0 1 .16-.451.09.09 0 0 0 .03-.069 3.606 3.606 0 0 1 .16-.733 2.412 2.412 0 0 0 .11-1.751.728.728 0 0 0-.54-.3.1.1 0 0 0-.07.019c-.03.02-.05.039-.08.055a.545.545 0 0 0-.27.429.1.1 0 0 0 .03.072.079.079 0 0 0 .07.03.473.473 0 0 1 .25.385 1.987 1.987 0 0 1-.12.86l-.17.663a3.592 3.592 0 0 1-.21.344c-.05.1-.1.212-.15.324a2.124 2.124 0 0 1-.26.51c-.07.093-.15.172-.22.254-.04.042-.08.085-.12.131a.016.016 0 0 0-.01.017.091.091 0 0 0-.05.081.558.558 0 0 1-.19.273.822.822 0 0 0-.07.077c-.07.071-.13.141-.19.212a8.151 8.151 0 0 1-.73.744c-.13.11-.28.214-.41.314a5.193 5.193 0 0 0-.65.534.148.148 0 0 0-.07.158.075.075 0 0 1-.01.049v.084a.092.092 0 0 0 .09.091.136.136 0 0 0 .06.019 1.744 1.744 0 0 0 .59-.283c.07-.041.15-.082.19-.107 0 0 .01.006.01.01a3.282 3.282 0 0 0 .43-.259.051.051 0 0 0 .02-.025c.01-.007.01-.014.02-.022a1.064 1.064 0 0 0 .39-.294 1.05 1.05 0 0 1 .12-.112 5.677 5.677 0 0 0 .6-.616c.04-.056.11-.157.19-.285a2.853 2.853 0 0 1 .6-.737 1.117 1.117 0 0 1 .75.526 1.432 1.432 0 0 1 .37.3s.01 0 .01-.007c.06.056.17.137.35.27.1.076.21.155.24.188a.709.709 0 0 1 .13.219 1.066 1.066 0 0 0 .15.157.126.126 0 0 1 .04.037h.01a.663.663 0 0 1 .07.036 6.951 6.951 0 0 0 1.86 1.371l.2.159a.127.127 0 0 0 .03.016c.12.037.23.073.36.112a3.143 3.143 0 0 0 .64.06c.07 0 .13 0 .19-.005a1.806 1.806 0 0 0 .25-.039 1.512 1.512 0 0 1 .3-.039h.03a.08.08 0 0 0 .09-.072l.03-.134a.4.4 0 0 0 .06-.05.09.09 0 0 0 .029-.092zm8.77-2.6a1.351 1.351 0 0 1-.23-.228 1.8 1.8 0 0 0-.13-.129c-.09-.055-.18-.11-.26-.166h-.01a2.387 2.387 0 0 1-.71-1.521 2.7 2.7 0 0 1-.01-.291 1.483 1.483 0 0 0-.07-.6v-.02a.09.09 0 0 0-.09-.091.751.751 0 0 0-.57.244s-.01.025-.01.029a.051.051 0 0 0-.02.028 2.273 2.273 0 0 0-.09.525 1.833 1.833 0 0 1-.07.428 3.715 3.715 0 0 1-.32.759l-.06.1a1.136 1.136 0 0 0-.18.407.03.03 0 0 0-.02.017.016.016 0 0 0-.01.018.069.069 0 0 0-.05.061 2.019 2.019 0 0 1-.41.558c-.04.042-.07.081-.11.121l-.77 1.092-.53.507-.09.078a1.123 1.123 0 0 0-.25.229 1.407 1.407 0 0 1-.68-.448 2.574 2.574 0 0 1-.4-.758 3.246 3.246 0 0 1 .25-2.574l.27-.455.02-.059a1.734 1.734 0 0 1 1.04-1.114.087.087 0 0 0 .06-.084.523.523 0 0 0-.49-.471 1.046 1.046 0 0 1-.11-.038.091.091 0 0 0-.09.015.929.929 0 0 1-.54.257.708.708 0 0 1-.1-.008.388.388 0 0 0-.18.059l-.05.028a1.08 1.08 0 0 1-.31.044h-.04a1.862 1.862 0 0 1-.46-.1 1.959 1.959 0 0 0-.49-.1.539.539 0 0 0-.52.345.089.089 0 0 0-.01.086.083.083 0 0 0 .07.04.219.219 0 0 1 .04.053.489.489 0 0 0 .11.111l.35.155a1.937 1.937 0 0 0 .59.079c.17 0 .34-.014.5-.028l.07-.006-.21.449-.04.067a4.582 4.582 0 0 0-.58 2.037.194.194 0 0 0-.04.111l-.01.023v.067c-.01.061-.01.2-.02.315.02.1.03.2.06.3.02.052.04.136.05.174a.444.444 0 0 0 .03.085l.04.127a2.757 2.757 0 0 0 1.53 1.94.607.607 0 0 0 .2.03 1.127 1.127 0 0 0 .51-.117 1.814 1.814 0 0 0 .44-.435c.07-.078.13-.155.2-.224a2.5 2.5 0 0 1 .19-.186 2.782 2.782 0 0 0 .43-.484c.08-.128.15-.257.23-.386l.31-.413a8.049 8.049 0 0 0 .57-.741 2.116 2.116 0 0 0 .2-.362 2.669 2.669 0 0 1 .23-.386 1.861 1.861 0 0 1 .19.273c.05.072.09.143.14.209a2.666 2.666 0 0 0 .22.224 1 1 0 0 1 .32.415.082.082 0 0 0 .09.075.682.682 0 0 1 .31.072.757.757 0 0 0 .61 0 .1.1 0 0 0 .06-.085v-.27a.09.09 0 0 0-.081-.07zm8.2-2.8l-.15-.376a.336.336 0 0 0-.22-.161l-.03-.013a.089.089 0 0 0-.04-.008l-.15-.02a5.564 5.564 0 0 0-.5-.056.083.083 0 0 0-.09.076.011.011 0 0 0-.01.012.219.219 0 0 0 .01.221l.019.051.03.074a.218.218 0 0 1 .01.192 2.85 2.85 0 0 1-.92.617c-.11.057-.21.108-.28.148a4.748 4.748 0 0 0-.61.439.535.535 0 0 0-.31.077h-.01a6.585 6.585 0 0 0-.5-.952l-.18-.207c-.05-.079-.1-.163-.15-.248a2.2 2.2 0 0 0-.34-.511l-.32-.257a1.347 1.347 0 0 0-.49-.162 2.159 2.159 0 0 1-.23-.049.089.089 0 0 0-.08.015.045.045 0 0 0-.03.038l-.07.02h-.08a.09.09 0 0 0-.09.091.588.588 0 0 0 .5.538.923.923 0 0 1 .27.141 4.243 4.243 0 0 1 1.09 2.131l-.1.014v.006a.363.363 0 0 1-.1.088s-.01.009-.01.012a.355.355 0 0 1-.15.1 2.824 2.824 0 0 1-.26.231c-.06.052-.12.1-.15.128a1.911 1.911 0 0 0-.75 1.429v.157a.76.76 0 0 0 .09.478 1.364 1.364 0 0 0 .59.631v.006a.166.166 0 0 0 .03.025.277.277 0 0 1 .08.019.17.17 0 0 0 .06-.019.919.919 0 0 0 .66.3 1.515 1.515 0 0 1 .2.043.431.431 0 0 1 .06.029.279.279 0 0 1 .12.025 5.475 5.475 0 0 1 .77.085c.09-.006.19-.006.32 0 .11 0 .23.007.36.007a1.513 1.513 0 0 0 1.21-.345.589.589 0 0 0 .01-.566.22.22 0 0 0-.26-.179 1.914 1.914 0 0 0-.69.192 2.606 2.606 0 0 1-1.67.062c-.02 0-.05 0-.07.007a2.528 2.528 0 0 1-.27-.1.588.588 0 0 1-.17-.07.53.53 0 0 1-.26-.086h-.01c-.01 0-.02-.024-.03-.036s-.02-.014-.03-.023a.186.186 0 0 1-.04-.058c-.01-.011-.02-.021-.03-.034a1.062 1.062 0 0 1-.29-.388.786.786 0 0 1 .03-.368l.02-.081a2.29 2.29 0 0 1 1.05-1.155l.43-.17a.123.123 0 0 0 .03-.024c.08-.084.15-.168.23-.253l.01-.019a.959.959 0 0 1 .19-.117 2.446 2.446 0 0 1 .35-.243l.06-.061 1.66-.935a2.17 2.17 0 0 0 .31-.233 2.093 2.093 0 0 1 .32-.238.093.093 0 0 0 .05-.108zm11.87 3.727l.01-.041a.092.092 0 0 0 0-.088.1.1 0 0 0-.08-.04.958.958 0 0 0-.45.413c-.07.073-.13.153-.18.205l-.17-.926a8.706 8.706 0 0 1-.1-1.1 4.146 4.146 0 0 1 .02-.638c.01-.062.03-.127.04-.193a1.645 1.645 0 0 0 .03-.625.859.859 0 0 0 .16-.475 1.091 1.091 0 0 1 .11-.373.015.015 0 0 1 .01-.016c0-.006-.01-.012 0-.018a.647.647 0 0 1 .02-.131 1.2 1.2 0 0 1 .02-.191.431.431 0 0 0-.32-.595.094.094 0 0 0-.11.051l-.01.027h-.03c-.02.017-.02.034-.04.05l-.06.075a.064.064 0 0 1-.03.024.7.7 0 0 1-.12.232.817.817 0 0 0-.16.3l-.09.642a12.4 12.4 0 0 0-.24 1.65 1.647 1.647 0 0 0 .02.318.824.824 0 0 1 .02.152c.02.186.03.371.05.555.02.4.05.807.1 1.216a1.485 1.485 0 0 0 .07.3.817.817 0 0 1 .06.434v.024a.3.3 0 0 0 .17.23l.06.049.02.018a.528.528 0 0 0 .35.215.2.2 0 0 0 .07-.013 3.394 3.394 0 0 0 .81-1.391.528.528 0 0 0-.021-.303zm4.86-3.834a.1.1 0 0 0-.08-.031l-.02-.018a1.208 1.208 0 0 0-.64-.274l-.07-.008a.505.505 0 0 1-.05.012c-.1.01-.21.013-.31.018l-.01.006h-.03c-.08 0-.16.007-.24.008a.026.026 0 0 0-.02.012.109.109 0 0 0-.04.006.129.129 0 0 0-.03.02c-.05.018-.19.05-.29.072a2.641 2.641 0 0 0-.36.09l-.52.046a.076.076 0 0 0-.03.01l-.34.179a.661.661 0 0 0-.42.374.562.562 0 0 0 .19.438.078.078 0 0 0 .07.031.027.027 0 0 0 .01 0l.09-.02a2.53 2.53 0 0 0 .31-.16 1.926 1.926 0 0 1 .37-.183h.08a3.74 3.74 0 0 1 1.04-.2h.01a.59.59 0 0 1 .16-.019.5.5 0 0 1 .11.01.167.167 0 0 1 .07.084c.01.019.03.038.04.058a.169.169 0 0 0 .18.109 1.511 1.511 0 0 0 .4-.1l.07-.025a.1.1 0 0 0 .04 0 .422.422 0 0 0 .26-.4l.02-.064a.1.1 0 0 0-.011-.058zm.34 4.728a.153.153 0 0 1-.01-.063h-.01a1.294 1.294 0 0 1-.05-.194.017.017 0 0 1-.01 0 .173.173 0 0 1-.03-.043l-.02-.028a.092.092 0 0 0-.11-.035l-.1.037-.36-.019a.079.079 0 0 0-.05.017l-.03-.008-.38-.022c-.07-.008-.14-.022-.22-.036a2.511 2.511 0 0 0-.83-.052.278.278 0 0 0-.11-.072l-.02-.01c-.05-.029-.11-.057-.17-.085a1.742 1.742 0 0 1-.52-.334 1.433 1.433 0 0 1-.11-.157.686.686 0 0 0-.26-.282l-.19-.09a.091.091 0 0 0-.11.033l-.11.159a.056.056 0 0 0-.01.055 1.7 1.7 0 0 0 .35.806.186.186 0 0 0 .05.049.242.242 0 0 1 .08.1c.06.041.12.085.18.118.01 0 .01.005.01.008a.029.029 0 0 0 .02-.006 1.852 1.852 0 0 0 .75.28c.08.019.16.038.22.054l.15.057c.1 0 .21.013.32.024l.08.01c.21.023.42.051.63.076l.11-.005a1.671 1.671 0 0 1 .43.047c.07.013.14.027.21.038h.01a.106.106 0 0 0 .07-.023.065.065 0 0 0 .02-.072.176.176 0 0 1 .11-.117.116.116 0 0 0 .04-.083.48.48 0 0 0-.011-.109zm3.73-4.221a.182.182 0 0 0 .13-.048.917.917 0 0 0 .17-.537.3.3 0 0 1 .01-.1l.11-.512a.9.9 0 0 0-.69-.774.046.046 0 0 0-.06.029l-.04.115v.014a.5.5 0 0 0 .1.262.719.719 0 0 1 .09.182 1.8 1.8 0 0 1 0 .233.756.756 0 0 0 0 .26.835.835 0 0 0-.18.39c-.02.053-.04.1-.05.119v.019a.475.475 0 0 0 .419.374zm6.73 1.343l-.071-.017a.027.027 0 0 0-.02 0h-.08a.044.044 0 0 0-.04.045v.055a.175.175 0 0 0-.04-.023.286.286 0 0 0-.05-.034.038.038 0 0 0-.04 0 .043.043 0 0 0-.03.039h-.03a2.25 2.25 0 0 1-.45-.021 2.216 2.216 0 0 0-.56-.01.026.026 0 0 0-.01.005s-.27-.035-.35-.041a.484.484 0 0 1-.1-.013c0-.007.01-.013.01-.019a.057.057 0 0 0 .03-.038.039.039 0 0 0 0-.046.17.17 0 0 0-.05-.028.25.25 0 0 1-.02-.031 1.076 1.076 0 0 0-.47-.374 1.642 1.642 0 0 1-.32-.2.034.034 0 0 0-.03-.011h-.1a.714.714 0 0 0-.06-.04 1.488 1.488 0 0 0-.52-.3 2.48 2.48 0 0 1 .71-.161.106.106 0 0 0 .02 0l.31-.12c.04-.006.09-.01.14-.013a.68.68 0 0 0 .45-.135.216.216 0 0 0 .04-.178V71.3l-.11-.2a.362.362 0 0 0-.28-.134 1.112 1.112 0 0 0-.42.122 1.35 1.35 0 0 1-.2.076.771.771 0 0 1-.13.021l-.37.044a.106.106 0 0 0-.07.006.033.033 0 0 0-.02-.008 1.349 1.349 0 0 0-.28.037v-.041a1.289 1.289 0 0 1-.01-.2 1.119 1.119 0 0 0-.02-.26c-.02-.062-.04-.116-.05-.16a.43.43 0 0 1-.04-.1.111.111 0 0 1 .06-.008 1.246 1.246 0 0 1 .18.018.448.448 0 0 0 .19-.057.433.433 0 0 1 .16-.054l.96-.047.78.063h.05a1.026 1.026 0 0 1 .39.052h.04a.411.411 0 0 1-.05.092l-.03.044a.052.052 0 0 1-.02-.02.046.046 0 0 0-.03-.014.377.377 0 0 0-.23.137.564.564 0 0 1-.08.07l-.33.143a.043.043 0 0 0-.03.042 1.216 1.216 0 0 0 .16.222.029.029 0 0 0 .01.038.043.043 0 0 0 .03.017.552.552 0 0 0 .16-.034.392.392 0 0 1 .21-.022 1.3 1.3 0 0 1 .21-.073.4.4 0 0 1 .07 0 .162.162 0 0 0 .05-.032.409.409 0 0 1 .06-.027 3.12 3.12 0 0 0 .8-.428.072.072 0 0 0 .06-.026.1.1 0 0 0 .01-.074.029.029 0 0 1-.01-.027.883.883 0 0 0-1.01-.619h-.07a.04.04 0 0 0-.04.04.024.024 0 0 1-.02 0 .826.826 0 0 1-.13-.021.688.688 0 0 0-.14-.022h-.02a.064.064 0 0 0-.03.013.974.974 0 0 1-.2-.039 4.076 4.076 0 0 1-.41-.019v.009a.426.426 0 0 1-.11-.012h-.03c-.11 0-.23 0-.35-.008s0 0-.01 0l-.12-.007h-.01a.409.409 0 0 1-.28-.029v.006h-.01a.377.377 0 0 1-.19-.275.733.733 0 0 0-.11-.236 2.454 2.454 0 0 0-1.34-.481.055.055 0 0 0-.05.037.511.511 0 0 0 .27.544.364.364 0 0 1 .2.489v.071l-.38.025a.353.353 0 0 1-.1.024h-.14a1.058 1.058 0 0 1-.2.015.855.855 0 0 0-.27.062 1.248 1.248 0 0 0-.99.364.031.031 0 0 0-.01.028.157.157 0 0 0 .08.134.4.4 0 0 1 .03.028.553.553 0 0 0 .4.155 1.693 1.693 0 0 0 .52-.117 2.18 2.18 0 0 1 .34-.094l.6-.056v.093a2.152 2.152 0 0 1-.07.736.016.016 0 0 0-.01.017.192.192 0 0 1-.03 0 .489.489 0 0 0-.08.048v.026h-.05a.337.337 0 0 1-.04.009 1.078 1.078 0 0 1-.46.058 2.008 2.008 0 0 1-.39.026 1.2 1.2 0 0 0-.31.022.043.043 0 0 0-.03.043.505.505 0 0 0 .15.334.592.592 0 0 0 .52.16.9.9 0 0 0 .15.009l.31.005a.032.032 0 0 1-.01.028.621.621 0 0 0-.31.3.7.7 0 0 1-.1.139.883.883 0 0 1-.14.118.848.848 0 0 0-.23.246c-.01 0-.01.007-.01.011l-.02.066v.013a.365.365 0 0 0 .14.231c.01.005.01.01.02.016l-.24.069-.27.024a.025.025 0 0 0-.01 0l-.13.034a.849.849 0 0 0-.28.039c-.1 0-.9.108-.96.1a1.27 1.27 0 0 0-.28-.012 1.546 1.546 0 0 0-.26.055 1.576 1.576 0 0 1-.2.048 1.041 1.041 0 0 0-.43.115.237.237 0 0 0-.26.131c-.01 0-.01.006-.01.009a.339.339 0 0 0 .02.258.37.37 0 0 1 .02.079.04.04 0 0 0 .04.039.365.365 0 0 1 .13.028.564.564 0 0 0 .17.035h.01a5.78 5.78 0 0 0 1.06-.166 6.752 6.752 0 0 1 .81-.148c.14-.015.28-.022.44-.029a3.628 3.628 0 0 0 1.03-.147.087.087 0 0 0 .03-.024c.01 0 .02.006.04.01a.281.281 0 0 0 .07.016l.35.007c.06-.011.12-.027.18-.042a1.339 1.339 0 0 1 .33-.056h.03c.13 0 .26.012.38.023a2.635 2.635 0 0 0 .66 0 .97.97 0 0 0 .17.338.922.922 0 0 1 .15.251 11.456 11.456 0 0 1 .03 2.475.753.753 0 0 1-.32-.026 1.408 1.408 0 0 0-.3-.042.715.715 0 0 0-.2.027.043.043 0 0 0-.03.044v.077a.044.044 0 0 0 .04.046 1.056 1.056 0 0 1 .29.224.236.236 0 0 0 .04.042 2.49 2.49 0 0 0 .78.465.113.113 0 0 0 .02 0 .033.033 0 0 0 .02-.007.046.046 0 0 0 .02-.033.21.21 0 0 1 .05-.058.452.452 0 0 0 .16-.252 10.029 10.029 0 0 0 .03-1.342c0-.185-.01-.369-.01-.55 0-.084.01-.17.01-.255a3.549 3.549 0 0 0-.08-.984 1.1 1.1 0 0 0-.18-.345l-.03-.045.28-.07a8.836 8.836 0 0 1 1.84.074l.13.013a1.212 1.212 0 0 1 .25.038.066.066 0 0 0 .07-.023.2.2 0 0 0 .04-.153v-.051a.574.574 0 0 0-.5-.594zm-2.49.019a2.774 2.774 0 0 0-1 .154.441.441 0 0 0-.13-.01 2.1 2.1 0 0 0-.25.011.263.263 0 0 1-.14-.024.582.582 0 0 0-.24.042.976.976 0 0 0-.26 0h-.03a.269.269 0 0 0-.03-.05.1.1 0 0 1-.02-.045c.02-.059.34-.456.51-.669.07-.091.13-.168.17-.214l.48.208.47.356a1.4 1.4 0 0 0 .24.1.726.726 0 0 1 .31.154zm-1.5.946a.043.043 0 0 0-.05.014.049.049 0 0 0 0 .052l.07.117a.573.573 0 0 1-.11-.033.385.385 0 0 0-.36.041l-.68.076h-.08a.047.047 0 0 0-.02 0l-.03.014a.145.145 0 0 0-.12.017l-.37.077a.683.683 0 0 0-.37-.114h-.02a.114.114 0 0 0-.1.143v.016a1.125 1.125 0 0 0 .13.474 1.665 1.665 0 0 1 .1.275c0 .038.01.119.02.222.06.592.14 1.17.42 1.169a.245.245 0 0 0 .12-.033.353.353 0 0 0 .13-.335.171.171 0 0 0 .1-.143l.2.012a1.538 1.538 0 0 0 .21-.036.857.857 0 0 1 .43-.02h.02a1.139 1.139 0 0 0 .61-.248v-.01l.09-.234v.017a.206.206 0 0 0-.04-.116.135.135 0 0 1-.02-.087l.23-.408a.6.6 0 0 0-.01-.475.868.868 0 0 0-.491-.426zm-.26.82a2.5 2.5 0 0 1-.18.267.237.237 0 0 0-.16.033.375.375 0 0 1-.11.034.353.353 0 0 0-.19.084.407.407 0 0 1-.09.054l-.41-.02a.461.461 0 0 0-.02-.119.3.3 0 0 1-.02-.208s.01-.01.01-.015V74.9a.357.357 0 0 0 .19-.044.579.579 0 0 0 .06-.024.1.1 0 0 0 .01.007.288.288 0 0 0 .07.007 3.483 3.483 0 0 0 .82-.175l.11.022c-.011.032-.041.074-.081.132zm75.5.3a1.946 1.946 0 0 0-1.54-.734 1.582 1.582 0 0 0-.56 1.232 1.371 1.371 0 0 0 .05.286c.01.032.03.067.04.1l.03.029c.02.02.03.043.05.065a1.607 1.607 0 0 0 .24.266 2.1 2.1 0 0 0 .44.129.305.305 0 0 1 .14-.036h.13a.931.931 0 0 1 .23-.006.863.863 0 0 1 .21-.058c.06-.058.17-.1.22-.142a2.069 2.069 0 0 0 .46-.679.545.545 0 0 0-.131-.429zm-.54.23a1.17 1.17 0 0 1-.44.573l-.41.082c0-.073-.07-.111-.08-.2a.836.836 0 0 1 .39-.69l-.08-.27a1.124 1.124 0 0 1 .66.5h-.04zm-3.51-2.709a1.289 1.289 0 0 0-.86-.412.035.035 0 0 0-.03.013.038.038 0 0 0-.01.033.953.953 0 0 0 .05.251.025.025 0 0 1 .01.023.633.633 0 0 0-.15.1c-.04.026-.07.051-.09.062l-.69.326-.41.19a2.341 2.341 0 0 0-.21.127 1.39 1.39 0 0 1-.5.233.994.994 0 0 1-.36-.484 2.1 2.1 0 0 0-.19-.331 2.154 2.154 0 0 0-.7-.523V72.2a.412.412 0 0 0 .23-.294 3.766 3.766 0 0 1 .43-.484.715.715 0 0 1 .24-.064 1.346 1.346 0 0 0 .16-.031 4.42 4.42 0 0 1 1.18-.2.053.053 0 0 0 .03-.013.049.049 0 0 0 .02-.033.586.586 0 0 0-.54-.66.051.051 0 0 0-.04.008.148.148 0 0 0-.02.02 1.986 1.986 0 0 1-.64.189.033.033 0 0 1-.02 0 .11.11 0 0 1-.08-.095c-.02-.03-.03-.062-.05-.092a.088.088 0 0 1 .03-.056.47.47 0 0 0 .06-.074.713.713 0 0 0-.02-.349v-.005a1.27 1.27 0 0 0-.89-.854.033.033 0 0 0-.03.01.048.048 0 0 0-.02.034.834.834 0 0 0 .11.478 1.867 1.867 0 0 1 .1.269.83.83 0 0 1-.07.479 1.73 1.73 0 0 0-.03.087.476.476 0 0 1-.16.253.928.928 0 0 1-.4.06 4.347 4.347 0 0 1-.62-.052.486.486 0 0 1-.08-.012l-.45-.219a1.288 1.288 0 0 1-.21-.157 1.96 1.96 0 0 0-.31-.218.193.193 0 0 0-.1-.041.346.346 0 0 1-.1-.034.048.048 0 0 0-.03-.013h-.04a.061.061 0 0 0-.05.041 1.556 1.556 0 0 1-.02.215v.016a.974.974 0 0 0 .49.456.116.116 0 0 0 .05.046c.01.007.04.021.05.027a.081.081 0 0 0 .02.037.015.015 0 0 0 .01.016l.12.087c.09.044.23.1.45.193.08.032.15.059.17.072h.02a.948.948 0 0 1 .65.23.021.021 0 0 1 .01.02l-.29.463a2.186 2.186 0 0 1-.8.546.048.048 0 0 0-.04.045.58.58 0 0 0 .15.424.479.479 0 0 0 .34.138.657.657 0 0 0 .59-.4l.24.034a.842.842 0 0 1 .48.5.738.738 0 0 0 .11.221.522.522 0 0 1 .1.425 1.627 1.627 0 0 1-.8.58 3.5 3.5 0 0 0-.33.17l-.39.263-.32.152a.918.918 0 0 0-.3.64 2.757 2.757 0 0 0 .06.312 1.447 1.447 0 0 0 .87.959 1.755 1.755 0 0 0 .66.1 1.506 1.506 0 0 0 .25-.017h.19a.118.118 0 0 0 .04-.013v.009c.02.005.05.018.08.029h.12v-.015a.171.171 0 0 0 .02.006.677.677 0 0 0 .36-.027c.05-.012.09-.023.13-.03l.69-.114.47-.136a.473.473 0 0 0 .43-.307.288.288 0 0 0-.14-.337.315.315 0 0 0-.18-.041 3.017 3.017 0 0 0-.98.286 1.565 1.565 0 0 0-.62.115h-.52a2.011 2.011 0 0 1-.84-.124.485.485 0 0 1-.3-.485 1.1 1.1 0 0 1 .59-.7.282.282 0 0 1 .07-.046.727.727 0 0 0 .11-.058.356.356 0 0 1 .13-.067v-.03c.11-.038.21-.077.32-.116l.14-.05a.058.058 0 0 0 .04.022.025.025 0 0 1-.01.023v.209c0 .3-.01.632.36.691a.31.31 0 0 0 .3-.084 1.169 1.169 0 0 0 .1-.793 1.307 1.307 0 0 1-.01-.389.053.053 0 0 0-.01-.039 2.83 2.83 0 0 1 .3-.267.637.637 0 0 1 .21-.122c.06 0 1.06-.524 1.21-.616.01 0 .02 0 .03-.006a2.108 2.108 0 0 1 .44-.156 2.746 2.746 0 0 1 .29-.1h.01a.606.606 0 0 1 .16-.113.489.489 0 0 0 .21-.164.228.228 0 0 0 .019-.247zm-9.28-1.893c0 .075.14-.022.19-.039 0-.1-.01-.208 0-.308a1.638 1.638 0 0 1-.53-.712l-.28-.293a1.147 1.147 0 0 0-.62-.152l-.04.077c-.07 0 0 .134.02.181.209.424.749 1.383 1.269 1.269zm-2.97 5.186a.5.5 0 0 1 .04-.038c0-.008-.01-.016-.01-.023.14 0 .04-.322.04-.424 0-.054-.07-1.37-.09-1.469l-.03-.4a.963.963 0 0 0-.73-.325 2.4 2.4 0 0 1-.85.2l-.31-.12-.23.077.09.7c.03.236 0 .448.02.686l.09.936a2.437 2.437 0 0 0-.06.6.259.259 0 0 0 .24.2l.04-.193a1.529 1.529 0 0 0 1.08-.192 3.483 3.483 0 0 0 .41-.058.779.779 0 0 0 .25-.173zm-1.06-2.117a1.111 1.111 0 0 0 .36-.141.716.716 0 0 1 .23.578.284.284 0 0 0-.16.077 1.229 1.229 0 0 0-.69.231h-.12c.009-.424-.061-.582.389-.721zm-.42 2.017a.963.963 0 0 1 .08-.693.381.381 0 0 1 .19-.077.69.69 0 0 1 .35-.039 1.319 1.319 0 0 0 .27-.27.482.482 0 0 1 .15.423c.009.714-.551.519-1.031.679zm5.18 1.118a1.124 1.124 0 0 0 .12-.732 7.621 7.621 0 0 1-.51-.848h-.07a2.3 2.3 0 0 0-.2.732s-.44-.46-.47-.518-.32-.511-.38-.6a1.1 1.1 0 0 0-.07-.466.873.873 0 0 1 .19-.459.22.22 0 0 1 .04-.116V73.6s.16-.378.19-.424a.464.464 0 0 0-.41-.3 1.561 1.561 0 0 0-.44.494v.193h-.08a1.4 1.4 0 0 0-.23-.655 1.078 1.078 0 0 1-.04-.462.3.3 0 0 1 .1-.2 1.424 1.424 0 0 1 .6-.119 7.328 7.328 0 0 1 1.12-.181.784.784 0 0 0-.46-.54.788.788 0 0 1-.39.193h-.19l-.43.116a.509.509 0 0 0-.38.038.168.168 0 0 1-.13-.077 3.954 3.954 0 0 0-.03-.77l-.15-.582c-.04-.129 0-.324-.03-.453a1.8 1.8 0 0 0-1.25-1.509c-.23.37.11.52.28.752a1.118 1.118 0 0 1 .18.442.367.367 0 0 1 0 .231.271.271 0 0 0-.23-.026.966.966 0 0 1-.45.044 1.015 1.015 0 0 1-.31-.344 1.215 1.215 0 0 0-.94-.522h-.08a.945.945 0 0 0 .42.622 2.194 2.194 0 0 0 .32.342l-.04.115-.39.116a2.311 2.311 0 0 0-.81.193.407.407 0 0 0-.35.1c-.08.209.29.349.43.372a1.881 1.881 0 0 0 .77-.132c.31-.073.6-.125.89-.189l.08.039v-.111c0-.011.29 0 .38-.013a.776.776 0 0 1 .38-.032 1.519 1.519 0 0 1 .25.932 1.546 1.546 0 0 0 .15.462c-.05 0-.04-.013-.08.077l-.15-.039a1.188 1.188 0 0 0-.01-.46.927.927 0 0 0-.96-.5c-.07 0 .04.155.07.2a.464.464 0 0 1 .08.612l-.18.361a1.542 1.542 0 0 1-.9.293c-.09 0 .09-.07.12-.077a.672.672 0 0 0-.15-.462c.03-.327-.2-.8-.61-.647a1.114 1.114 0 0 0 .09.9.794.794 0 0 0 .28.288v.077l-.11.039c-.52 0-.84.373-.74-.324v-.338a1.543 1.543 0 0 0-.62-1.5l.04-.077c0-.067.1-.039.16-.036a.374.374 0 0 0 .45-.2c.06-.272-.24-.358-.47-.354a.293.293 0 0 1-.1.02h-.06c-.01 0-.02 0-.03-.006a4.278 4.278 0 0 0-.76.109l-.23.077a6.151 6.151 0 0 0-1.16.232l-.74.038v.154a.988.988 0 0 0 .47.193.858.858 0 0 1 .6.886l-.05.344c.04.276.02.55.04.849a2.336 2.336 0 0 1 .03.647.3.3 0 0 1-.2.2 4.526 4.526 0 0 0 .23.431l.03.647a2.319 2.319 0 0 0-.02.695.211.211 0 0 1-.15.133.725.725 0 0 1-.9-.017.333.333 0 0 0-.23-.039h-.08a1.273 1.273 0 0 0 1.12.82 2.284 2.284 0 0 0 .46-.2.356.356 0 0 1 .11-.1.634.634 0 0 1 .08-.032.291.291 0 0 1 .13-.118.3.3 0 0 1 .07-.064.466.466 0 0 1 .19-.07h.01a3 3 0 0 1 .36-.136.26.26 0 0 1 .12-.062c.01-.028.29-.135.33-.187.08 0 .08.123.09.186.17.565-.2 1.909.8 1.626a.725.725 0 0 0 0-.347 1.344 1.344 0 0 0-.08-.27 5.447 5.447 0 0 1-.04-1.657.22.22 0 0 1-.05-.12 6.183 6.183 0 0 0-.03-1.421 2.517 2.517 0 0 0 .42.082 2.223 2.223 0 0 1 1.05-.2l.28-.132c.27-.1.55-.13.83-.218a1.665 1.665 0 0 1 .75-.227.092.092 0 0 1 .08.076 6.124 6.124 0 0 1 .32 1.077l.22.669a.938.938 0 0 1-.02.291 1.532 1.532 0 0 1-.47.66.984.984 0 0 0-.29.156c-.06 0-.03.022-.01.064.18.369.73.173.95-.024a1.172 1.172 0 0 0 .15-.309.756.756 0 0 0 .19.252c.25.4.53.785.77 1.174l.06.064a2.638 2.638 0 0 0 .65.681l.41.1a1.141 1.141 0 0 0 .049-.308zm-8.46-6.474l.27-.091a4.775 4.775 0 0 0 .85-.178.949.949 0 0 1 .31.925.363.363 0 0 1-.23.077 2.828 2.828 0 0 0-.64.14l-.13-.016a4.33 4.33 0 0 1-.421-.834zm1.42 3.865a2.111 2.111 0 0 1-.84.451c0-.066-.11-.011-.16 0a1.18 1.18 0 0 1 .32-1.26c.14-.071.31-.057.46-.128l.19.039a.708.708 0 0 1 .07.385 1.232 1.232 0 0 1-.031.536zm.01-1.9c-.1.484-.43.306-.74.541l-.31-.038a2.951 2.951 0 0 1 .11-.862 6.505 6.505 0 0 1 .82-.371.461.461 0 0 1 .16.384 1.345 1.345 0 0 1-.031.368zm-4.94-1.94v-.1c-.02 0-.02 0-.05-.04a.376.376 0 0 0-.35-.308l-.04.038c0 .016-.33.082-.38.116a2.072 2.072 0 0 0-.81.193h-.04a.151.151 0 0 1-.05.021.261.261 0 0 1-.15.045c-.02.006-.04.006-.05.01a.3.3 0 0 1-.11.036.57.57 0 0 0-.18.08l-.58-.116c0 .109-.17.385.07.424a.088.088 0 0 1 .07.085c.01.009.03.015.04.025a.036.036 0 0 1 .02.011.2.2 0 0 1 .09.043l.55.044a5.429 5.429 0 0 0 1.02-.346c.32-.1.63-.14.93-.264zm1.23 5.967l-.37-.572a4.8 4.8 0 0 0-1.03-1.638.934.934 0 0 0-.3-.082 2.457 2.457 0 0 0-.47-.077l.04.192c-.07 0 .04.117.06.161a3.069 3.069 0 0 1 .24.357c.09.27-.27.223-.45.254 0 0-.66.078-.74.076v-.054a5.976 5.976 0 0 0 .549-.869l.12-.56c0-.073.1-.062.15-.077l.03-.233-.22-.423.39-.115s.81-.035.96-.077c.07 0 .68-.094.78-.115a.538.538 0 0 0-.78-.386h-.35c0 .06-.81.075-1 .193l-.46.036a1.073 1.073 0 0 0-.62.041h-.12l-.15.039a1.809 1.809 0 0 1-.86.064 3.636 3.636 0 0 1-.05-.789c-.23-.424-1.35-.494-1.84-.431l.12-.54c0-.062.06-.054.12-.062a2.492 2.492 0 0 0 1.35-.361c-.14 0-.57-.326-.77-.384h-.01a.355.355 0 0 1-.22.085.462.462 0 0 1-.05.009.7.7 0 0 1-.34.136.071.071 0 0 1-.08-.039 1.364 1.364 0 0 0-1.2-1.349c.07.323.32.441.39.731a1.19 1.19 0 0 1 .02.7 4.425 4.425 0 0 1-1.57 0l-.01-.029a.962.962 0 0 0-.12-.028l-.02.057-.01.006a.179.179 0 0 1-.02.073.427.427 0 0 1 .34.345 3.085 3.085 0 0 1 .69.129 1.559 1.559 0 0 1 .58.1.128.128 0 0 0 .12-.027.8.8 0 0 1-.04.643h-1.24a.763.763 0 0 0-.34.018 11.863 11.863 0 0 0 .34 2.295.163.163 0 0 1 .13.158.49.49 0 0 0 .26.43c.37.226.54-.115.93-.009a.407.407 0 0 1 .09.348.26.26 0 0 1-.05.178 4.214 4.214 0 0 1-1.2.167l-.2.038-.77.077a1.011 1.011 0 0 0-.39.116v.154a4.986 4.986 0 0 1 .55.251 1.857 1.857 0 0 0 .66-.082l.72-.1a2.052 2.052 0 0 0 .62-.1l.07.348.06.619a1.962 1.962 0 0 0 .04.645 1.758 1.758 0 0 0 .38.276h.15s.05-.076.08-.038c.21 0 .13-.337.04-.424 0 .024-.09-.466-.12-.655v-.54c0-.046-.01-.084.04-.077a.112.112 0 0 1 .12-.1l.33-.051.33-.126c.32-.061.64-.067.96-.149v-.083c-.16 0-.35-.29-.55-.34a.961.961 0 0 0-.38.071.633.633 0 0 0-.39.153.921.921 0 0 1-.44-.1.5.5 0 0 1-.03-.595 1.925 1.925 0 0 1 .97-.183.88.88 0 0 1 .32-.046.506.506 0 0 1 .07-.172.478.478 0 0 0-.04-.29.192.192 0 0 0 .04-.231l.08-.231a1.83 1.83 0 0 1 .19-.231v-.079a.167.167 0 0 0 .13.1l.34.148a1.785 1.785 0 0 0 .89-.167.693.693 0 0 1 .46.115.454.454 0 0 1-.06.3l-.28.593c-.11.25-.18.513-.31.75l-.21.3a1.734 1.734 0 0 1-.31.44l-.26.122a.643.643 0 0 0-.42.116 2.9 2.9 0 0 0 .4.456.953.953 0 0 0 .37.033 2.957 2.957 0 0 0 .81-.272 4.049 4.049 0 0 1 .53-.129 3.066 3.066 0 0 1 1.4-.242 2.3 2.3 0 0 0 .47.771.545.545 0 0 0 .92.231c-.06-.004-.04-.022-.07-.063zm-7.12-2.6l-.34.036c-.34-.025-.34-.4-.35-.691l.66.038.05.159.02.342zm-.34-1.194l-.4-.022a.5.5 0 0 1-.05-.573 1.128 1.128 0 0 1 .37-.1l.35.038.15.038a.551.551 0 0 1-.411.641zm1.8.459a.754.754 0 0 1-.24.47l-.25.112h-.35a.3.3 0 0 1-.07-.193v-.056a.643.643 0 0 0 0-.308c-.07 0 .09-.059.15-.039a.657.657 0 0 1 .43-.193c.09.013.17.019.3.039.089.001.039.132.039.189zm.13-.575l-.39-.13c-.22-.056-.49.02-.51-.258a.28.28 0 0 1 .03-.182 1.151 1.151 0 0 1 .41-.2c.18.029.35.011.54.039a5.289 5.289 0 0 1-.071.753zm-7.22.4a.267.267 0 0 1-.04-.016 1.215 1.215 0 0 0-.44-.168v.011a2.2 2.2 0 0 0-.8-.15h-.04a1.777 1.777 0 0 1-.2 0h-.19a.076.076 0 0 0-.05.022.974.974 0 0 0-.3-.027h-.14a1.215 1.215 0 0 1 .48-.687 2.673 2.673 0 0 0 .27-.284 5.093 5.093 0 0 0 .41-.636c.04-.057.07-.114.11-.171l.21-.364.02-.063a1 1 0 0 0 .08-.562.5.5 0 0 0-.08-.137.215.215 0 0 1-.07-.167.05.05 0 0 0-.02-.033.046.046 0 0 0-.03-.014.184.184 0 0 1-.11-.065.343.343 0 0 0-.15-.088.053.053 0 0 0-.04.009.051.051 0 0 0-.02.035.115.115 0 0 1-.07.042.353.353 0 0 0-.06.029.309.309 0 0 1-.1.089.412.412 0 0 1-.2.09c-.04.007-.08.011-.12.016a.275.275 0 0 1-.22.087.609.609 0 0 1-.1-.013h-.31a1.871 1.871 0 0 1-.65-.074.45.45 0 0 1-.14-.123c-.04-.036-.07-.073-.12-.111l-.39-.191a.047.047 0 0 0-.04 0 .114.114 0 0 0-.03.031.873.873 0 0 0 .24.9.649.649 0 0 1 .08.066 1.362 1.362 0 0 1 .24.228 1.078 1.078 0 0 0 .45.138 2.527 2.527 0 0 0 .37-.081c.01 0 .01-.006.01-.01a1.2 1.2 0 0 1 .16.008c.03 0 .06.006.09.007a.528.528 0 0 0 .19-.046.389.389 0 0 1 .22-.034h.04v.025a2.627 2.627 0 0 0-.27.39v.015a10.279 10.279 0 0 1-1.29 1.511.88.88 0 0 1-.1.115.818.818 0 0 1-.32.411 1.423 1.423 0 0 1-.17.15v.026a1.014 1.014 0 0 1-.46.471 1.351 1.351 0 0 0-.45.4.105.105 0 0 0-.07.05l-.01.013a.8.8 0 0 0-.28.513l.02.306a.1.1 0 0 0 .07.109c.02.007.03.011.03.019a.321.321 0 0 0 .37.143.054.054 0 0 0 .01-.005l.05-.034a.216.216 0 0 0 .02-.009l.38-.449c.11-.09.22-.159.32-.226a3.1 3.1 0 0 0 .26-.168l.32-.278a2.228 2.228 0 0 1 .39-.2c.2-.082.62-.325.62-.325h.05c.01 0 .01-.005.01-.007a.767.767 0 0 1 .19-.036.211.211 0 0 1 .09.01 8.755 8.755 0 0 1 .91-.051h.03a.058.058 0 0 0 .02-.019l.03.012a2.171 2.171 0 0 0 .26.075.893.893 0 0 1 .51.244.256.256 0 0 1 .11.134.191.191 0 0 0 .05.027s.14.3.15.3a.321.321 0 0 1-.01.137v.041l-.09.56a1.831 1.831 0 0 1-.64.753.269.269 0 0 1-.09.016 1.092 1.092 0 0 1-.6-.4 2.1 2.1 0 0 0-.29-.271 2.56 2.56 0 0 0-.65-.3c-.53-.171-.65.056-.82.425 0 0-.1.395-.11.5a1.575 1.575 0 0 0 .18 1.318.45.45 0 0 0 .3.088 2.523 2.523 0 0 0 .44-.056 1.118 1.118 0 0 1 .44-.033.067.067 0 0 0 .05-.006.053.053 0 0 0 .02-.037s.34-.07.36-.077a.819.819 0 0 1 .13-.031.239.239 0 0 0 .14-.058.212.212 0 0 1 .07-.038c.04-.012.09-.022.13-.032a2.331 2.331 0 0 0 .61-.339.025.025 0 0 0 .02 0 .625.625 0 0 0 .27-.308.032.032 0 0 0 .02.021 3.329 3.329 0 0 0 .4-.493 1.271 1.271 0 0 0 .21-.323.269.269 0 0 1 .02-.092 2.251 2.251 0 0 0-.751-2.101zm-1.34 3a.317.317 0 0 0-.08-.047.049.049 0 0 0-.04 0l-.24.1a.476.476 0 0 0-.28.115l-.02.015c-.01 0-.01 0-.01.006s-.01-.009-.02-.013a.143.143 0 0 0-.11.017c-.01 0-.06.016-.08.023h-.17a1.125 1.125 0 0 1 .01-.311.681.681 0 0 0 .02-.221.205.205 0 0 1 .15-.137.39.39 0 0 0 .07-.039.928.928 0 0 0 .3.116.587.587 0 0 1 .33.165.044.044 0 0 0 .03.016.083.083 0 0 0 .08-.038.031.031 0 0 1 .02.01.471.471 0 0 1 .05.229.123.123 0 0 1-.001.012zm-9.45-6.379a.024.024 0 0 0-.01.024c-.01.033-.02.09.44.265a.018.018 0 0 0 .01 0 1 1 0 0 1 .33.151 1.185 1.185 0 0 0 .47.193.151.151 0 0 0 .12-.055.266.266 0 0 0 .03-.3 2.824 2.824 0 0 0-1.56-.893.055.055 0 0 0-.05.025.545.545 0 0 0 .229.608zm3.97 6.875a.576.576 0 0 0-.4-.431.038.038 0 0 0-.04.034.328.328 0 0 1-.12.013h-.05c-.01 0-.01 0-.01.007a.685.685 0 0 1-.18.041.277.277 0 0 1-.03.015.338.338 0 0 0-.09.044l-.29-.02-.35.048-.46.012a.774.774 0 0 1-.93-1.014 2.765 2.765 0 0 0-.01-.292 1.524 1.524 0 0 0-.47-1.047 3.79 3.79 0 0 1 .29-.422c.38-.538.91-1.274.71-1.708a.775.775 0 0 0-.71-.334.057.057 0 0 0-.03.009 1.325 1.325 0 0 1-.7.261 3.279 3.279 0 0 0-.56.231 2.309 2.309 0 0 0-.73.137 1.209 1.209 0 0 0-.2.112.544.544 0 0 1-.34.114h-.14a.121.121 0 0 0-.14.079.52.52 0 0 0 .12.452.625.625 0 0 0 .45.289h.03a.807.807 0 0 0 .34-.144 1.243 1.243 0 0 1 .18-.1.118.118 0 0 0 .03-.037.082.082 0 0 0 .04 0l.32-.121.49-.131.32-.128.08-.014a1.691 1.691 0 0 0 .29-.073 10.594 10.594 0 0 1-1.06 1.618l-.12.033a.086.086 0 0 0-.03.032 2.249 2.249 0 0 1-.58.9c-.08.093-.17.189-.25.288-.05.067-.1.137-.16.208-.13.162-.26.33-.39.471a.036.036 0 0 0-.01.031.97.97 0 0 0 .44.653.05.05 0 0 0 .05 0 .034.034 0 0 0 .02-.04 8.851 8.851 0 0 1 1.05-1.248l.32-.2c.04-.035.07-.072.11-.109a.751.751 0 0 1 .26-.2.109.109 0 0 1 .01.057.036.036 0 0 1 .01.024l.03.49a2.737 2.737 0 0 0 .37 1.134.963.963 0 0 0 .51.378 2.642 2.642 0 0 0 .84.1c.27 0 .53-.019.75-.033.14-.01.26-.018.34-.018a.391.391 0 0 1 .08.006c.01 0 .02-.011.03-.014s.05-.021.07-.034a.4.4 0 0 1 .06-.018.106.106 0 0 1 .13-.083h.17a.065.065 0 0 0 .05.02.255.255 0 0 0 .13-.136.071.071 0 0 0 .04-.031.1.1 0 0 0-.05-.1c.02-.01.03-.021.05-.032a.053.053 0 0 0 .029-.011zm-23.71-3.867a.9.9 0 0 0 .24-.318c0-.017.01-.031.01-.047a.185.185 0 0 0-.02-.106.125.125 0 0 0-.1-.126l-.03-.013a.1.1 0 0 0-.09.016.1.1 0 0 0-.04.073.254.254 0 0 0-.03.04l-.03.021a.407.407 0 0 0-.19.189.108.108 0 0 0-.08.039.628.628 0 0 0-.23.082l-.06.032c0-.088.12-.519.13-.6l.04-.518.13-.353a1.881 1.881 0 0 0 .04-.233 2.561 2.561 0 0 1 .05-.3.966.966 0 0 0 .05-.165 1.449 1.449 0 0 0 .09-.9.022.022 0 0 0-.01-.022l-.23-.376a.09.09 0 0 0-.12-.031.666.666 0 0 0-.42.632 1.643 1.643 0 0 1-.07.33.252.252 0 0 1-.04.145c.01.01.01.021.02.03a.387.387 0 0 0-.07.155l-.01.025a2.377 2.377 0 0 0-.12.585c-.02.094-.03.188-.05.278l-.15.616v.049l.02.527a3.44 3.44 0 0 0-.02.453l.01.13c0 .049-.01.1-.01.156a1.126 1.126 0 0 0 .03.45.8.8 0 0 0 .34.339.032.032 0 0 0 .02.022.809.809 0 0 0 .12-.01.453.453 0 0 1 .07 0 .166.166 0 0 1 .03-.015.275.275 0 0 0 .16-.1 3.892 3.892 0 0 0 .36-.678 1.076 1.076 0 0 1 .269-.485zm2.12-2.563a1.155 1.155 0 0 0-.36-.3l-.02-.013a.107.107 0 0 0-.1 0 .073.073 0 0 0-.03.042l-.13.025a.091.091 0 0 0-.08.089.993.993 0 0 0 .13.437 1.286 1.286 0 0 1 .08.18 6.436 6.436 0 0 1 .27 1.21 4.863 4.863 0 0 1-.01 1.268l-.01.048c0 .032-.01.064-.01.095a2.018 2.018 0 0 1-.01.649.824.824 0 0 1 .01.153 1.435 1.435 0 0 0 .01.2l-.15 1.058-.09.477-.03.288a5.58 5.58 0 0 1-.47 1.191l-.03.022a.3.3 0 0 0 .03.256.3.3 0 0 0 .02.045.082.082 0 0 0 .08.065.163.163 0 0 0 .13-.045.247.247 0 0 0 .1-.086.055.055 0 0 0 .01 0c.01-.008.01-.017.02-.025.04-.036.08-.075.12-.114l.03-.051.01.018a.889.889 0 0 1 .21-.166 2.481 2.481 0 0 1 .15-.273 4.979 4.979 0 0 0 .32-.822l.05-.356.15-.6.03-.416a.319.319 0 0 1-.01-.17 1.656 1.656 0 0 0 .05-.313 2.175 2.175 0 0 1 0-.444c0-.113 0-.226.01-.337a2.569 2.569 0 0 1 .03-.389c.01-.119.03-.242.03-.361a5.518 5.518 0 0 0-.531-2.516zm-30 2.071l-.07-.034a.331.331 0 0 1-.1.017.045.045 0 0 0-.03.038h-.01a2.844 2.844 0 0 0-.63.5v-.2l.03-.22a2.305 2.305 0 0 1 .06-.4l.16-.336a2.064 2.064 0 0 0 .04-.34 1.417 1.417 0 0 1 .01-.2 2.692 2.692 0 0 1 .07-.308 1.425 1.425 0 0 0 .06-.807.47.47 0 0 0-.43-.222.108.108 0 0 0-.09.04 1.9 1.9 0 0 0-.23.913c-.01.068-.01.137-.02.2 0 .033-.01.067-.01.1a.9.9 0 0 0-.03.236.165.165 0 0 0-.05.1 6.943 6.943 0 0 0-.29 1.106l-.14 1.194a1.326 1.326 0 0 1-.03.189 1.316 1.316 0 0 0-.03.488.666.666 0 0 0 .29.391.247.247 0 0 1 .04.016c.01.006.01.007.01.01a.072.072 0 0 1 .02 0c-.05-.008.07 0 .06 0l.05-.007a.24.24 0 0 1 .07-.028.213.213 0 0 1 .06-.056.439.439 0 0 0 .12-.138l.34-.877a6.351 6.351 0 0 1 .35-.581c.11-.176.23-.359.33-.549a.168.168 0 0 0 .02-.011c.01-.022.01-.043.02-.065l.03-.065v.006a.093.093 0 0 0-.041-.079zm1.94 4.561a.019.019 0 0 0 .01-.019 1.014 1.014 0 0 0 .08-.239.29.29 0 0 1 .07-.142v.007a1.351 1.351 0 0 1 .12-.315 1.83 1.83 0 0 0 .11-.294l.02-.465.08-.334.03-.306a6.579 6.579 0 0 0 .05-.778l-.02-.735-.14-.694-.01-.378v-.022l-.1-.342v-.529a1.862 1.862 0 0 0-.45-1.094.122.122 0 0 0-.03-.009l-.35-.059a.1.1 0 0 0-.11.066.944.944 0 0 0 .07.585c.02.053.03.107.05.151l.23 1.589.13.523.07.832a6.411 6.411 0 0 1-.09.761l-.06.429-.01.138a2.911 2.911 0 0 1-.1.544v.07a.014.014 0 0 1-.01.015.438.438 0 0 1-.08.269v.011l-.06.112-.03.137c-.02.054-.03.109-.05.173a3.319 3.319 0 0 1-.36 1.153.131.131 0 0 0 0 .087l.07.133v.025a.487.487 0 0 1 .06.011.315.315 0 0 1 .08.019.26.26 0 0 0 .08-.041.329.329 0 0 1 .06-.088l.09-.095a1.3 1.3 0 0 0 .49-.849zm32.31-4.131l.08.032a.02.02 0 0 0 .01 0l1.01.006a.047.047 0 0 0 .03-.013.038.038 0 0 0 .01-.032.3.3 0 0 0-.05-.132.11.11 0 0 0 .03-.07.023.023 0 0 1 .01-.022.336.336 0 0 0-.04-.264 1.157 1.157 0 0 0-.8-.231c-.1-.006-.17-.011-.23-.02a.055.055 0 0 0-.03.006.818.818 0 0 1-.4.068 1.022 1.022 0 0 0-.49.086.054.054 0 0 0-.02.04.639.639 0 0 0 .65.542c.079.02.219.016.239.022zm1.64 2.511a.637.637 0 0 0-.02-.137l-.03-.054a.288.288 0 0 1-.151-.029l-.02.04a.438.438 0 0 0-.11-.015h-.01a.4.4 0 0 0-.2.173c-.03.03-.05.057-.07.076-.05.069-.51.636-.61.79a.381.381 0 0 1-.24-.206.04.04 0 0 0-.05-.022l-.35.116a.043.043 0 0 0-.03.043.711.711 0 0 0 .21.427.281.281 0 0 0 .05.072.719.719 0 0 1 .09.153.78.78 0 0 0 .52.5.3.3 0 0 0 .12-.026.467.467 0 0 0 .2-.317.973.973 0 0 1 .09-.218.578.578 0 0 1 .03-.134 1.2 1.2 0 0 0 .08-.141c.02-.065.04-.125.06-.181a1.131 1.131 0 0 1 .1-.309.121.121 0 0 1 .03-.055c.03-.05.06-.1.09-.155a.93.93 0 0 1 .03-.092l.01.008c.04-.06.07-.118.11-.176a.017.017 0 0 1-.01-.017l.03-.007c.02-.027.04-.06.06-.089zm-1.13-5.443a.047.047 0 0 0 .05.046.423.423 0 0 1 .13.141l.08.1a1.817 1.817 0 0 0 .35.242 2.674 2.674 0 0 1 .27.18l.24.283s0 .006.01.009a.481.481 0 0 0 .24.077.237.237 0 0 0 .14-.044.264.264 0 0 0 .09-.288 2.581 2.581 0 0 0-1.31-1.059.046.046 0 0 0-.04.008l-.03.019a.6.6 0 0 0-.16.166.1.1 0 0 0-.05.022.089.089 0 0 0-.01.07v.028zm6.41 5.156c.06.061.24.188.23.2v.007a2.506 2.506 0 0 1 .47.546c.02.026.04.056.06.087a.412.412 0 0 1 .25.189.17.17 0 0 0 .08-.015.411.411 0 0 1 .13-.027v-.095a.14.14 0 0 1 .03.02.356.356 0 0 0 .05.038.044.044 0 0 0 .07-.039v-.116a10.5 10.5 0 0 0-1.16-1.356.775.775 0 0 0-.23-.124c-.02-.008-.04-.017-.07-.026a.038.038 0 0 0-.05.016.481.481 0 0 0 .11.688zm-1.36-.614a.05.05 0 0 0-.05.009l-.18.163a.04.04 0 0 0-.01.046 4.726 4.726 0 0 0 .27.67 2.047 2.047 0 0 0 .12.195 1.563 1.563 0 0 1 .17.387c.03.085.06.165.08.241a.038.038 0 0 0 .02.03c.09.046.24.127.27.149a.047.047 0 0 0 .05.007.068.068 0 0 0 .01-.011.836.836 0 0 1 .11.042.778.778 0 0 0 .12.042h.01a.168.168 0 0 0 .03.006v.013l.01.005a.078.078 0 0 0 .02-.005h.01a.115.115 0 0 0 .07-.089V76a2.763 2.763 0 0 0-1.121-1.863zm-2.06.465a.676.676 0 0 0-.42-.388.046.046 0 0 0-.04.005l-.02.013a.391.391 0 0 0-.19.218v.012l.01.37a1.36 1.36 0 0 1-.3 1.008.051.051 0 0 0-.02.035.507.507 0 0 0 .2.308.652.652 0 0 0 .32.168.156.156 0 0 0 .07-.017.629.629 0 0 0 .23-.332.363.363 0 0 1 .04-.095 1.811 1.811 0 0 0 .129-1.289zm5.26-.7a1.864 1.864 0 0 0-.73-.238 2.457 2.457 0 0 1-.52-.13 7.825 7.825 0 0 1-1.13-.794 2.242 2.242 0 0 1-.85-.887.136.136 0 0 1 .12-.075.852.852 0 0 1 .17-.029.882.882 0 0 0 .2-.036l.8-.216c.07-.009.13-.013.2-.016a1.241 1.241 0 0 0 .39-.062.09.09 0 0 0 .06-.027.068.068 0 0 0 0-.075v-.017a.856.856 0 0 0-.55-.624.269.269 0 0 0-.25.2 2.082 2.082 0 0 0-.58.12c-.1.031-.2.06-.29.08l-.26.03a1.463 1.463 0 0 0-.24.031 1.679 1.679 0 0 1-.28.035.3.3 0 0 1-.18-.043.414.414 0 0 1-.09-.319.54.54 0 0 0-.17-.492v-.013l.51-.087c.08-.015.19-.026.31-.038a1.926 1.926 0 0 0 .77-.175.247.247 0 0 0 .06-.285.591.591 0 0 0-.36-.38.04.04 0 0 0-.04 0l-.26.148h-.28a1.582 1.582 0 0 0-.26.019c-.07.012-.14.026-.21.04a2.974 2.974 0 0 1-.57.071h-.06a.879.879 0 0 1-.18.022c-.04.01-.09.021-.14.031a1 1 0 0 0-.31.1.836.836 0 0 1-.21-.045.85.85 0 0 0-.26-.053.448.448 0 0 0-.15.024.043.043 0 0 0-.03.043.2.2 0 0 1-.1.118.053.053 0 0 0-.02.037.688.688 0 0 0 .34.5 1.074 1.074 0 0 0 .59.234.251.251 0 0 0 .28-.218.1.1 0 0 1 .02.021.839.839 0 0 1 .03.522c-.01.037-.02.08-.03.125a.6.6 0 0 1-.12.341 1.845 1.845 0 0 1-.96.153c-.1 0-.19 0-.27.007l-.35.106-.03.007a.846.846 0 0 0-.28.082.069.069 0 0 0-.06.039.286.286 0 0 0 .04.215.655.655 0 0 0 .49.342.37.37 0 0 0 .26-.121h.07a1.143 1.143 0 0 1 .64.081 1.965 1.965 0 0 1-.27.407 2.243 2.243 0 0 0-.15.215c-.01.007-.01.007-.01.015a1.442 1.442 0 0 1-.23.206 2.493 2.493 0 0 0-.26.214.36.36 0 0 1-.07.074.111.111 0 0 0-.03.04c-.01 0-.01 0-.01-.006-.07.039-.13.078-.2.111a2.1 2.1 0 0 1-.33.186h-.02a7.552 7.552 0 0 1-.68.409.037.037 0 0 0-.02.051.038.038 0 0 0 .04.035h.2a.291.291 0 0 1 .18-.059c.1 0 .21 0 .32-.005a.512.512 0 0 0 .19-.045.031.031 0 0 1 .02-.009.218.218 0 0 1 .09-.035.294.294 0 0 1 .06 0 1.934 1.934 0 0 0 .29-.107.275.275 0 0 0 .04.006c.08-.039.18-.092.23-.12a1.029 1.029 0 0 0 .46-.259v.013c.01-.01.03-.017.04-.026a.3.3 0 0 1 .13-.079.1.1 0 0 0 .03-.022.428.428 0 0 1 .06-.016.656.656 0 0 1 .19-.177h.01a.818.818 0 0 0 .1.092.64.64 0 0 1 .19.207 3.008 3.008 0 0 1 .07.611c0 .112.01.227.02.352l.08.295.05.844a1.328 1.328 0 0 1-.12.537 1.457 1.457 0 0 0-.61-.2.1.1 0 0 0-.08.048.311.311 0 0 0 0 .25.119.119 0 0 0 .02.015c.1.077.2.166.3.251a2.856 2.856 0 0 0 .55.411l.43.154a.091.091 0 0 0 .02 0 .044.044 0 0 0 .04-.029l.14-.357a9.417 9.417 0 0 0 .01-1.293 1.7 1.7 0 0 0-.03-.388 2.357 2.357 0 0 1-.02-.254v-.085a4.975 4.975 0 0 0-.15-1.238.739.739 0 0 0-.4-.4.443.443 0 0 1-.26-.231.615.615 0 0 1 .14-.44.911.911 0 0 1 .51-.478.824.824 0 0 1 .27.23c.04.044.09.089.14.136l.34.262.17.183c.14.116.29.22.43.32.1.071.2.138.29.21l.25.2a4.262 4.262 0 0 0 .94.629 4.18 4.18 0 0 0 1.23.225l.17.015a.031.031 0 0 0 .03-.012.048.048 0 0 0 .02-.034.619.619 0 0 0-.261-.468z" transform="translate(-852.219 -57.219)"/><path id="シェイプ_1_のコピー_2" data-name="シェイプ 1 のコピー 2" class="cls-3" d="M971.653 65.845c-1.731 1.845-4.88 3.824-5.671 3.824a1.032 1.032 0 0 1-.94-1.1.858.858 0 0 1 .537-.848 15.172 15.172 0 0 0 3.85-2.41c.523-.446.732-.655 1.314-1.235a1.657 1.657 0 0 1 1.358-.61 2.028 2.028 0 0 1 1.642.878 14.81 14.81 0 0 0 3.909 2.886c.239.119 1.1.536 1.224.625a.857.857 0 0 1 .328.714 1.028 1.028 0 0 1-.955 1.1c-.94 0-4.223-2.247-5.7-3.824a.689.689 0 0 0-.449-.345.7.7 0 0 0-.447.345zm-1.343 5.46c0 2.559-.627 4.092-1.865 5.222a3.857 3.857 0 0 1-1.911 1 1.033 1.033 0 0 1-1.014-1.071.869.869 0 0 1 .388-.714c1.313-.8 1.567-.967 1.925-1.636a6.946 6.946 0 0 0 .552-2.961V69.52a.963.963 0 0 1 1.925 0v1.785zm5.552 5.416a.818.818 0 0 1-.941.922.834.834 0 0 1-1.029-.922V69.49a.8.8 0 0 1 .925-.908.836.836 0 0 1 1.045.908v7.231zm5.745-8.972a.8.8 0 0 1 0-1.592h3.448a.67.67 0 0 1 .79.774.685.685 0 0 1-.79.818h-3.448zm3.015.61a.671.671 0 0 1 .7.342c.045-.045.075-.074.194-.208a6.873 6.873 0 0 0 1.089-1.443c.418-.729.6-.788.881-.788a.585.585 0 0 1 .194.03c0-.045-.015-.074-.015-.134v-.239h-1.328a.7.7 0 1 1 0-1.384h1.328v-.371c0-.551.537-.6.925-.6a.668.668 0 0 1 .777.6v.372h2.059v-.372c0-.536.388-.61.94-.61a.63.63 0 0 1 .761.61v.372h1.1a.654.654 0 0 1 .776.7.665.665 0 0 1-.776.684h-1.1v.28c0 .476-.447.535-.88.535a1.839 1.839 0 0 1-.388-.044 1.017 1.017 0 0 1-.15.446h2.448a.516.516 0 1 1 0 1.027h-2.507v.436h2.313a.4.4 0 0 1 .462.446.391.391 0 0 1-.462.432h-2.313v.417h2.3a.413.413 0 0 1 .477.461.425.425 0 0 1-.522.446h-2.253v.461h2.731a.576.576 0 1 1 0 1.146h-6.463c-1.388 0-1.672-.313-1.672-1.666v-.851a.778.778 0 0 1-.537.268.748.748 0 0 1-.6-.327.884.884 0 0 1-.492.089H982a.781.781 0 1 1 0-1.562h2.627zM982 65.533a.774.774 0 1 1 0-1.547h2.627a.774.774 0 1 1 0 1.547H982zm0 6.561a.774.774 0 1 1 0-1.547h2.627a.685.685 0 0 1 .791.774.7.7 0 0 1-.836.774H982zm4.4 1.964a.637.637 0 0 1-.747-.64.63.63 0 0 1 .747-.655h6.6a.911.911 0 0 1 1.074.878 1.491 1.491 0 0 1-.582 1.146 8.9 8.9 0 0 1-1.223.937 21.558 21.558 0 0 1 2.343.372.587.587 0 0 1 .373.625.78.78 0 0 1-.926.819 15.421 15.421 0 0 1-3.895-.878 18.836 18.836 0 0 1-4.029.863.717.717 0 0 1-.806-.759 1.3 1.3 0 0 1-1.433.6h-1.134c-1.253 0-1.552-.268-1.552-1.547v-1.568c0-1.265.284-1.547 1.567-1.547h1.105c1.283 0 1.566.268 1.566 1.547v1.562c0 .164-.014.357-.029.506a.737.737 0 0 1 .507-.282c.358-.059 1.97-.268 2.283-.327a2.433 2.433 0 0 1-1.253-1.22.568.568 0 0 1 .209-.431h-.765zm-2.314.417a.322.322 0 0 0-.358-.357h-.658a.316.316 0 0 0-.358.357v1.012a.315.315 0 0 0 .358.357h.656a.319.319 0 0 0 .358-.357v-1.012zm5.925-5.877v-.432h-1.836c-.3 0-.3.193-.3.431h2.134zm0 .878h-2.134v.417h2.134v-.418zm0 1.324h-2.134c0 .268 0 .461.3.461h1.836V70.8zm-.074-3.66c.313-.64.447-.893.985-.893a1.891 1.891 0 0 1 .507.06v-.388h-2.059v.268c0 .625-.851.565-1.165.521a.769.769 0 0 1-.015.431h1.747zm-1.687 6.919a7.867 7.867 0 0 0 1.97 1.086c.612-.253 1.642-.669 1.642-.982 0-.089-.135-.1-.209-.1h-3.4zm15.22 2.541c-1.37 0-1.67-.3-1.67-1.666V72.02c0-1.354.28-1.666 1.67-1.666h.97c1.36 0 1.67.3 1.67 1.666V75a10.584 10.584 0 0 0 .82-.818 30.046 30.046 0 0 1-.4-4.36h-4.7a.617.617 0 0 1-.61-.312v7.36a.653.653 0 0 1-.72.774.664.664 0 0 1-.806-.774v-1.592a19.93 19.93 0 0 1-2.4.551.886.886 0 0 1-.716-1.027.668.668 0 0 1 .7-.759V65.7a.859.859 0 0 1 .209-1.681h3.444c.27 0 .93 0 .79 1.056a.713.713 0 0 1 .57-.164h.87v-.688a.785.785 0 0 1 1.56 0v.684h.96a.649.649 0 0 1 .73.789c0 .744-.36.8-.7.818-.09.684-.12.863-.27 1.681h1.06c-.02-1.25-.05-2.782-.05-3.794a.717.717 0 0 1 .81-.863.776.776 0 0 1 .69.283 2.3 2.3 0 0 1 .13 1.309v3.07h1.81a.816.816 0 1 1 0 1.622h-1.76c.03.878.09 1.562.16 2.306.1-.238.57-1.339.66-1.518a.523.523 0 0 1 .52-.372.859.859 0 0 1 .95.64 11.419 11.419 0 0 1-1.74 3.616 1.5 1.5 0 0 0 .61 1.027c.15 0 .25-.149.37-.566a.589.589 0 0 1 .56-.61.764.764 0 0 1 .8.744 3.962 3.962 0 0 1-.66 1.756 1.437 1.437 0 0 1-1.29.759 1.984 1.984 0 0 1-1.68-1.562 13.085 13.085 0 0 1-1.49 1.265.883.883 0 0 1-.5.163.9.9 0 0 1-.86-.863h-1.07zm-3.776-10.891h-.894v1.562h.895v-1.56zm0 3.095h-.894v1.637h.895v-1.635zm-.895 5c.194-.03.478-.089.895-.179V72h-.894v1.8zm3.581-5.609a13.471 13.471 0 0 0-.24-1.7.741.741 0 0 1-.63-.952.48.48 0 0 1-.29.149v2.8a.636.636 0 0 1 .61-.3h.55zm.82 4.538h1.49v-.61a.319.319 0 0 0-.35-.372h-.78a.323.323 0 0 0-.36.372v.61zm0 1.324v.7a.319.319 0 0 0 .36.357h.78a.306.306 0 0 0 .35-.357v-.7h-1.49zm.23-7.544c.02.238.17 1.414.17 1.681h.6a14.71 14.71 0 0 0 .21-1.681h-.98zm6.31 1.16c-.45 0-.49-.178-.75-.952-.13-.432-.42-1.16-.52-1.443a1.119 1.119 0 0 1-.11-.431.832.832 0 0 1 .87-.655.738.738 0 0 1 .69.655 10.988 10.988 0 0 1 .71 2.083.83.83 0 0 1-.89.745z" transform="translate(-852.219 -57.219)"/></svg>