<?xml version="1.0" encoding="UTF-8"?><!DOCTYPE svg PUBLIC "-//W3C//DTD SVG 1.1//EN" "http://www.w3.org/Graphics/SVG/1.1/DTD/svg11.dtd"><svg xmlns="http://www.w3.org/2000/svg" xmlns:xlink="http://www.w3.org/1999/xlink" height="700" viewBox="0 0 938 700" width="938"><svg height="128" viewBox="0 0 780 128" width="780" x="10" y="10"><title>logo</title><path d="M577.91,58c-8.12,8.68-22.89,18-26.6,18-2.73,0-4.41-2.66-4.41-5.18a4,4,0,0,1,2.52-4c8.26-4.13,11.48-5.74,18.06-11.34,2.45-2.1,3.43-3.08,6.16-5.81A7.77,7.77,0,0,1,580,46.75c3.57,0,4.9,1.33,7.7,4.13C596,59.14,603.17,63.13,606,64.46c1.12.56,5.18,2.52,5.74,2.94a4,4,0,0,1,1.54,3.36c0,2.87-2,5.18-4.48,5.18-4.41,0-19.81-10.57-26.74-18-1-1.19-1.47-1.61-2.1-1.61S579.09,56.69,577.91,58Zm-6.3,25.69c0,12-2.94,19.25-8.75,24.57-1.61,1.4-5.88,4.69-9,4.69-3.71,0-4.76-3.43-4.76-5A4.1,4.1,0,0,1,551,104.5c6.16-3.78,7.35-4.55,9-7.7,2.24-4.34,2.59-10.36,2.59-13.93V75.24c0-1.26,0-4.34,4.48-4.34s4.55,2.8,4.55,4.34Zm26,25.48c0,1.12,0,4.34-4.41,4.34-3.5,0-4.83-1.33-4.83-4.34v-34c0-1.33.14-4.27,4.34-4.27,3.22,0,4.9,1,4.9,4.27Z" style="fill:#e2740f"/><path d="M624.59,66.91c-1.12,0-3.71,0-3.71-3.71,0-3.43,2-3.78,3.71-3.78h16.17c1.68,0,3.71.28,3.71,3.64,0,3.57-2,3.85-3.71,3.85Zm14.14,2.87c1.33,0,2.52.14,3.29,1.61.21-.21.35-.35.91-1A32.48,32.48,0,0,0,648,63.62c2-3.43,2.8-3.71,4.13-3.71a2.75,2.75,0,0,1,.91.14c0-.21-.07-.35-.07-.63V58.3h-6.23c-1.68,0-3.71-.56-3.71-3.29,0-3.22,2.87-3.22,3.71-3.22H653V50c0-2.59,2.52-2.8,4.34-2.8.84,0,3.64.14,3.64,2.8v1.75h9.66V50c0-2.52,1.82-2.87,4.41-2.87,1.47,0,3.57.35,3.57,2.87v1.75h5.18c1.82,0,3.64.56,3.64,3.29,0,3.08-2.59,3.22-3.64,3.22h-5.18v1.33c0,2.24-2.1,2.52-4.13,2.52a8.59,8.59,0,0,1-1.82-.21A4.81,4.81,0,0,1,672,64h11.48c1.33,0,2.66.49,2.66,2.45a2.29,2.29,0,0,1-2.66,2.38H671.7v2h10.85c1.26,0,2.17.49,2.17,2.1,0,2-1.4,2-2.17,2H671.7v2h10.78c1.26,0,2.24.49,2.24,2.17,0,2.1-1.61,2.1-2.45,2.1H671.7v2.17h12.81c1.19,0,3,.21,3,2.73s-2.24,2.66-3,2.66H654.2c-6.51,0-7.84-1.47-7.84-7.84V77a3.65,3.65,0,0,1-2.52,1.26,3.51,3.51,0,0,1-2.8-1.54,4.14,4.14,0,0,1-2.31.42H626.41c-1.54,0-3.71-.21-3.71-3.71s2.66-3.64,3.71-3.64Zm-12.32-13.3c-1,0-3.71,0-3.71-3.64s2.45-3.64,3.71-3.64h12.32c1,0,3.71,0,3.71,3.64s-2.38,3.64-3.71,3.64Zm0,30.87c-1,0-3.71,0-3.71-3.64s2.52-3.64,3.71-3.64h12.32c1,0,3.71,0,3.71,3.64s-2.66,3.64-3.92,3.64Zm20.65,9.24c-.77,0-3.5,0-3.5-3,0-2.66,2-3.08,3.5-3.08H678c1.19,0,5,.07,5,4.13,0,1.47-.42,3.22-2.73,5.39a41.77,41.77,0,0,1-5.74,4.41c1.68.28,9.73,1.12,11,1.75a2.76,2.76,0,0,1,1.75,2.94c0,3.85-3.15,3.85-4.34,3.85-5.46,0-15.19-3-18.27-4.13-8.61,2.73-16.73,4.06-18.9,4.06-3.15,0-3.71-2.1-3.78-3.57-1.12,2.73-3.78,2.8-6.72,2.8H630c-5.88,0-7.28-1.26-7.28-7.28V97.5c0-5.95,1.33-7.28,7.35-7.28h5.18c6,0,7.35,1.26,7.35,7.28v7.35c0,.77-.07,1.68-.14,2.38a3.45,3.45,0,0,1,2.38-1.33c1.68-.28,9.24-1.26,10.71-1.54-2.24-1.33-5.88-3.78-5.88-5.74a2.68,2.68,0,0,1,1-2Zm-10.85,2a1.51,1.51,0,0,0-1.68-1.68h-3.08a1.48,1.48,0,0,0-1.68,1.68v4.76a1.48,1.48,0,0,0,1.68,1.68h3.08a1.5,1.5,0,0,0,1.68-1.68ZM664,70.9v-2h-8.61c-1.4,0-1.4.91-1.4,2ZM664,75H654v2h10Zm0,6.23H654c0,1.26,0,2.17,1.4,2.17H664ZM663.65,64c1.47-3,2.1-4.2,4.62-4.2a8.84,8.84,0,0,1,2.38.28V58.3H661v1.26c0,2.94-4,2.66-5.46,2.45a3.64,3.64,0,0,1-.07,2Zm-7.91,32.55c5.18,3.5,6.93,4.27,9.24,5.11,2.87-1.19,7.7-3.15,7.7-4.62,0-.42-.63-.49-1-.49Z" style="fill:#e2740f"/><path d="M727.14,108.56c-6.44,0-7.84-1.4-7.84-7.84V87c0-6.37,1.33-7.84,7.84-7.84h4.55c6.37,0,7.84,1.4,7.84,7.84v14a49.74,49.74,0,0,0,3.85-3.85c-.28-1.54-1.4-7.77-1.89-20.51h-22a2.91,2.91,0,0,1-2.87-1.47v34.65c0,1.47-.21,3.64-3.36,3.64-2.45,0-3.78-.7-3.78-3.64v-7.49c-.91.28-9.45,2.59-11.27,2.59-2.38,0-3.36-2.59-3.36-4.83,0-2.52,1.19-3.29,3.29-3.57V57.25c-2.17-.21-2.87-2-2.87-3.92,0-3.85,2.38-4,3.85-4h16.17c1.26,0,4.34,0,3.71,5,.28-.28.84-.77,2.66-.77h4.06V50.32c0-2.66,2-3.29,3.64-3.29s3.71.42,3.71,3.29v3.22h4.48c1.68,0,3.43.42,3.43,3.71,0,3.5-1.68,3.78-3.29,3.85-.42,3.22-.56,4.06-1.26,7.91h5c-.07-5.88-.21-13.09-.21-17.85,0-1.47,0-4.06,3.78-4.06a3.61,3.61,0,0,1,3.22,1.33c.63.91.63,1.54.63,6.16V69h8.47c1.33,0,4.27.07,4.27,3.64,0,2.73-1.19,4-4.27,4H749c.14,4.13.42,7.35.77,10.85.49-1.12,2.66-6.3,3.08-7.14.7-1.33,1.26-1.75,2.45-1.75s4.48.56,4.48,3c0,2-3.57,10.29-8.19,17,.28,1,1.4,4.83,2.87,4.83.7,0,1.19-.7,1.75-2.66.42-1.61.77-2.87,2.59-2.87,1,0,3.78.63,3.78,3.5,0,3.08-2.45,7.35-3.08,8.26-2,2.94-4.06,3.57-6.09,3.57-4.13,0-6.44-3.64-7.84-7.35a66.82,66.82,0,0,1-7,6,4,4,0,0,1-6.37-3.29ZM709.43,57.32h-4.2v7.35h4.2Zm0,14.56h-4.2v7.7h4.2Zm-4.2,23.52c.91-.14,2.24-.42,4.2-.84V86.93h-4.2ZM722,69a64,64,0,0,0-1.12-8c-3.43-.28-3.08-3.64-2.94-4.48a2.43,2.43,0,0,1-1.4.7V70.41a3,3,0,0,1,2.87-1.4Zm3.85,21.35h7V87.49c0-1.19-.56-1.75-1.68-1.75h-3.64c-1,0-1.68.49-1.68,1.75Zm0,6.23v3.29a1.48,1.48,0,0,0,1.68,1.68h3.64c1,0,1.68-.42,1.68-1.68V96.59Zm1-35.49c.14,1.12.84,6.65.84,7.91h2.8a69.84,69.84,0,0,0,1-7.91Zm29.61,5.46c-2.1,0-2.31-.84-3.5-4.48-.63-2-2-5.46-2.45-6.79a5.77,5.77,0,0,1-.49-2c0-1.68,2.1-3.08,4.06-3.08s2.38,1.05,3.22,3.08c1.12,2.52,3.36,8.47,3.36,9.8C760.74,65.79,757.87,66.56,756.54,66.56Z" style="fill:#e2740f"/><path d="M523.82,41.77c-.79-2.35-2-6.1-2.46-7.5l-.14-.42a2.71,2.71,0,0,0-2.74-1.92h-8.42a1.64,1.64,0,0,0-1.5.65,1.69,1.69,0,0,0-.2,1.55c.2.65,1.91,5.75,2.84,8.35a2.92,2.92,0,0,0,3.09,1.89h7.51c1.2,0,1.66-.36,1.91-.7a2,2,0,0,0,.1-1.9"/><path d="M504.65,33.79A2.67,2.67,0,0,0,501.94,32h-8.42a1.64,1.64,0,0,0-1.5.63,1.72,1.72,0,0,0-.21,1.58c.22.68,1.92,5.78,2.84,8.34a2.9,2.9,0,0,0,3.09,1.89h7.56a2.16,2.16,0,0,0,1.88-.69,1.94,1.94,0,0,0,.13-1.91c-.93-2.77-2.51-7.5-2.67-8"/><path d="M182.06,100.55a10.2,10.2,0,1,1-10.22-10.19,10.21,10.21,0,0,1,10.22,10.19" style="fill:#209ed8"/><path d="M188.15,28.07a7.56,7.56,0,0,0-4.45-10.21c-4.22-1.54-8.36.81-10.53,4.67C169.66,28.78,151.45,63.28,148.4,69s-6.9,13.89-10.09,12.65c-2.94-1.14-6.4-13.68-7.88-17.26-2.62-6.36-7.94-13.92-16.82-12C106.82,53.85,103,59.19,96.82,71c-3.37,6.47-5.49,10.74-8.56,14.93C82,94.51,78.4,80.38,76.31,73.07c-2.8-9.81-7.9-23.69-19-23.68-6.22,0-12.84,3.65-21.09,17C31.38,74.18,20.12,96,18.46,99.87c-1.77,4.13-.25,8.62,3.89,10.39s8.19-.07,10.62-3.85C40.88,94.12,43.06,89.32,47.1,83.67c4.33-6,10.22-11.4,14.73,3,2.84,9.09,7.79,24,21.14,24.09,8,.06,16.35-6.88,20.24-13.49,4.4-7.48,5.5-11.47,8.85-15.08,1.71-1.84,4.26-2.5,6.67,2.84,2.33,5.16,7.13,21.48,15.7,25,12.09,5,23.47-19.44,27.4-27.23,3.17-6.29,24.94-51.51,26.33-54.81" style="fill:#209ed8"/><path d="M286.45,35a3.62,3.62,0,0,0-2.65-.91h.06l-73.53.1a2.52,2.52,0,0,0-1.92.86,2.71,2.71,0,0,0-.63,1.76v9.31a2.55,2.55,0,0,0,2.55,2.49h.42l53.59-.07h2.18c1.56,0,2,.28,2.36.76.81,1.06,0,2.75-.14,3.16-3.54,12.8-11.3,22.7-22.43,28.63l-.63.33-.42-.58c-2.74-3.75-4.79-6.34-7.17-9.34l-.34-.45a4.58,4.58,0,0,0-3.3-2h0l-12.41,0a1.73,1.73,0,0,0-1.71,1.08,2.11,2.11,0,0,0,.19,1.94,279.89,279.89,0,0,1,24.45,37,3.07,3.07,0,0,0,2.78,1.65h13.46a1.65,1.65,0,0,0,1.51-1,1.85,1.85,0,0,0,0-1.82,109.28,109.28,0,0,0-7.6-12.59l-.45-.67.66-.46c15.73-11.06,30.44-25.15,31.84-57a3,3,0,0,0-.68-2.24"/><path d="M362,34a2.5,2.5,0,0,0-2-.86c-1.41,0-8.11.05-12.2.07a3.49,3.49,0,0,0-2.91,1.93c-7,16-27.23,28-55.06,32.69-1.8.35-2.66,1.41-2.7,2.62l0,9.62a2.38,2.38,0,0,0,.81,1.85,2.85,2.85,0,0,0,2.25.69c13.46-1.64,23.82-4.31,32-8.07l1.16-.54,0,34.16a2.56,2.56,0,0,0,2.64,2.56h10.51a2.53,2.53,0,0,0,2.42-2.38L339,66.62l.36-.24C349.86,59.19,359,47.45,362.49,36a2.41,2.41,0,0,0-.44-2"/><path d="M418.31,67.25l0-.77,23.5-.06a2.56,2.56,0,0,0,1.8-.77,2.71,2.71,0,0,0,.73-1.72V54.66a2.53,2.53,0,0,0-2.56-2.58H418.47V35.58A2.56,2.56,0,0,0,415.79,33h-.37l-10,0a2.48,2.48,0,0,0-1.85.8,2.57,2.57,0,0,0-.68,1.74l0,16.54-35.25,0a2.59,2.59,0,0,0-1.93.78,2.64,2.64,0,0,0-.72,1.86V64.1a2.53,2.53,0,0,0,2.62,2.47H368l34.82-.07-.06.87c-1.24,20.16-10.9,25.92-29.08,29.64-1.58.38-2.49,1.15-2.49,2.53v9.58a2.15,2.15,0,0,0,.81,1.73,2.71,2.71,0,0,0,1.92.61c30.44-4.21,42.86-17,44.41-44.21"/><path d="M522.59,52.68a2.51,2.51,0,0,0-1.66-.69h-.43l-51,.07,0-16.51a2.58,2.58,0,0,0-.73-1.85,2.68,2.68,0,0,0-2-.78H457a2.54,2.54,0,0,0-2.53,2.57l.08,55.34c0,13.77,5.43,19.57,20.56,19.57h1.21l46-.08a2.55,2.55,0,0,0,2.37-2.48l0-9.41a2.55,2.55,0,0,0-2.54-2.57h0l-42,0H480c-3.81,0-6.62-.25-8.26-1.58-2-1.71-2.24-4.17-2.2-8l0-19.89,51.27-.08a2.54,2.54,0,0,0,2.57-2.59V54.51a2.44,2.44,0,0,0-.78-1.83"/></svg><svg height="128" viewBox="0 0 417 128" width="416.38" x="10" y="148"><title>check-txt</title><path d="M60.41,14.5A49.91,49.91,0,1,1,10.5,64.41,49.91,49.91,0,0,1,60.41,14.5Z" style="fill:#786a5b;fill-rule:evenodd"/><path d="M196.22,37a16,16,0,0,1-.44,3.38,28.7,28.7,0,0,1-1.27,4.11,34.83,34.83,0,0,1-2,4.24,21,21,0,0,1-2.68,3.8,13.76,13.76,0,0,1-3.28,2.73,7.36,7.36,0,0,1-3.8,1c-.31,0-.72,0-1.22-.08a5.9,5.9,0,0,1-1.51-.36,3.46,3.46,0,0,1-1.3-.86,2.09,2.09,0,0,1-.55-1.51,3.92,3.92,0,0,1,.34-1.46,7.93,7.93,0,0,1,1.22-1.92q.94-1,2-2.47a26.41,26.41,0,0,0,2-3,25,25,0,0,0,1.48-3.07,7.48,7.48,0,0,0,.6-2.7,3.86,3.86,0,0,0-.7-2.42,2.88,2.88,0,0,0-2.42-.91,11.18,11.18,0,0,0-5,1.46,33.46,33.46,0,0,0-5.88,4,67.38,67.38,0,0,0-6.24,6q-3.17,3.41-6.14,7.28t-5.59,8.06a82.56,82.56,0,0,0-4.58,8.27,53.68,53.68,0,0,0-3.07,7.85,24.2,24.2,0,0,0-1.12,6.84,8.83,8.83,0,0,0,2,6.08q2,2.29,6.71,2.29a19.94,19.94,0,0,0,6.5-1.69,51.5,51.5,0,0,0,7.2-3.38q2.89-1.69,5.82-3.74t5.59-4l4.84-3.43a22.86,22.86,0,0,1,3.59-2.16,1,1,0,0,1,.62-.21q.78,0,1.07,1.27a13.37,13.37,0,0,1,.29,2.89,12.26,12.26,0,0,1-.23,2.16,7.39,7.39,0,0,1-1.48,2.94q-.58.68-2.13,2.29t-3.9,3.64q-2.34,2-5.36,4.21a51.55,51.55,0,0,1-6.53,4,58.62,58.62,0,0,1-9,3.59,32.48,32.48,0,0,1-9.64,1.77,25.76,25.76,0,0,1-8.27-1.17,15,15,0,0,1-5.62-3.25,12.44,12.44,0,0,1-3.2-5,18.94,18.94,0,0,1-1-6.32,35.67,35.67,0,0,1,1.3-9.15A61.9,61.9,0,0,1,137.81,69,85,85,0,0,1,143.32,59a93.21,93.21,0,0,1,7-9.64,86.44,86.44,0,0,1,8.14-8.55,66.1,66.1,0,0,1,8.84-6.86,45.74,45.74,0,0,1,9.1-4.58,26.22,26.22,0,0,1,9-1.66,17.16,17.16,0,0,1,4.16.49A9.76,9.76,0,0,1,193,29.73a7.56,7.56,0,0,1,2.34,2.89A10.13,10.13,0,0,1,196.22,37Z" style="fill:#786a5b"/><path d="M179.79,94.47q1.25-2.65,2.86-5.9t3.25-6.45q1.64-3.2,3.09-6.08t2.44-4.91l17.16-33.74a4.32,4.32,0,0,1,1-1.3,8.22,8.22,0,0,1,3.25-1.9,6.39,6.39,0,0,1,1.87-.29,4.55,4.55,0,0,1,3.17.86,2.82,2.82,0,0,1,.88,2.11,5.92,5.92,0,0,1-.57,2.42,16.55,16.55,0,0,1-1.3,2.37q-2.29,3.9-4.39,7.88t-4.21,8q-2.11,4-4.24,8t-4.47,7.88Q201,72,202.64,70.5a26.71,26.71,0,0,1,3.56-2.76,19.71,19.71,0,0,1,4.21-2.05,15.28,15.28,0,0,1,5.1-.81,15.65,15.65,0,0,1,3.17.31,8.22,8.22,0,0,1,2.65,1,5.14,5.14,0,0,1,1.82,1.92,6.13,6.13,0,0,1,.68,3,12.58,12.58,0,0,1-.7,4.29,19.1,19.1,0,0,1-1.79,3.69,32.49,32.49,0,0,1-2.39,3.33q-1.3,1.59-2.47,3.22a23.55,23.55,0,0,0-2,3.41,11.29,11.29,0,0,0-1.07,3.85.89.89,0,0,1,0,.21.78.78,0,0,0,0,.21q0,1,.7,1.3a5.18,5.18,0,0,0,1.79.26,9.43,9.43,0,0,0,3-.55,19.74,19.74,0,0,0,3.25-1.46,37,37,0,0,0,3.28-2.05q1.64-1.14,3.12-2.34t2.73-2.31q1.25-1.12,2.13-1.95a3.41,3.41,0,0,1,1-.62,2.66,2.66,0,0,1,1-.21,2.08,2.08,0,0,1,1.59.7,2.69,2.69,0,0,1,.65,1.9,5.44,5.44,0,0,1-.75,2.5,9.28,9.28,0,0,1-2.57,2.81q-2.86,2.5-5.82,4.78a56.4,56.4,0,0,1-6,4.06,33.86,33.86,0,0,1-6,2.81,17.79,17.79,0,0,1-5.85,1,9.59,9.59,0,0,1-5.93-1.69q-2.24-1.69-2.24-5.33a13.84,13.84,0,0,1,.91-5,29.26,29.26,0,0,1,2.24-4.58q1.33-2.21,2.83-4.26a44.78,44.78,0,0,0,2.65-4,10,10,0,0,0,1-1.64,4,4,0,0,0,.34-1.64,1.92,1.92,0,0,0-.42-1.27,1.61,1.61,0,0,0-1.3-.49A11.1,11.1,0,0,0,205,75.54a20.81,20.81,0,0,0-4.78,3.85,41.21,41.21,0,0,0-4.06,5.12q-1.87,2.78-3.48,5.33-.73,1.15-1.48,2.63l-1.56,3q-.81,1.56-1.69,3.09a21.57,21.57,0,0,1-1.85,2.73,9.64,9.64,0,0,1-2,1.92,3.88,3.88,0,0,1-2.21.73,3.64,3.64,0,0,1-2.81-1.07,3.79,3.79,0,0,1-1-2.68,8.47,8.47,0,0,1,.42-2.52A24.84,24.84,0,0,1,179.79,94.47Z" style="fill:#786a5b"/><path d="M254.82,64.83q4.31,0,6.45,2.08a7.7,7.7,0,0,1,2.13,5.77,10.63,10.63,0,0,1-1.14,4.58,15.83,15.83,0,0,1-4,4.86,41.91,41.91,0,0,1-7.51,5A88.76,88.76,0,0,1,239,92.33a3.37,3.37,0,0,0,1.61,2.37,6.62,6.62,0,0,0,3.59.86,20.63,20.63,0,0,0,5.12-.7,42.15,42.15,0,0,0,5.41-1.79Q257.41,92,260,90.7t4.6-2.42q2.05-1.14,3.43-2c.92-.55,1.53-.9,1.85-1a2.1,2.1,0,0,1,.86-.36,5.46,5.46,0,0,1,.7-.05,1.8,1.8,0,0,1,1,.29,3,3,0,0,1,.7.68,2.36,2.36,0,0,1,.39.83,3.45,3.45,0,0,1,.1.75,7.35,7.35,0,0,1-.1,1.12,3.36,3.36,0,0,1-.78,1.48c-.18.18-.75.64-1.74,1.4s-2.26,1.66-3.82,2.7-3.37,2.14-5.43,3.3a63.15,63.15,0,0,1-6.55,3.2A51.47,51.47,0,0,1,248,103a29.65,29.65,0,0,1-7.38,1A12.13,12.13,0,0,1,231,99.56a14.25,14.25,0,0,1-2.57-4.68,17.41,17.41,0,0,1-.88-5.56,15.73,15.73,0,0,1,.88-4.91A25.5,25.5,0,0,1,231,79,33,33,0,0,1,235,73.75a29.9,29.9,0,0,1,5.43-4.55A28.18,28.18,0,0,1,247.1,66,24.44,24.44,0,0,1,254.82,64.83ZM252.94,72a2.49,2.49,0,0,0-.47-.05H252a8.81,8.81,0,0,0-3.69.78,12.46,12.46,0,0,0-3.15,2.05,16.16,16.16,0,0,0-2.55,2.89q-1.12,1.61-2,3.2a27.87,27.87,0,0,0-1.48,3q-.6,1.46-.91,2.44,1.82-.94,3.77-2.13t3.67-2.29q1.72-1.09,3-2t1.79-1.2A11,11,0,0,0,253.67,76a4.1,4.1,0,0,0,.88-2.21,1.64,1.64,0,0,0-.49-1.25A2.12,2.12,0,0,0,252.94,72Z" style="fill:#786a5b"/><path d="M297.4,69.67a19.73,19.73,0,0,1-.36,3.56,14.56,14.56,0,0,1-1.2,3.67,9,9,0,0,1-2.13,2.86,4.7,4.7,0,0,1-3.22,1.14,1.89,1.89,0,0,1-1.33-.31,1.61,1.61,0,0,1-.29-1.09c0-.31,0-.77,0-1.38s0-1.19,0-1.74a4.3,4.3,0,0,0-.26-1.59q-.26-.65-1.3-.65a5.24,5.24,0,0,0-2.68.91,17,17,0,0,0-3,2.37,30.66,30.66,0,0,0-2.89,3.3,38.36,38.36,0,0,0-2.52,3.74,22.47,22.47,0,0,0-1.77,3.67,9,9,0,0,0-.65,3A3.48,3.48,0,0,0,275.17,94a5.29,5.29,0,0,0,3.46,1,17.72,17.72,0,0,0,5-.78,39.63,39.63,0,0,0,5.28-2q2.62-1.19,5.07-2.6T298.41,87q2-1.27,3.35-2.18t1.77-1.12a3.51,3.51,0,0,1,1.56-.42,1.93,1.93,0,0,1,1.07.29,2.45,2.45,0,0,1,.7.68,2.61,2.61,0,0,1,.36.83,3.45,3.45,0,0,1,.1.75,7.35,7.35,0,0,1-.1,1.12,3.37,3.37,0,0,1-.78,1.48q-.26.31-1.69,1.59t-3.69,3q-2.26,1.72-5.2,3.67a52.21,52.21,0,0,1-6.29,3.56,46.35,46.35,0,0,1-6.94,2.68,24.83,24.83,0,0,1-7.07,1.07,12.49,12.49,0,0,1-4.71-.83,10,10,0,0,1-3.46-2.26,9.52,9.52,0,0,1-2.13-3.35,11.3,11.3,0,0,1-.73-4.06,16.21,16.21,0,0,1,1.09-5.38,34.49,34.49,0,0,1,3-6.21,48.54,48.54,0,0,1,4.52-6.24,39,39,0,0,1,5.64-5.46,29.55,29.55,0,0,1,6.34-3.85,16.42,16.42,0,0,1,6.68-1.46,8.72,8.72,0,0,1,2.16.26,5.19,5.19,0,0,1,1.77.81,3.8,3.8,0,0,1,1.2,1.48A5.23,5.23,0,0,1,297.4,69.67Z" style="fill:#786a5b"/><path d="M315.65,76.06q2-2,4.19-4a37.66,37.66,0,0,1,4.63-3.59,25.48,25.48,0,0,1,5.07-2.57,15.81,15.81,0,0,1,5.56-1,16.87,16.87,0,0,1,3.54.39,10.86,10.86,0,0,1,3.3,1.27,7.46,7.46,0,0,1,2.42,2.29,6,6,0,0,1,.94,3.43,12,12,0,0,1-1.53,6,18.53,18.53,0,0,1-4,4.84,30.67,30.67,0,0,1-5.43,3.77,54,54,0,0,1-5.85,2.78,5.93,5.93,0,0,0-1.35.81,6.76,6.76,0,0,0-1.07,1,5.42,5.42,0,0,0-.7,1.09,2.2,2.2,0,0,0-.26.91,1.55,1.55,0,0,0,.39,1.07,1.77,1.77,0,0,0,1.38.44,14.58,14.58,0,0,0,4.37-.78,43.25,43.25,0,0,0,5.69-2.37q3.25-1.58,7.44-4T354,82.09a3.31,3.31,0,0,1,1.66-.52,1.89,1.89,0,0,1,1.56.73,3,3,0,0,1,.57,1.92,6.79,6.79,0,0,1-1.07,3.3A11.08,11.08,0,0,1,353.19,91q-3.49,2.13-7.12,4.42a82.81,82.81,0,0,1-7.49,4.19,50.93,50.93,0,0,1-7.9,3.12,28.77,28.77,0,0,1-8.32,1.22q-7.38,0-7.38-6.4a12,12,0,0,1,1.43-6,18.21,18.21,0,0,1,3.48-4.5,27,27,0,0,1,4.29-3.3q2.23-1.38,3.85-2.47a22.51,22.51,0,0,0,2.34-1.56,17.32,17.32,0,0,0,1.95-1.72,8.28,8.28,0,0,0,1.35-1.79,3.84,3.84,0,0,0,.49-1.85q0-1.51-1.4-1.51-5.2,0-14.56,10-2.13,2.29-3.9,4.45T311,91.66q-1.54,2.08-2.94,4t-2.76,3.72q-4.06,4.58-7.23,4.58a3.47,3.47,0,0,1-2.18-.55,2.54,2.54,0,0,1-.68-2.05V101a2.63,2.63,0,0,1,.05-.47,14.83,14.83,0,0,1,.88-3.17q.78-2.13,1.95-4.84t2.6-5.77q1.43-3.07,2.83-6t2.65-5.51l2.08-4.29,16.43-33.54a4.32,4.32,0,0,1,1-1.3A8.43,8.43,0,0,1,327.11,35a7.73,7.73,0,0,1,1.72-.78,6.13,6.13,0,0,1,1.85-.29,4.65,4.65,0,0,1,3.25.88,2.87,2.87,0,0,1,.91,2.13,6,6,0,0,1-.55,2.39A15.26,15.26,0,0,1,333,41.64q-2.18,3.9-4.34,8.29t-4.29,8.92q-2.13,4.52-4.32,8.92T315.65,76.06Z" style="fill:#786a5b"/><path d="M379.29,95.45a8.84,8.84,0,0,1-1,3.07,10.53,10.53,0,0,1-1.92,2.57,8.84,8.84,0,0,1-2.6,1.77,7.34,7.34,0,0,1-3,.65A4.84,4.84,0,0,1,367,102a5.37,5.37,0,0,1-1.4-3.77,7.62,7.62,0,0,1,.73-3.28,9.81,9.81,0,0,1,4.73-4.73,7.55,7.55,0,0,1,3.22-.73A4.8,4.8,0,0,1,378,90.93a5.22,5.22,0,0,1,1.35,3.69V95A2.47,2.47,0,0,1,379.29,95.45Zm24.49-55.16q-2.86,5.46-5.2,9.8T394,58.54q-2.24,4.11-4.58,8.45t-5.2,9.8A5.13,5.13,0,0,1,382,79a5.92,5.92,0,0,1-2.7.75,2.93,2.93,0,0,1-1.69-.44,1.54,1.54,0,0,1-.65-1.38,2.83,2.83,0,0,1,.26-1.2q1.56-3.64,2.91-6.73t2.57-6l2.37-5.56q1.14-2.7,2.37-5.54L390,47q1.35-3.12,2.91-6.76a5.24,5.24,0,0,1,1.17-1.66,7,7,0,0,1,1.74-1.22,8.73,8.73,0,0,1,2.08-.73,10.4,10.4,0,0,1,2.18-.23,6,6,0,0,1,2.83.62,2.09,2.09,0,0,1,1.17,2A3,3,0,0,1,403.78,40.29Z" style="fill:#786a5b"/><path d="M51.39,85.41l-14.5-14.5A4.9,4.9,0,0,1,43.83,64l7.57,7.57L73.67,49.27a4.9,4.9,0,1,1,6.93,6.93Z" style="fill:#fff"/></svg><svg height="128" viewBox="0 0 417 128" width="416.38" x="10" y="286"><defs><style>.cls-1{fill:#fff;}</style></defs><title>check-txt2</title><path class="cls-1" d="M196.22,37a16.07,16.07,0,0,1-.44,3.38,28.28,28.28,0,0,1-1.28,4.11,34.54,34.54,0,0,1-2,4.24,20.61,20.61,0,0,1-2.68,3.79,13.43,13.43,0,0,1-3.27,2.73,7.29,7.29,0,0,1-3.8,1,10.36,10.36,0,0,1-1.22-.08,5.92,5.92,0,0,1-1.51-.36,3.56,3.56,0,0,1-1.3-.86,2.09,2.09,0,0,1-.54-1.5,3.9,3.9,0,0,1,.34-1.46,7.74,7.74,0,0,1,1.22-1.92c.62-.7,1.3-1.52,2-2.47a28,28,0,0,0,2-3,25.19,25.19,0,0,0,1.48-3.07,7.46,7.46,0,0,0,.6-2.7,3.85,3.85,0,0,0-.7-2.42,2.86,2.86,0,0,0-2.42-.91,11.15,11.15,0,0,0-5,1.45,33.63,33.63,0,0,0-5.88,4A69.31,69.31,0,0,0,165.54,47q-3.16,3.41-6.13,7.28t-5.59,8.06a83.84,83.84,0,0,0-4.58,8.26,53.23,53.23,0,0,0-3.06,7.86,24.07,24.07,0,0,0-1.12,6.83,8.82,8.82,0,0,0,2,6.09q2,2.28,6.7,2.28a19.87,19.87,0,0,0,6.5-1.69,50.31,50.31,0,0,0,7.2-3.38q2.89-1.68,5.83-3.74c2-1.37,3.82-2.68,5.59-3.95s3.38-2.41,4.83-3.43a23.4,23.4,0,0,1,3.59-2.16,1,1,0,0,1,.62-.21c.52,0,.88.43,1.07,1.28a13.27,13.27,0,0,1,.28,2.88,11.87,11.87,0,0,1-.23,2.16,7.48,7.48,0,0,1-1.48,2.94q-.57.67-2.13,2.28t-3.9,3.64c-1.56,1.36-3.35,2.76-5.36,4.22a51.77,51.77,0,0,1-6.52,4,59.66,59.66,0,0,1-9.05,3.59,32.64,32.64,0,0,1-9.64,1.76,25.76,25.76,0,0,1-8.27-1.17,15.15,15.15,0,0,1-5.62-3.24,12.51,12.51,0,0,1-3.19-5,18.83,18.83,0,0,1-1-6.32,35.57,35.57,0,0,1,1.3-9.15A61.67,61.67,0,0,1,137.81,69,84.5,84.5,0,0,1,143.32,59a93,93,0,0,1,7-9.64,84.53,84.53,0,0,1,8.13-8.55,67,67,0,0,1,8.84-6.87,45.88,45.88,0,0,1,9.1-4.57,26.21,26.21,0,0,1,9-1.67,17,17,0,0,1,4.15.5A9.89,9.89,0,0,1,193,29.73a7.52,7.52,0,0,1,2.34,2.89A10.17,10.17,0,0,1,196.22,37Z"/><path class="cls-1" d="M179.79,94.47q1.25-2.66,2.86-5.91c1.07-2.16,2.16-4.31,3.25-6.44S188,78,189,76s1.79-3.56,2.45-4.91l17.15-33.74a4.24,4.24,0,0,1,1-1.3A7.67,7.67,0,0,1,211,35a7.81,7.81,0,0,1,1.77-.78,6.34,6.34,0,0,1,1.87-.29,4.56,4.56,0,0,1,3.17.86,2.82,2.82,0,0,1,.88,2.11,5.87,5.87,0,0,1-.57,2.41,15.83,15.83,0,0,1-1.3,2.37q-2.3,3.9-4.39,7.88t-4.21,8q-2.12,4-4.24,8t-4.47,7.88Q201,72,202.64,70.5a26.2,26.2,0,0,1,3.56-2.76,20,20,0,0,1,4.21-2,15.24,15.24,0,0,1,5.1-.81,16.23,16.23,0,0,1,3.17.31,8.22,8.22,0,0,1,2.65,1,5.17,5.17,0,0,1,1.82,1.92,6.12,6.12,0,0,1,.68,3,12.78,12.78,0,0,1-.7,4.29,19.1,19.1,0,0,1-1.8,3.69,32.58,32.58,0,0,1-2.39,3.33c-.87,1.06-1.69,2.13-2.47,3.22a24.13,24.13,0,0,0-2,3.41,11.16,11.16,0,0,0-1.06,3.85.64.64,0,0,1,0,.2.78.78,0,0,0,0,.21c0,.7.23,1.13.7,1.3a5.06,5.06,0,0,0,1.79.26,9.55,9.55,0,0,0,3-.54,20.5,20.5,0,0,0,3.25-1.46,36.64,36.64,0,0,0,3.27-2c1.09-.76,2.13-1.55,3.12-2.34s1.9-1.57,2.73-2.32,1.54-1.39,2.13-2a3.48,3.48,0,0,1,1-.62,2.67,2.67,0,0,1,1-.21,2.09,2.09,0,0,1,1.58.7,2.66,2.66,0,0,1,.65,1.9,5.45,5.45,0,0,1-.75,2.5,9.22,9.22,0,0,1-2.57,2.8c-1.91,1.67-3.85,3.26-5.83,4.79a55.73,55.73,0,0,1-6,4,33.68,33.68,0,0,1-6,2.81,17.89,17.89,0,0,1-5.85,1,9.57,9.57,0,0,1-5.93-1.69q-2.23-1.68-2.23-5.33a13.8,13.8,0,0,1,.91-5,29.22,29.22,0,0,1,2.23-4.57c.89-1.47,1.83-2.9,2.84-4.26s1.88-2.72,2.65-4a10.93,10.93,0,0,0,1-1.64,4,4,0,0,0,.34-1.64,1.89,1.89,0,0,0-.42-1.27,1.61,1.61,0,0,0-1.3-.5A11.17,11.17,0,0,0,205,75.54a21.12,21.12,0,0,0-4.78,3.85,41.28,41.28,0,0,0-4,5.12c-1.25,1.85-2.42,3.63-3.49,5.33-.49.76-1,1.64-1.48,2.62s-1,2-1.56,3.05-1.1,2.07-1.69,3.09a22,22,0,0,1-1.84,2.73,9.54,9.54,0,0,1-2,1.92,3.84,3.84,0,0,1-2.21.73,3.64,3.64,0,0,1-2.81-1.07,3.75,3.75,0,0,1-1-2.67,8.31,8.31,0,0,1,.42-2.52A24.87,24.87,0,0,1,179.79,94.47Z"/><path class="cls-1" d="M254.82,64.83q4.31,0,6.44,2.08a7.7,7.7,0,0,1,2.13,5.77,10.66,10.66,0,0,1-1.14,4.58,15.91,15.91,0,0,1-3.95,4.86,42.66,42.66,0,0,1-7.51,5A88.21,88.21,0,0,1,239,92.33a3.37,3.37,0,0,0,1.61,2.37,6.65,6.65,0,0,0,3.59.86,21,21,0,0,0,5.12-.7,42.35,42.35,0,0,0,5.41-1.8c1.78-.73,3.52-1.51,5.22-2.36s3.23-1.66,4.6-2.42,2.52-1.42,3.44-2,1.53-.9,1.84-1a2.12,2.12,0,0,1,.86-.36,4.51,4.51,0,0,1,.7-.05,1.79,1.79,0,0,1,1,.28,2.83,2.83,0,0,1,.7.68,2.33,2.33,0,0,1,.39.83,3.47,3.47,0,0,1,.11.75,7.13,7.13,0,0,1-.11,1.12,3.28,3.28,0,0,1-.78,1.48q-.25.27-1.74,1.41t-3.82,2.7q-2.34,1.56-5.43,3.3a63.16,63.16,0,0,1-6.55,3.2A51.71,51.71,0,0,1,248,103a29.56,29.56,0,0,1-7.38,1A12.13,12.13,0,0,1,231,99.56a14.21,14.21,0,0,1-2.58-4.68,17.45,17.45,0,0,1-.88-5.56,15.71,15.71,0,0,1,.88-4.91A25.74,25.74,0,0,1,231,79,32.93,32.93,0,0,1,235,73.75a29.14,29.14,0,0,1,5.44-4.55A27.42,27.42,0,0,1,247.1,66,24.29,24.29,0,0,1,254.82,64.83ZM252.94,72a2.79,2.79,0,0,0-.46,0H252a8.79,8.79,0,0,0-3.69.78,12.32,12.32,0,0,0-3.15,2.06,16.74,16.74,0,0,0-2.55,2.88c-.74,1.08-1.41,2.14-2,3.2a29,29,0,0,0-1.48,3c-.4,1-.7,1.79-.91,2.44,1.21-.62,2.47-1.33,3.77-2.13s2.52-1.56,3.67-2.28,2.13-1.39,3-2,1.45-1,1.8-1.2A11,11,0,0,0,253.67,76a4.06,4.06,0,0,0,.89-2.21,1.62,1.62,0,0,0-.5-1.24A2.06,2.06,0,0,0,252.94,72Z"/><path class="cls-1" d="M297.4,69.67a19,19,0,0,1-.37,3.56,14.4,14.4,0,0,1-1.19,3.66,9,9,0,0,1-2.13,2.86,4.7,4.7,0,0,1-3.23,1.15,1.87,1.87,0,0,1-1.32-.32,1.6,1.6,0,0,1-.29-1.09q0-.46,0-1.38c0-.6,0-1.18,0-1.74a4.12,4.12,0,0,0-.26-1.58c-.17-.44-.6-.65-1.3-.65a5.16,5.16,0,0,0-2.67.91,16.58,16.58,0,0,0-3,2.36,29.6,29.6,0,0,0-2.88,3.3,37.26,37.26,0,0,0-2.52,3.75,21.77,21.77,0,0,0-1.77,3.66,8.89,8.89,0,0,0-.65,3A3.49,3.49,0,0,0,275.17,94a5.33,5.33,0,0,0,3.46,1,17.72,17.72,0,0,0,5-.78,39.42,39.42,0,0,0,5.28-2q2.63-1.19,5.07-2.6c1.63-.93,3.11-1.83,4.44-2.68s2.45-1.57,3.36-2.18,1.48-1,1.76-1.12a3.63,3.63,0,0,1,1.56-.41,1.94,1.94,0,0,1,1.07.28,2.4,2.4,0,0,1,.7.68,2.93,2.93,0,0,1,.37.83,4.09,4.09,0,0,1,.1.75,8.39,8.39,0,0,1-.1,1.12,3.49,3.49,0,0,1-.78,1.48c-.18.21-.74.74-1.69,1.59s-2.19,1.85-3.7,3-3.24,2.37-5.2,3.67a52.14,52.14,0,0,1-6.29,3.56,45.83,45.83,0,0,1-6.94,2.67,24.77,24.77,0,0,1-7.07,1.07,12.47,12.47,0,0,1-4.7-.83,9.9,9.9,0,0,1-3.46-2.26,9.44,9.44,0,0,1-2.13-3.36,11.23,11.23,0,0,1-.73-4,16.11,16.11,0,0,1,1.09-5.38,34.36,34.36,0,0,1,3-6.22,48.59,48.59,0,0,1,4.52-6.24,39.24,39.24,0,0,1,5.64-5.46,29.72,29.72,0,0,1,6.34-3.84,16.45,16.45,0,0,1,6.69-1.46,8.73,8.73,0,0,1,2.15.26,5.14,5.14,0,0,1,1.77.81,3.85,3.85,0,0,1,1.2,1.48A5.26,5.26,0,0,1,297.4,69.67Z"/><path class="cls-1" d="M315.65,76.06c1.31-1.35,2.71-2.69,4.18-4a39.1,39.1,0,0,1,4.63-3.59,25.71,25.71,0,0,1,5.07-2.57,15.77,15.77,0,0,1,5.56-1,16.9,16.9,0,0,1,3.54.39,10.85,10.85,0,0,1,3.3,1.28,7.55,7.55,0,0,1,2.42,2.28,6.08,6.08,0,0,1,.93,3.43,12.08,12.08,0,0,1-1.53,6,18.46,18.46,0,0,1-4,4.83,30.66,30.66,0,0,1-5.43,3.77,54.82,54.82,0,0,1-5.85,2.78,5.76,5.76,0,0,0-1.35.81,6.62,6.62,0,0,0-1.07,1,5.55,5.55,0,0,0-.7,1.09,2.28,2.28,0,0,0-.26.91,1.57,1.57,0,0,0,.39,1.07,1.8,1.8,0,0,0,1.38.44,14.64,14.64,0,0,0,4.37-.78,43.85,43.85,0,0,0,5.69-2.37c2.16-1,4.64-2.4,7.43-4s6-3.55,9.65-5.77a3.36,3.36,0,0,1,1.66-.52,1.89,1.89,0,0,1,1.56.73,3,3,0,0,1,.57,1.92,6.76,6.76,0,0,1-1.06,3.3A10.93,10.93,0,0,1,353.19,91c-2.33,1.43-4.7,2.9-7.13,4.42a80.66,80.66,0,0,1-7.48,4.19,50.37,50.37,0,0,1-7.91,3.12,28.77,28.77,0,0,1-8.31,1.22Q315,104,315,97.59a12.11,12.11,0,0,1,1.43-6,18.21,18.21,0,0,1,3.49-4.5,26.4,26.4,0,0,1,4.29-3.3c1.48-.91,2.77-1.74,3.84-2.47a21.62,21.62,0,0,0,2.34-1.56,16.55,16.55,0,0,0,1.95-1.71,8.3,8.3,0,0,0,1.35-1.8,3.8,3.8,0,0,0,.5-1.84c0-1-.47-1.51-1.41-1.51q-5.19,0-14.55,10-2.15,2.28-3.9,4.44T311,91.66q-1.53,2.09-2.93,4t-2.76,3.72q-4.05,4.57-7.23,4.57a3.44,3.44,0,0,1-2.18-.55,2.52,2.52,0,0,1-.68-2.05V101a2.08,2.08,0,0,1,.06-.46,14.5,14.5,0,0,1,.88-3.17c.52-1.42,1.17-3,2-4.84s1.64-3.73,2.6-5.77,1.9-4,2.83-6,1.82-3.79,2.66-5.51l2.08-4.29,16.42-33.53a4.24,4.24,0,0,1,1-1.3A8.11,8.11,0,0,1,327.11,35a7.63,7.63,0,0,1,1.72-.78,6.1,6.1,0,0,1,1.84-.29,4.63,4.63,0,0,1,3.25.89,2.85,2.85,0,0,1,.91,2.13,6,6,0,0,1-.54,2.39A15.5,15.5,0,0,1,333,41.64q-2.17,3.9-4.34,8.29t-4.29,8.92q-2.13,4.53-4.31,8.92T315.65,76.06Z"/><path class="cls-1" d="M379.29,95.45a8.85,8.85,0,0,1-1,3.07,10.46,10.46,0,0,1-1.92,2.57,9,9,0,0,1-2.6,1.77,7.43,7.43,0,0,1-3,.65A4.82,4.82,0,0,1,367,102a5.36,5.36,0,0,1-1.41-3.77,7.62,7.62,0,0,1,.73-3.28,10,10,0,0,1,2-2.78,9.83,9.83,0,0,1,2.78-2,7.65,7.65,0,0,1,3.23-.73A4.8,4.8,0,0,1,378,90.93a5.21,5.21,0,0,1,1.35,3.69V95A2.58,2.58,0,0,1,379.29,95.45Zm24.49-55.16q-2.86,5.46-5.2,9.8T394,58.54q-2.24,4.11-4.57,8.45t-5.2,9.8A5.15,5.15,0,0,1,382,79.05a6,6,0,0,1-2.7.75,2.89,2.89,0,0,1-1.69-.44A1.53,1.53,0,0,1,377,78a2.75,2.75,0,0,1,.26-1.19c1-2.43,2-4.67,2.91-6.74s1.76-4,2.57-6,1.61-3.76,2.37-5.56,1.55-3.65,2.36-5.54l2.58-6q1.35-3.12,2.91-6.76a5.21,5.21,0,0,1,1.17-1.66,6.83,6.83,0,0,1,1.74-1.23,8.83,8.83,0,0,1,2.08-.72,10.2,10.2,0,0,1,2.19-.24,5.91,5.91,0,0,1,2.83.63,2.07,2.07,0,0,1,1.17,2A3.14,3.14,0,0,1,403.78,40.29Z"/><path class="cls-1" d="M60.41,14.5a49.92,49.92,0,1,0,49.92,49.91A49.92,49.92,0,0,0,60.41,14.5Zm20.2,41.7L51.39,85.41l-14.5-14.5A4.9,4.9,0,1,1,43.83,64l7.56,7.57L73.67,49.27a4.9,4.9,0,1,1,6.94,6.93Z"/></svg><svg height="128" viewBox="0 0 200 128" width="200" x="437" y="148"><title>freedial</title><path d="M179.42,101.79q0-2.05-2.5-2.05h-1.84v4.21h1.8a2.7,2.7,0,0,0,1.84-.61A2,2,0,0,0,179.42,101.79Z" style="fill:none"/><path d="M177.52,96.54a8.21,8.21,0,1,0,8.21,8.21A8.22,8.22,0,0,0,177.52,96.54Zm2.74,14.22-3.6-5.58h-1.58v5.58h-1.43V98.49h3.47a4.16,4.16,0,0,1,2.76.85,2.9,2.9,0,0,1,1,2.36,3,3,0,0,1-.74,2,3.8,3.8,0,0,1-2,1.18l3.92,5.88Z" style="fill:none"/><path d="M34.27,72c0,12.86,10.12,19.08,18.27,19.08S70.8,84.84,70.8,72c0-10-9.88-17.94-18.27-22.71C44.15,54,34.27,62,34.27,72Z" style="fill:#1b9ed8"/><path d="M15.2,112.82H163.78v-97H15.2Zm0-81.88c15.09,0,28.45,3.76,37.54,8.49a80,80,0,0,1,36.73-8.49,80,80,0,0,1,36.73,8.49c9.09-4.72,22.46-8.49,37.56-8.49v8.49c-8.92,0-19.77,1.67-28.28,5.36,9.18,6.14,18.06,15.44,18.06,27.18A27.6,27.6,0,0,1,126.2,99.35,27.22,27.22,0,0,1,99.3,72c0-11.74,8.44-21,17.62-27.18A72.93,72.93,0,0,0,62,44.8C71.21,50.93,79.65,60.24,79.65,72a27.22,27.22,0,0,1-26.9,27.38C38.41,99.35,25.2,87.5,25.2,72c0-11.74,9.08-21,18.26-27.18C35,41.1,24.13,39.43,15.21,39.43Z" style="fill:#1b9ed8"/><path d="M108.52,71.77c0,12.85,10.11,19.08,18.26,19.08S145,84.62,145,71.77c0-10-9.87-17.95-18.26-22.71C118.39,53.82,108.52,61.79,108.52,71.77Z" style="fill:#1b9ed8"/><path d="M177.52,95.47a9.29,9.29,0,1,0,9.29,9.28A9.28,9.28,0,0,0,177.52,95.47Zm0,17.49a8.21,8.21,0,1,1,8.21-8.2A8.22,8.22,0,0,1,177.52,113Z" style="fill:#231815"/><path d="M180.16,103.7a3,3,0,0,0,.74-2,2.9,2.9,0,0,0-1-2.36,4.16,4.16,0,0,0-2.76-.85h-3.47v12.27h1.43v-5.58h1.58l3.6,5.58H182l-3.92-5.88A3.8,3.8,0,0,0,180.16,103.7Zm-5.08.25V99.74h1.84q2.5,0,2.5,2.05a2,2,0,0,1-.7,1.55,2.7,2.7,0,0,1-1.84.61Z" style="fill:#231815"/><path d="M25.2,72c0,15.52,13.22,27.38,27.55,27.38A27.22,27.22,0,0,0,79.65,72c0-11.74-8.43-21-17.62-27.18a72.93,72.93,0,0,1,54.89,0C107.74,50.93,99.3,60.24,99.3,72a27.22,27.22,0,0,0,26.9,27.38A27.6,27.6,0,0,0,153.55,72c0-11.74-8.88-21-18.06-27.18,8.5-3.69,19.35-5.36,28.28-5.36V30.94c-15.1,0-28.48,3.76-37.56,8.49a80,80,0,0,0-36.73-8.49,80,80,0,0,0-36.73,8.49c-9.08-4.72-22.44-8.49-37.54-8.49v8.49c8.92,0,19.75,1.67,28.25,5.36C34.28,50.93,25.2,60.24,25.2,72ZM126.78,49.06C135.17,53.82,145,61.79,145,71.77c0,12.85-10.11,19.08-18.26,19.08s-18.26-6.23-18.26-19.08C108.52,61.79,118.39,53.82,126.78,49.06ZM70.8,72c0,12.86-10.11,19.08-18.27,19.08S34.27,84.84,34.27,72c0-10,9.88-17.94,18.27-22.71C60.92,54,70.8,62,70.8,72Z" style="fill:#fff"/></svg><svg height="128" viewBox="0 0 160 128" width="160" x="437" y="286"><title>free</title><path d="M40.89,15.13c-19.42,0-30.39,14-30.39,49.69s10.34,49.94,30.14,49.94,30.52-14.5,30.52-50.2S60.31,15.13,40.89,15.13Zm0,12.49c10.09,0,14,8.7,14,37.08s-4,37.58-14.25,37.58c-10,0-13.87-9.21-13.87-37.58S31.05,27.61,40.89,27.61Z" style="fill:#ee767a"/><path d="M149.23,74.86c0-8.07.13-12.3.13-12.68,0-.69-.06-.76-.69-.76-.38,0-2.52.13-8.51.13h-32c-6,0-8.13-.13-8.58-.13-.63,0-.69.06-.69.76,0,.38.13,4.35.13,12.42v27c0,8.07-.13,11.92-.13,12.36,0,.63.06.69.69.69h5.49c.69,0,.76-.06.76-.69,0-.38-.13-3.91-.13-10.78V89.74h36.83v15.77c0,1.58-.57,2.14-2.46,2.14-1.51,0-4.48-.06-7.13-.32a18.26,18.26,0,0,1,1.64,4.86c.38,2,.44,2,2.46,2,6.68,0,8.76-.44,10.28-1.64s2-2.71,2-5.23c0-2.14-.13-5.42-.13-10.91Zm-6.68-7.13V83.62H127.1V67.73ZM105.72,83.62V67.73h14.82V83.62Z" style="fill:#ee767a"/></svg><svg height="128" viewBox="0 0 128 128" width="128" x="647" y="148"><title>guide</title><path d="M35.13,15.11A3,3,0,0,0,30,17.26V78.61a7.43,7.43,0,0,0,2.14,5.23L63.93,116V44.24Z" style="fill:#f9aa41"/><path d="M92.72,15.11,63.93,44.24V116L95.72,83.84a7.43,7.43,0,0,0,2.14-5.23V17.26A3,3,0,0,0,92.72,15.11Z" style="fill:#ed7700"/></svg><svg height="128" viewBox="0 0 128 128" width="128" x="607" y="286"><title>customer</title><polygon points="42.77 43.14 46.83 26.38 79.33 24.1 84.91 39.58 86.94 46.95 88.88 52.03 85.67 59.39 80.85 63.6 76.53 72.85 76.79 80.97 82.16 90.04 73.74 104.33 61.63 106.87 48.98 95.8 45.77 89.34 51.84 83.83 52.67 73.35 48.1 65.83 44.03 59.39 39.54 54.56 39.54 49.49 42.26 45.42 42.77 43.14" style="fill:#fff"/><path d="M109.45,99.13c-3.2-7.7-9.84-9.71-21.9-13.35-1.35-.4-2.8-.85-4.3-1.31-.47-.22-.91-.45-1.33-.68l-.17-.1a11,11,0,0,1-1.48-1,6.45,6.45,0,0,1-1.52-1.76,5.69,5.69,0,0,1-.7-2.27A7.58,7.58,0,0,1,78,77.4a26.79,26.79,0,0,1,.57-5.3,20.37,20.37,0,0,0,2.65-3.9,42.41,42.41,0,0,0,2.4-5.49,10.63,10.63,0,0,0,1.51-.84,10.8,10.8,0,0,0,3.09-3.22,16.81,16.81,0,0,0,2.1-5.33,8.08,8.08,0,0,0,.2-1.79,8.17,8.17,0,0,0-.77-3.44,9.36,9.36,0,0,0-1.27-2c.25-.94.57-2.21.84-3.7a39.76,39.76,0,0,0,.7-7.14,26.5,26.5,0,0,0-.47-5.13,19,19,0,0,0-1.17-3.78,14.09,14.09,0,0,0-3.57-5,14.69,14.69,0,0,0-5.61-3,19.45,19.45,0,0,0-2.42-2.46,13.58,13.58,0,0,0-2.17-1.5,12.41,12.41,0,0,0-3.46-1.28,17.65,17.65,0,0,0-3.64-.34c-1.73,0-3.54.17-5.55.37-.76.08-1.4.17-1.95.27-.82.15-1.44.3-1.93.4a6,6,0,0,1-.68.11,4.26,4.26,0,0,1-.66,0,7.67,7.67,0,0,1-1.16-.1,25.91,25.91,0,0,1-3.85-.86c-.53-.16-1-.32-1.34-.45l-.46-.18-.27-.12a1.79,1.79,0,0,0-.82-.19,2,2,0,0,0-.51.06l-.31.11a2.76,2.76,0,0,0-.43.22,7.19,7.19,0,0,0-.7.48,16.87,16.87,0,0,0-1.36,1.19,22.68,22.68,0,0,0-2.22,2.48,15.71,15.71,0,0,0-1,1.45,10.39,10.39,0,0,0-.77,1.56,41.43,41.43,0,0,0-2.13,7.39,34,34,0,0,0-.58,6.26,42.32,42.32,0,0,0,.85,8c0,.11,0,.21,0,.32s0,.43.05.65.07.68.1,1,0,.27,0,.37,0,.09,0,.13v0h0v.19l.41,1.83a9.4,9.4,0,0,0-1.5,2.16,8,8,0,0,0-.68,5.45h0a18.28,18.28,0,0,0,1.27,3.8A11.86,11.86,0,0,0,42.22,61a10.28,10.28,0,0,0,2.61,1.7,42.29,42.29,0,0,0,2.4,5.48,20.12,20.12,0,0,0,2.65,3.9,26.91,26.91,0,0,1,.57,5.31,7.57,7.57,0,0,1-.1,1.24,6,6,0,0,1-.4,1.64,5.65,5.65,0,0,1-1.31,1.92,10.23,10.23,0,0,1-2.2,1.61l-.68.37c-.23.12-.5.22-.74.33-1.45.45-2.85.88-4.16,1.27C28.81,89.42,22.15,91.43,19,99.13c-1.34,3.25-4,15.18-4.08,15.68a1.28,1.28,0,0,0,.28,1.13,1.32,1.32,0,0,0,1.06.52h95.95a1.32,1.32,0,0,0,1.06-.52,1.37,1.37,0,0,0,.28-1.13C113.4,114.31,110.79,102.38,109.45,99.13ZM78.69,85.81,68.5,101.7l-1.08-7.48,2.94-3.12-1.9-3.17,8-4.23a9,9,0,0,0,.71.81A12,12,0,0,0,78.69,85.81ZM49.15,30c9.34,2.08,27.61-1.89,27.61-1.89a17.22,17.22,0,0,0,3.31,8.69c1.65,2.2,2.9,6,3.68,9h-.08a.64.64,0,0,1-.6-.6c-.12-.56-.64-.73-1.48-.84a38.74,38.74,0,0,0-6.66-.22c-8,.39-7.37,1.11-10.5,1.11s-2.53-.72-10.49-1.11a38.74,38.74,0,0,0-6.66.22c-.83.11-1.36.28-1.47.84a.64.64,0,0,1-.6.6h0C45.47,42.27,48.77,37.84,49.15,30ZM81.47,50s0,4.61-3.14,6.17a8.46,8.46,0,0,1-3.72.82,7.45,7.45,0,0,1-3.76-.93,4.93,4.93,0,0,1-2.3-3c-.09-.3-.17-.6-.25-.89-.25-.89-.91-3.35.49-4.44.9-.71,3.71-1.15,6.4-1.15,2.45,0,4.94.34,5.67,1.1A3.08,3.08,0,0,1,81.47,50Zm-20.9,2.21-.25.89a4.94,4.94,0,0,1-2.29,3,7.47,7.47,0,0,1-3.76.93,8.47,8.47,0,0,1-3.72-.82c-3.1-1.56-3.14-6.13-3.14-6.17A3.08,3.08,0,0,1,48,47.74c.73-.76,3.22-1.1,5.67-1.1,2.69,0,5.49.45,6.4,1.15C61.48,48.89,60.82,51.35,60.57,52.24ZM50.28,66.55a41.72,41.72,0,0,1-2.45-5.73l-.27-.77-.77-.28a7.06,7.06,0,0,1-3.64-3,13.37,13.37,0,0,1-1.65-4.24,4.57,4.57,0,0,1,.4-3.13A6.22,6.22,0,0,1,43,47.86a26,26,0,0,0,1.69,2.39c.26.26.44.23.56,0,.15,1.7.86,5.52,4.17,7.29C53.65,59.77,59.9,58.94,62,54c1-2.23,1-4.42,2.42-4.42S65.9,51.75,66.86,54c2.12,5,8.37,5.79,12.56,3.56s4.22-7.73,4.22-8.12c0-.23.24-.39.56-.39a.53.53,0,0,0,.31-.1c.14.66.21,1.05.21,1.05s.4-.76,1-1.78a6,6,0,0,1,.88,1.34,4.72,4.72,0,0,1,.45,2,4.54,4.54,0,0,1-.12,1,15,15,0,0,1-1,3.09,8.47,8.47,0,0,1-2,2.78,7,7,0,0,1-2.27,1.35l-.77.28-.27.77a41.71,41.71,0,0,1-2.45,5.74,16.29,16.29,0,0,1-2.46,3.53l-.33.35-.1.47a30.68,30.68,0,0,0-.75,6.49A11.26,11.26,0,0,0,74.61,79a9.49,9.49,0,0,0,.61,2.51l0,.11L64.75,87.14,53.1,81.74A9.45,9.45,0,0,0,53.8,79a10.77,10.77,0,0,0,.11-1.59,31,31,0,0,0-.75-6.5l-.11-.47-.33-.35A16.13,16.13,0,0,1,50.28,66.55Zm-.09,18.91a10.89,10.89,0,0,0,1.66-1.64l8.89,4.12-1.9,3.16,2.94,3.12-1,6.75-11-15.2Z" style="fill:#e1740f"/></svg><svg height="128" viewBox="0 0 128 128" width="128" x="10" y="424"><title>customer2</title><polygon points="43.04 43.91 47.1 27.15 79.6 24.87 85.19 40.36 87.22 47.72 89.16 52.8 85.95 60.16 81.12 64.37 76.81 73.62 77.06 81.74 82.43 90.81 74.02 105.1 61.91 107.64 49.25 96.57 46.04 90.11 52.12 84.6 52.94 74.13 48.37 66.6 44.31 60.16 39.81 55.34 39.81 50.26 42.53 46.2 43.04 43.91" style="fill:#fff"/><path d="M109.72,99.9c-3.2-7.7-9.84-9.71-21.9-13.35-1.35-.4-2.8-.85-4.3-1.31-.47-.22-.91-.45-1.33-.68l-.17-.1a11,11,0,0,1-1.48-1A6.45,6.45,0,0,1,79,81.68a5.69,5.69,0,0,1-.7-2.27,7.58,7.58,0,0,1-.09-1.24,26.79,26.79,0,0,1,.57-5.3A20.37,20.37,0,0,0,81.47,69a42.41,42.41,0,0,0,2.4-5.49,10.63,10.63,0,0,0,1.51-.84,10.8,10.8,0,0,0,3.09-3.22,16.81,16.81,0,0,0,2.1-5.33,8.08,8.08,0,0,0,.2-1.79A8.17,8.17,0,0,0,90,48.86a9.36,9.36,0,0,0-1.27-2c.25-.94.57-2.21.84-3.7a39.76,39.76,0,0,0,.7-7.14,26.5,26.5,0,0,0-.47-5.13,19,19,0,0,0-1.17-3.78,14.09,14.09,0,0,0-3.57-5,14.69,14.69,0,0,0-5.61-3A19.45,19.45,0,0,0,77,16.61a13.58,13.58,0,0,0-2.17-1.5,12.41,12.41,0,0,0-3.46-1.28,17.65,17.65,0,0,0-3.64-.34c-1.73,0-3.54.17-5.55.37-.76.08-1.4.17-1.95.27-.82.15-1.44.3-1.93.4a6,6,0,0,1-.68.11,4.26,4.26,0,0,1-.66,0,7.67,7.67,0,0,1-1.16-.1A25.91,25.91,0,0,1,52,13.72c-.53-.16-1-.32-1.34-.45l-.46-.18L49.91,13a1.79,1.79,0,0,0-.82-.19,2,2,0,0,0-.51.06l-.31.11a2.76,2.76,0,0,0-.43.22,7.19,7.19,0,0,0-.7.48,16.87,16.87,0,0,0-1.36,1.19,22.68,22.68,0,0,0-2.22,2.48,15.71,15.71,0,0,0-1,1.45,10.39,10.39,0,0,0-.77,1.56,41.43,41.43,0,0,0-2.13,7.39A34,34,0,0,0,39.1,34a42.32,42.32,0,0,0,.85,8c0,.11,0,.21,0,.32s0,.43.05.65.07.68.1,1,0,.27,0,.37,0,.09,0,.13v0h0v.19l.41,1.83a9.4,9.4,0,0,0-1.5,2.16,8,8,0,0,0-.68,5.45h0a18.28,18.28,0,0,0,1.27,3.8,11.86,11.86,0,0,0,2.82,3.89,10.28,10.28,0,0,0,2.61,1.7A42.29,42.29,0,0,0,47.5,69a20.12,20.12,0,0,0,2.65,3.9,26.91,26.91,0,0,1,.57,5.31,7.57,7.57,0,0,1-.1,1.24,6,6,0,0,1-.4,1.64A5.65,5.65,0,0,1,48.93,83a10.23,10.23,0,0,1-2.2,1.61L46,85c-.23.12-.5.22-.74.33-1.45.45-2.85.88-4.16,1.27-12.06,3.64-18.72,5.65-21.9,13.35-1.34,3.25-4,15.18-4.08,15.68a1.28,1.28,0,0,0,.28,1.13,1.32,1.32,0,0,0,1.06.52h95.95a1.32,1.32,0,0,0,1.06-.52,1.37,1.37,0,0,0,.28-1.13C113.67,115.08,111.06,103.15,109.72,99.9ZM79,86.58,68.78,102.47,67.69,95l2.94-3.12-1.9-3.17,8-4.23a9,9,0,0,0,.71.81A12,12,0,0,0,79,86.58ZM49.42,30.78C58.76,32.86,77,28.89,77,28.89a17.22,17.22,0,0,0,3.31,8.69c1.65,2.2,2.9,6,3.68,9h-.08a.64.64,0,0,1-.6-.6c-.12-.56-.64-.73-1.48-.84a38.74,38.74,0,0,0-6.66-.22c-8,.39-7.37,1.11-10.5,1.11s-2.53-.72-10.49-1.11a38.74,38.74,0,0,0-6.66.22c-.83.11-1.36.28-1.47.84a.64.64,0,0,1-.6.6h0C45.74,43,49,38.61,49.42,30.78Zm32.33,20s0,4.61-3.14,6.17a8.46,8.46,0,0,1-3.72.82,7.45,7.45,0,0,1-3.76-.93,4.93,4.93,0,0,1-2.3-3c-.09-.3-.17-.6-.25-.89-.25-.89-.91-3.35.49-4.44.9-.71,3.71-1.15,6.4-1.15,2.45,0,4.94.34,5.67,1.1A3.08,3.08,0,0,1,81.75,50.8ZM60.85,53l-.25.89a4.94,4.94,0,0,1-2.29,3,7.47,7.47,0,0,1-3.76.93A8.47,8.47,0,0,1,50.82,57c-3.1-1.56-3.14-6.13-3.14-6.17a3.08,3.08,0,0,1,.61-2.28c.73-.76,3.22-1.1,5.67-1.1,2.69,0,5.49.45,6.4,1.15C61.76,49.66,61.09,52.12,60.85,53ZM50.55,67.33A41.72,41.72,0,0,1,48.1,61.6l-.27-.77-.77-.28a7.06,7.06,0,0,1-3.64-3,13.37,13.37,0,0,1-1.65-4.24,4.57,4.57,0,0,1,.4-3.13,6.22,6.22,0,0,1,1.14-1.56A26,26,0,0,0,45,51c.26.26.44.23.56,0,.15,1.7.86,5.52,4.17,7.29,4.19,2.22,10.44,1.39,12.56-3.56,1-2.23,1-4.42,2.42-4.42s1.46,2.19,2.42,4.42c2.12,5,8.37,5.79,12.56,3.56s4.22-7.73,4.22-8.12c0-.23.24-.39.56-.39a.53.53,0,0,0,.31-.1c.14.66.21,1.05.21,1.05s.4-.76,1-1.78a6,6,0,0,1,.88,1.34,4.72,4.72,0,0,1,.45,2,4.54,4.54,0,0,1-.12,1,15,15,0,0,1-1,3.09,8.47,8.47,0,0,1-2,2.78,7,7,0,0,1-2.27,1.35l-.77.28-.27.77a41.71,41.71,0,0,1-2.45,5.74A16.29,16.29,0,0,1,76,70.86l-.33.35-.1.47a30.68,30.68,0,0,0-.75,6.49,11.26,11.26,0,0,0,.11,1.59,9.49,9.49,0,0,0,.61,2.51l0,.11L65,87.91l-11.65-5.4a9.45,9.45,0,0,0,.7-2.74,10.77,10.77,0,0,0,.11-1.59,31,31,0,0,0-.75-6.5l-.11-.47L53,70.86A16.13,16.13,0,0,1,50.55,67.33Zm-.09,18.91a10.89,10.89,0,0,0,1.66-1.64L61,88.72l-1.9,3.16L62,95l-1,6.75L50,86.56Z" style="fill:#5aa376"/></svg><svg height="128" viewBox="0 0 128 128" width="128" x="148" y="424"><title>advisor</title><path d="M88.57,30.5c-5.36-10.42-14.64-14.73-24.26-15H64c-9.62.25-18.9,4.6-24.26,15C31.18,47.2,34.5,69,36.68,73.9c1.71,3.86,7.46,6.29,13.13,7.79l-3.64,1.64a2.52,2.52,0,1,0,2.07,4.6l10-4.48a2.53,2.53,0,0,0,1.48-2.3v-5A2.52,2.52,0,0,0,58.53,74,34.93,34.93,0,0,1,47.41,60.9a2.52,2.52,0,0,0-3-1.4c-1.39.43-3.14-.61-4.11-2.38-1.17-2.13-.88-4.71.61-5.63a2,2,0,0,1,1-.3A2.52,2.52,0,0,0,43,50.8a1.2,1.2,0,0,0,.52.14h0c.52,0,3.48-.2,7.26-4.43a23.54,23.54,0,0,0,4-6.85A45.08,45.08,0,0,0,65.2,45.26a58.73,58.73,0,0,0,19.16,2.5c0,.24,0,.47,0,.7a2.52,2.52,0,0,0,2.26,2.74,2.08,2.08,0,0,1,.89.28c1.5.92,1.78,3.5.62,5.63-1,1.75-2.67,2.75-4,2.39a2.52,2.52,0,0,0-3,1.42A34.61,34.61,0,0,1,69.83,74.08a2.52,2.52,0,0,0-1.18,2.14v4.93a2.53,2.53,0,0,0,1.49,2.3l10,4.48a2.52,2.52,0,0,0,2.07-4.6l-3.64-1.64c5.67-1.5,11.41-3.93,13.13-7.79,2.18-4.9,5.5-26.71-3.09-43.4" style="fill:#f9aa41"/><path d="M76.66,96H52.2a2.44,2.44,0,0,1,0-4.88H76.66a2.44,2.44,0,0,1,0,4.88" style="fill:#f9aa41"/><path d="M106.95,96.76c-3-7.29-9.3-9.19-20.71-12.63-1.73-.52-3.59-1.08-5.58-1.71a1.3,1.3,0,0,0-1.67,1C76.89,95.82,67.88,103.34,64.17,106c-3.7-2.61-12.71-10.13-14.81-22.53a1.29,1.29,0,0,0-1.67-1c-2,.62-3.85,1.18-5.59,1.71-11.41,3.45-17.7,5.35-20.71,12.63-1.27,3.07-3.74,14.33-3.85,14.81a1.28,1.28,0,0,0,.26,1.08,1.3,1.3,0,0,0,1,.48h90.72a1.3,1.3,0,0,0,1-.48,1.28,1.28,0,0,0,.26-1.08c-.1-.48-2.58-11.75-3.85-14.81" style="fill:#ed7700"/></svg><svg height="128" viewBox="0 0 128 128" width="128" x="286" y="424"><title>advisor_comment</title><circle cx="38.15" cy="75.68" r="34.65" style="fill:#ffe2ad"/><polygon points="37.2 62.76 24.41 69.01 22.32 74.56 22.32 79.58 32.29 91.93 27.04 95.31 29.94 108.36 49.11 108.36 47.99 96.06 44.2 91.78 55.06 79.58 52.38 64.84 37.2 62.76" style="fill:#fff"/><path d="M53,61.87a16.07,16.07,0,0,0-14.44-8.94h-.17A16,16,0,0,0,24,61.87c-5.11,9.94-3.14,22.92-1.84,25.83,1,2.3,4.44,3.74,7.82,4.64l-2.17,1A1.5,1.5,0,1,0,29,96.06L35,93.39A1.51,1.51,0,0,0,35.84,92V89a1.5,1.5,0,0,0-.69-1.26A20.79,20.79,0,0,1,28.53,80a1.5,1.5,0,0,0-1.82-.83,2.33,2.33,0,0,1-2.45-1.42c-.69-1.27-.53-2.81.36-3.35a1.21,1.21,0,0,1,.58-.18,1.5,1.5,0,0,0,.67-.23.72.72,0,0,0,.31.09h0c.31,0,2.07-.12,4.32-2.64a14,14,0,0,0,2.36-4.08,26.83,26.83,0,0,0,6.22,3.34,35,35,0,0,0,11.4,1.49c0,.14,0,.28,0,.42a1.5,1.5,0,0,0,1.34,1.63,1.24,1.24,0,0,1,.53.17c.89.54,1.06,2.08.37,3.35a2.35,2.35,0,0,1-2.41,1.42,1.5,1.5,0,0,0-1.76.85,20.6,20.6,0,0,1-6.69,7.83,1.5,1.5,0,0,0-.7,1.27V92a1.51,1.51,0,0,0,.89,1.37L48,96.06a1.5,1.5,0,0,0,1.23-2.74l-2.17-1c3.38-.89,6.79-2.34,7.82-4.64,1.29-2.92,3.27-15.9-1.84-25.83" style="fill:#f9aa41"/><path d="M45.94,100.89H31.38a1.45,1.45,0,0,1,0-2.91H45.94a1.45,1.45,0,0,1,0,2.91" style="fill:#f9aa41"/><path d="M25.37,93.79l3.32-1a.77.77,0,0,1,1,.6c1.25,7.38,6.62,11.86,8.82,13.41,2.21-1.56,7.57-6,8.82-13.41a.77.77,0,0,1,1-.6l3.32,1c5.86,1.77,9.44,2.86,11.47,5.91a34.64,34.64,0,1,0-49.48.45C15.6,96.76,19.24,95.65,25.37,93.79Z" style="fill:none"/><path d="M51.64,93.79l-3.32-1a.77.77,0,0,0-1,.6c-1.25,7.38-6.61,11.85-8.82,13.41-2.2-1.55-7.57-6-8.82-13.41a.77.77,0,0,0-1-.6l-3.32,1c-6.13,1.85-9.78,3-11.75,6.36a34.63,34.63,0,0,0,49.48-.45C61.08,96.65,57.49,95.56,51.64,93.79Z" style="fill:#ed7700"/><path d="M114.67,27.55H76.17a9.63,9.63,0,0,0-9.63,9.63V56.43a9.63,9.63,0,0,0,9.63,9.63h2.89V78.56L93.8,66.05h20.87a9.63,9.63,0,0,0,9.63-9.63V37.18A9.63,9.63,0,0,0,114.67,27.55Z" style="fill:#cfeaed"/><path d="M99.27,16H60.77a9.63,9.63,0,0,0-9.63,9.63V44.88a9.63,9.63,0,0,0,9.63,9.63h2.89V67L78.4,54.5H99.27a9.63,9.63,0,0,0,9.63-9.63V25.63A9.63,9.63,0,0,0,99.27,16Z" style="fill:#99cbd0"/><path d="M67.51,38.14h25a1.93,1.93,0,0,1,0,3.85h-25a1.93,1.93,0,1,1,0-3.85Zm0-9.63h25a1.93,1.93,0,1,1,0,3.85h-25a1.93,1.93,0,0,1,0-3.85Z" style="fill:#fff"/></svg><svg height="128" viewBox="0 0 128 128" width="128" x="424" y="424"><title>advisor2</title><polygon points="61.98 31.99 40.48 42.49 36.98 51.82 36.98 60.24 53.73 80.99 44.9 86.67 49.78 108.6 81.99 108.6 80.1 87.93 73.73 80.74 91.98 60.24 87.48 35.49 61.98 31.99" style="fill:#fff"/><path d="M88.57,30.5c-5.36-10.42-14.64-14.73-24.26-15H64c-9.62.25-18.9,4.6-24.26,15C31.18,47.2,34.5,69,36.68,73.9c1.71,3.86,7.46,6.29,13.13,7.79l-3.64,1.64a2.52,2.52,0,1,0,2.07,4.6l10-4.48a2.53,2.53,0,0,0,1.48-2.3v-5A2.52,2.52,0,0,0,58.53,74,34.93,34.93,0,0,1,47.41,60.9a2.52,2.52,0,0,0-3-1.4c-1.39.43-3.14-.61-4.11-2.38-1.17-2.13-.88-4.71.61-5.63a2,2,0,0,1,1-.3A2.52,2.52,0,0,0,43,50.8a1.2,1.2,0,0,0,.52.14h0c.52,0,3.48-.2,7.26-4.43a23.54,23.54,0,0,0,4-6.85A45.08,45.08,0,0,0,65.2,45.26a58.73,58.73,0,0,0,19.16,2.5c0,.24,0,.47,0,.7a2.52,2.52,0,0,0,2.26,2.74,2.08,2.08,0,0,1,.89.28c1.5.92,1.78,3.5.62,5.63-1,1.75-2.67,2.75-4,2.39a2.52,2.52,0,0,0-3,1.42A34.61,34.61,0,0,1,69.83,74.08a2.52,2.52,0,0,0-1.18,2.14v4.93a2.53,2.53,0,0,0,1.49,2.3l10,4.48a2.52,2.52,0,0,0,2.07-4.6l-3.64-1.64c5.67-1.5,11.41-3.93,13.13-7.79,2.18-4.9,5.5-26.71-3.09-43.4" style="fill:#f9aa41"/><path d="M76.66,96H52.2a2.44,2.44,0,0,1,0-4.88H76.66a2.44,2.44,0,0,1,0,4.88" style="fill:#f9aa41"/><path d="M106.95,96.76c-3-7.29-9.3-9.19-20.71-12.63-1.73-.52-3.59-1.08-5.58-1.71a1.3,1.3,0,0,0-1.67,1C76.89,95.82,67.88,103.34,64.17,106c-3.7-2.61-12.71-10.13-14.81-22.53a1.29,1.29,0,0,0-1.67-1c-2,.62-3.85,1.18-5.59,1.71-11.41,3.45-17.7,5.35-20.71,12.63-1.27,3.07-3.74,14.33-3.85,14.81a1.28,1.28,0,0,0,.26,1.08,1.3,1.3,0,0,0,1,.48h90.72a1.3,1.3,0,0,0,1-.48,1.28,1.28,0,0,0,.26-1.08c-.1-.48-2.58-11.75-3.85-14.81" style="fill:#ed7700"/></svg><svg height="128" viewBox="0 0 128 128" width="128" x="562" y="424"><title>home</title><path d="M21.12,58.58V114h87.11V57L63.88,15.82ZM58.92,94.5H49.06V84.64h9.86Zm0-19.72H49.06V64.92h9.86Zm9.86-9.86h9.86v9.86H68.78Zm0,19.72h9.86V94.5H68.78Z" style="fill:#f9aa41"/></svg><svg height="128" viewBox="0 0 128 128" width="128" x="10" y="562"><title>contact</title><rect x="21.47" y="15.29" width="71.37" height="98.82" rx="1" ry="1" style="fill:#f9aa41"/><path d="M76.37,42.74H37.94a2.74,2.74,0,0,1,0-5.49H76.37a2.74,2.74,0,1,1,0,5.49Z" style="fill:#fff"/><path d="M70.88,64.7H37.94a2.74,2.74,0,0,1,0-5.49H70.88a2.74,2.74,0,1,1,0,5.49Z" style="fill:#fff"/><path d="M59.9,86.66h-22a2.74,2.74,0,0,1,0-5.49h22a2.74,2.74,0,1,1,0,5.49Z" style="fill:#fff"/><path d="M70.24,105.24l-12,1.75,2.27-11.46L98.92,57.15a2,2,0,0,1,2.84,0L108.62,64a2,2,0,0,1,0,2.84Z" style="fill:#ed7700"/></svg><svg height="128" viewBox="0 0 128 128" width="128" x="148" y="562"><title>mail</title><polygon points="62.51 75.19 62.51 75.19 62.51 75.19 62.51 75.19" style="fill:#ed7700"/><path d="M63.25,75.5c-.09,0-.17-.07-.26-.1C63.08,75.43,63.17,75.48,63.25,75.5Z" style="fill:#ed7700"/><path d="M64,69.39l46.3-26V35.09a2.89,2.89,0,0,0-2.89-2.89H20.6a2.89,2.89,0,0,0-2.89,2.89v8.25Z" style="fill:#ed7700"/><path d="M65,75.4c-.09,0-.17.08-.26.1C64.84,75.48,64.92,75.43,65,75.4Z" style="fill:#ed7700"/><polygon points="65.49 75.19 65.49 75.19 65.5 75.19 65.49 75.19" style="fill:#ed7700"/><path d="M65.42,78.12a2.88,2.88,0,0,1-2.84,0L17.7,52.88v43a2.89,2.89,0,0,0,2.89,2.89H107.4a2.89,2.89,0,0,0,2.89-2.89v-43Z" style="fill:#f9aa41"/></svg><svg height="128" viewBox="0 0 128 128" width="128" x="286" y="562"><title>place</title><path d="M63.61,16.51c-17.28,0-31.33,15.57-31.33,34.7,0,27,29.34,59.94,30.59,61.33a1,1,0,0,0,1.49,0c1.25-1.39,30.59-34.3,30.59-61.33C94.94,32.07,80.89,16.51,63.61,16.51ZM73.73,47.84A10.11,10.11,0,1,1,63.62,37.73,10.11,10.11,0,0,1,73.73,47.84Z" style="fill:#ed7700"/></svg><svg height="128" viewBox="0 0 128 128" width="128" x="424" y="562"><title>search</title><path d="M106.62,116.1a7.06,7.06,0,0,1-5-2.08L76.1,88.51a7.09,7.09,0,0,1,10-10L111.63,104a7.09,7.09,0,0,1-5,12.1Z" style="fill:#ed7700"/><path d="M54.89,99.09A41.81,41.81,0,1,1,96.7,57.29,41.85,41.85,0,0,1,54.89,99.09Zm0-69.44A27.64,27.64,0,1,0,82.53,57.29,27.67,27.67,0,0,0,54.89,29.65Z" style="fill:#f9aa41"/></svg><svg height="128" viewBox="0 0 128 128" width="128" x="562" y="562"><title>trash</title><polygon points="90.52 111.25 34.27 111.25 31.14 48.75 93.64 48.75 90.52 111.25" style="fill:#f9aa41"/><path d="M90.52,114.38H34.27a3.12,3.12,0,0,1-3.12-3L28,48.91a3.12,3.12,0,0,1,3.12-3.28h62.5a3.12,3.12,0,0,1,3.12,3.28l-3.12,62.5A3.12,3.12,0,0,1,90.52,114.38Zm-53.28-6.25H87.55l2.81-56.25H34.43Z" style="fill:#f9aa41"/><rect x="56.14" y="17.5" width="12.5" height="6.25" style="fill:#f9aa41"/><path d="M68.64,26.88H56.14A3.12,3.12,0,0,1,53,23.75V17.5a3.12,3.12,0,0,1,3.13-3.12h12.5a3.12,3.12,0,0,1,3.13,3.12v6.25A3.12,3.12,0,0,1,68.64,26.88Zm-9.37-6.25h0Z" style="fill:#f9aa41"/><path d="M46.77,98.75a3.12,3.12,0,0,1-3.12-3.12V64.38a3.12,3.12,0,1,1,6.25,0V95.63A3.12,3.12,0,0,1,46.77,98.75Z" style="fill:#fff"/><path d="M62.39,98.75a3.12,3.12,0,0,1-3.12-3.12V64.38a3.12,3.12,0,1,1,6.25,0V95.63A3.12,3.12,0,0,1,62.39,98.75Z" style="fill:#fff"/><path d="M78,98.75a3.12,3.12,0,0,1-3.12-3.12V64.38a3.12,3.12,0,1,1,6.25,0V95.63A3.12,3.12,0,0,1,78,98.75Z" style="fill:#fff"/><rect x="28.02" y="26.88" width="68.75" height="9.37" style="fill:#ed7700"/><path d="M96.77,39.38H28a3.12,3.12,0,0,1-3.12-3.12V26.88A3.12,3.12,0,0,1,28,23.75H96.77a3.12,3.12,0,0,1,3.13,3.13v9.38A3.12,3.12,0,0,1,96.77,39.38ZM31.14,33.13h62.5V30H31.14Z" style="fill:#ed7700"/></svg><svg height="128" viewBox="0 0 128 128" width="128" x="800" y="10"><title>useful</title><path d="M62.95,101.89V36.79a1,1,0,0,1,.82-1l.18,0-45.1-8.46a1,1,0,0,0-1.18,1V93.4a1,1,0,0,0,.82,1l45.29,8.49.18,0a1,1,0,0,1-1-1ZM29,60.72A1,1,0,0,1,30.22,60l22.64,5.45a1,1,0,0,1-.23,2l-.23,0L29.75,61.93A1,1,0,0,1,29,60.72ZM29,45a1,1,0,0,1,1.21-.74l22.64,5.44a1,1,0,0,1-.23,2l-.23,0L29.75,46.25A1,1,0,0,1,29,45ZM29,76.4a1,1,0,0,1,1.21-.74L52.86,81.1a1,1,0,0,1-.23,2l-.23,0L29.75,77.6A1,1,0,0,1,29,76.4Z" style="fill:#ed7700"/><path d="M109.05,27.31l-45.1,8.46-.18,0a1,1,0,0,0-.82,1v65.1a1,1,0,0,0,1,1l.18,0,45.29-8.49a1,1,0,0,0,.82-1V28.3a1,1,0,0,0-1.18-1ZM75,65.43,97.68,60a1,1,0,1,1,.47,1.94L75.5,67.37l-.23,0a1,1,0,0,1-.23-2Zm0-15.68,22.64-5.44a1,1,0,1,1,.47,1.94L75.5,51.69l-.23,0a1,1,0,0,1-.23-2ZM75,81.1l22.64-5.44a1,1,0,0,1,.47,1.95L75.5,83l-.23,0a1,1,0,0,1-.23-2Z" style="fill:#f9aa41"/></svg><svg height="128" viewBox="0 0 128 128" width="128" x="800" y="148"><title>user</title><path d="M58.25,78.37c-7.63,9-16.9,13.63-20.73,10.38s-.8-10.6,9.47-14.57" style="fill:#ee767a"/><path d="M40.69,90.78a5.73,5.73,0,0,1-3.82-1.27A5.55,5.55,0,0,1,35,84.15c.72-4.23,5.16-8.41,11.6-10.9l.72,1.87c-6.92,2.68-9.9,6.72-10.35,9.37A3.57,3.57,0,0,0,38.17,88c1.5,1.28,4.36,1,7.84-.74a38.73,38.73,0,0,0,11.48-9.53L59,79A40.73,40.73,0,0,1,46.9,89,14.3,14.3,0,0,1,40.69,90.78Z" style="fill:#ee767a"/><path d="M104.2,106.26C101.06,97.59,89.08,92.19,73.48,87H53.32c-15.59,5.22-27.57,10.61-30.7,19.28-1.1,3-1.39,11-1.39,11h84.36s-.29-8-1.39-11" style="fill:#ee767a"/><path d="M70.79,93.42V80.36c6.55-3,12.11-9.79,15.71-18,3,.92,6.59-.8,8.51-4.3,2.2-4,1.38-8.85-1.83-10.8a5.55,5.55,0,0,0-2.55-.8c.14-1.43.21-2.86.21-4.28,0-19-11.86-29.46-27-29.46H63c-15.15,0-27,10.47-27,29.46,0,1.42.08,2.85.21,4.28a5.53,5.53,0,0,0-2.55.8c-3.21,2-4,6.79-1.82,10.8,1.92,3.5,5.5,5.22,8.51,4.3,3.59,8.19,9.15,15,15.7,18V93.42" style="fill:#fff"/><path d="M70.79,94.42a1,1,0,0,1-1-1V80.36a1,1,0,0,1,.58-.91c6-2.76,11.54-9.13,15.21-17.48a1,1,0,0,1,1.21-.55c2.6.79,5.69-.82,7.34-3.83,1.94-3.54,1.28-7.79-1.47-9.46a4.54,4.54,0,0,0-2.1-.66,1,1,0,0,1-.93-1.09c.14-1.44.21-2.85.21-4.19,0-17.29-10.21-28.46-26-28.46H63c-15.8,0-26,11.17-26,28.46,0,1.33.07,2.7.21,4.19a1,1,0,0,1-.93,1.09,4.51,4.51,0,0,0-2.09.66C31.4,49.8,30.74,54,32.68,57.59c1.65,3,4.73,4.62,7.34,3.83a1,1,0,0,1,1.21.56c3.66,8.34,9.2,14.71,15.21,17.48a1,1,0,0,1,.58.91V93.42a1,1,0,0,1-2,0V81c-6-3-11.55-9.3-15.28-17.46-3.3.53-6.88-1.46-8.81-5-2.45-4.47-1.47-9.91,2.18-12.13a6.41,6.41,0,0,1,2-.8C35,44.42,35,43.29,35,42.19,35,24,46.22,11.72,63,11.72h.85c16.75,0,28,12.24,28,30.46,0,1.11,0,2.26-.13,3.43a6.48,6.48,0,0,1,2,.8c3.65,2.22,4.63,7.66,2.18,12.13-1.93,3.52-5.53,5.51-8.81,5C83.34,71.69,77.82,78,71.79,81V93.42A1,1,0,0,1,70.79,94.42Z" style="fill:#f79c99"/><path d="M34,43.83s13.6,2.76,25.15-2.93C71.7,34.73,69.65,29.23,69.65,29.23s2.52,7.28,9.39,11A31.55,31.55,0,0,0,92.79,43.9s2.07-33-28.43-33S34,43.83,34,43.83" style="fill:#ee767a"/><path d="M42.06,45.51a45,45,0,0,1-8.24-.7,1,1,0,0,1-.8-1c0-.65,0-15.92,9.92-25.84,5.35-5.38,12.56-8.1,21.43-8.1s15.91,2.73,21,8.1c9.36,10,8.51,25.33,8.47,26a1,1,0,0,1-1,.94,32.34,32.34,0,0,1-14.24-3.79,21.92,21.92,0,0,1-8.36-8.4c-1,2.41-3.73,5.7-10.6,9.08A40.2,40.2,0,0,1,42.06,45.51ZM35,43c3.08.47,14.18,1.69,23.68-3,11.3-5.56,10-10.32,10-10.44h0a1,1,0,0,1,1.88-.68h0c0,.07,2.49,7,8.92,10.45a31.08,31.08,0,0,0,12.3,3.51c0-3.49-.5-15.57-8-23.51-4.66-5-11.21-7.46-19.49-7.46s-15,2.52-20,7.5C36.34,27.44,35.21,39.69,35,43Z" style="fill:#ee767a"/><polygon points="61.57 93.42 53.36 102.59 46.9 89.3 53.95 86.09 61.57 93.42" style="fill:#f79c99"/><path d="M53.36,103.6h-.14a1,1,0,0,1-.76-.55L46,89.74a1,1,0,0,1,.48-1.35l7.05-3.21a1,1,0,0,1,1.11.19l7.62,7.34a1,1,0,0,1,.05,1.39l-8.21,9.17A1,1,0,0,1,53.36,103.6ZM48.25,89.79l5.36,11,6.58-7.34-6.44-6.2Z" style="fill:#f79c99"/><polygon points="65.24 93.42 73.54 102.59 79.91 89.3 72.87 86.09 65.24 93.42" style="fill:#f79c99"/><path d="M73.54,103.6a1,1,0,0,1-.74-.33L64.5,94.1a1,1,0,0,1,0-1.39l7.63-7.34a1,1,0,0,1,1.11-.19l7,3.21a1,1,0,0,1,.49,1.34L74.44,103a1,1,0,0,1-.76.56ZM66.63,93.47l6.65,7.35,5.29-11-5.5-2.51Z" style="fill:#f79c99"/></svg><svg height="128" viewBox="0 0 128 128" width="128" x="800" y="286"><title>voice</title><polygon points="95.33 74.36 82.64 74.36 82.64 93.39 63.61 74.36 30.92 74.36 30.92 89 75.32 89 94.35 108.03 94.35 89 107.04 89 107.04 35.08 95.33 35.08 95.33 74.36" style="fill:#ed7700"/><path d="M82.64,93.39v-19H95.33V20.44H19.2V74.36H63.61ZM78.76,40.81a1,1,0,0,1-1,1h-41a1,1,0,0,1,0-2h41A1,1,0,0,1,78.76,40.81Zm-43,14.64a1,1,0,0,1,1-1h41a1,1,0,0,1,0,2h-41A1,1,0,0,1,35.77,55.45Z" style="fill:#f9aa41"/></svg></svg>